<svg width="35" height="30" viewBox="0 0 35 30" fill="none" xmlns="http://www.w3.org/2000/svg">
<g clip-path="url(#clip0_115_638)">
<path d="M35 4.19231C33.7122 4.76342 32.3283 5.1494 30.8758 5.323C32.3584 4.43427 33.4969 3.02705 34.0331 1.35034C32.6457 2.17314 31.1089 2.77075 29.4733 3.09285C28.1634 1.69728 26.2972 0.825195 24.2319 0.825195C20.2662 0.825195 17.051 4.04022 17.051 8.00571C17.051 8.56849 17.1147 9.11656 17.237 9.64209C11.2692 9.34264 5.97813 6.48391 2.43652 2.1396C1.81843 3.20014 1.46432 4.43363 1.46432 5.74957C1.46432 8.24076 2.73212 10.4386 4.65886 11.7263C3.48169 11.689 2.37456 11.366 1.40632 10.8282C1.40581 10.8582 1.40581 10.8883 1.40581 10.9185C1.40581 14.3976 3.88099 17.2999 7.16592 17.9594C6.56332 18.1236 5.92897 18.2113 5.274 18.2113C4.81133 18.2113 4.36146 18.1663 3.92311 18.0825C4.83681 20.9353 7.48866 23.0113 10.6308 23.0693C8.17332 24.9952 5.07711 26.1431 1.71294 26.1431C1.13338 26.1431 0.561762 26.1092 0 26.0429C3.17777 28.0802 6.95225 29.2689 11.0074 29.2689C24.2152 29.2689 31.4377 18.3272 31.4377 8.83836C31.4377 8.52701 31.4307 8.21733 31.4169 7.90943C32.8198 6.89703 34.0373 5.6323 35 4.19231Z" fill="#2E2E2E"/>
</g>
<defs>
<clipPath id="clip0_115_638">
<rect width="35" height="28.5742" fill="white" transform="translate(0 0.712891)"/>
</clipPath>
</defs>
</svg>
