<svg width="80" height="80" viewBox="0 0 80 80" fill="none" xmlns="http://www.w3.org/2000/svg">
<mask id="path-1-inside-1_138_316" fill="white">
<path d="M48.5638 15.3064C48.1129 15.1171 47.4265 14.7457 47.0385 14.4811C46.6505 14.2165 46.2726 14 46.1988 14C46.1249 14 45.9292 14.1634 45.7639 14.3629C45.5985 14.5625 45.4631 14.7994 45.4631 14.8894C45.4631 14.9795 45.1714 15.6219 44.8149 16.3172C44.4522 17.0247 44.0765 17.5812 43.9616 17.5812C43.8488 17.5812 43.3079 17.4177 42.7597 17.2177C41.988 16.9363 41.4187 16.8393 40.2377 16.7882C39.1246 16.7399 38.4689 16.7812 37.8119 16.941C37.3168 17.0614 36.2095 17.479 35.3514 17.8691C34.1231 18.4272 33.5785 18.7725 32.7929 19.4915C32.244 19.9938 31.6379 20.6587 31.4458 20.9688C31.2538 21.2792 30.8449 22.1202 30.5373 22.8381C30.2297 23.5559 29.8624 24.6346 29.7213 25.2354C29.5515 25.9581 29.4683 26.8643 29.4757 27.9143C29.4859 29.3428 29.5293 29.597 29.9105 30.4624C30.1435 30.9912 30.4366 31.6453 30.5621 31.9159C30.6663 32.1408 30.4959 32.3965 30.2481 32.3868L29.2014 32.3457C27.9934 32.2985 27.3954 32.3398 26.7072 32.518C26.2092 32.647 25.4598 32.8708 25.0416 33.0154C24.6235 33.16 23.8073 33.5045 23.2278 33.7811C22.6484 34.0575 21.9078 34.4573 21.5822 34.6694C21.2564 34.8815 20.4344 35.5789 19.7554 36.2192C19.0761 36.8595 18.2042 37.778 17.8175 38.2603C17.4308 38.7426 16.8044 39.7609 16.4254 40.5231C16.0464 41.2853 15.7021 42.0601 15.6601 42.2448C15.6182 42.4295 15.4486 43.115 15.283 43.7683C15.0211 44.8021 14.985 45.3464 15.0044 47.9693C15.0242 50.6503 15.0703 51.1877 15.4217 52.8421C15.7542 54.4072 16.0049 55.1159 17.0054 57.3186C18.1173 59.7665 18.2524 59.9917 19.0959 60.8027C19.5918 61.2795 20.3242 61.8661 20.7232 62.1061C21.1222 62.3462 21.7425 62.7708 22.1017 63.0497C22.4608 63.3288 23.1464 63.7416 23.6252 63.9673C24.1041 64.1931 24.9667 64.5381 25.542 64.7343C26.1821 64.9524 27.2152 65.1533 28.2032 65.2515C29.0914 65.3398 30.6605 65.383 31.69 65.3478C33.0863 65.3 33.6268 65.2301 33.8172 65.0731C33.9577 64.9573 34.7673 64.5209 35.6165 64.1034C36.4655 63.6859 37.4775 63.138 37.8655 62.8858C38.2534 62.6338 38.9952 62.0926 39.5139 61.6834C40.0326 61.2743 40.8369 60.5586 41.3013 60.0932C41.7656 59.6278 42.3811 58.9371 42.669 58.5585C42.957 58.1799 43.5488 57.1572 43.9842 56.2858C44.4195 55.4145 44.9232 54.1747 45.1034 53.5308C45.2836 52.8869 45.5134 51.5982 45.6143 50.6669C45.7257 49.6379 45.7627 48.2875 45.7087 47.2235C45.6446 45.9596 45.5001 45.0231 45.1886 43.8539C44.9246 42.8634 44.545 41.862 44.2112 41.2751C43.9109 40.7475 43.7036 40.2794 43.7505 40.2349C43.7973 40.1905 44.0549 40.2443 44.3229 40.3545C44.5909 40.4647 45.2109 40.8358 45.7006 41.1793C46.1905 41.5226 46.8912 42.1737 47.258 42.6261C47.6247 43.0785 48.52 44.493 49.2475 45.7694C49.975 47.0458 50.7892 48.3732 51.0568 48.7193C51.3243 49.0653 51.8566 49.6252 52.2395 49.9636C52.6226 50.3021 53.5368 50.8727 54.2715 51.2317C55.2177 51.6942 55.9634 51.9472 56.8286 52.0996C58.0153 52.3085 58.0669 52.3064 58.6466 52.0257C59.0261 51.842 59.2761 51.6122 59.3337 51.3945C59.3834 51.2062 59.3865 50.959 59.3405 50.8452C59.2781 50.6908 59.0197 50.6383 58.3207 50.6383C57.6438 50.6383 57.0297 50.5194 56.1034 50.2092C55.3986 49.9733 54.4783 49.5638 54.0581 49.2991C53.6377 49.0345 52.9825 48.4864 52.6021 48.0812C52.2216 47.676 51.5948 46.8304 51.209 46.2022C50.8232 45.574 50.22 44.657 49.8684 44.1646C49.5168 43.6722 48.8866 42.9284 48.4679 42.5118C48.0491 42.0951 47.3234 41.4443 46.8553 41.0655C46.3872 40.6867 45.9151 40.3272 45.8061 40.2666C45.6973 40.206 45.6082 40.0976 45.6082 40.0256C45.6082 39.9537 45.714 39.8947 45.8431 39.8947C45.9724 39.8947 46.4742 40.1231 46.9582 40.4023C47.4995 40.7144 49.0429 42.0298 50.9675 43.8194L52.6325 45.3677C53.6025 46.2697 54.7088 47.013 55.9104 47.5703C56.908 48.0328 58.1634 48.5184 58.7005 48.6492C59.4091 48.8218 60.0069 48.8674 60.8825 48.8155C61.7913 48.7616 62.2737 48.655 62.8398 48.3827C63.253 48.1839 63.8118 47.8119 64.0814 47.556C64.359 47.2924 64.6795 46.7774 64.8204 46.3684C64.9574 45.9712 65.0321 45.5541 64.9867 45.4417C64.9274 45.295 64.7918 45.2638 64.5064 45.331C64.2876 45.3825 63.9781 45.5381 63.8185 45.6768C63.6589 45.8155 63.0819 46.1606 62.5364 46.4433C61.8867 46.7801 61.1591 46.9379 60.4283 46.9004L60.0696 46.882C59.2202 46.8384 58.3487 46.711 58.0144 46.5815C57.6952 46.458 56.6831 46.0055 55.7653 45.5761C54.1032 44.7986 54.0865 44.7859 51.508 42.3326C49.2286 40.1636 48.7955 39.8142 47.8805 39.4066C46.9639 38.9982 46.638 38.9307 45.1119 38.8339C44.1607 38.7734 43.3617 38.662 43.3366 38.5862C43.3115 38.5105 43.8909 38.2006 44.6243 37.8975C45.3576 37.5945 46.3321 37.1179 46.7896 36.8386C47.2473 36.5591 48.1444 35.8344 48.7835 35.2278C49.6935 34.3639 50.0714 33.8771 50.5279 32.981C50.8484 32.3518 51.2187 31.4353 51.351 30.9443C51.5417 30.236 51.5761 29.6382 51.5178 28.0518C51.4692 26.7306 51.3391 25.6165 51.1346 24.7684C50.9584 24.0379 50.572 23.0071 50.2377 22.3761C49.9148 21.7664 49.3613 20.9739 49.0078 20.6153C48.6543 20.2565 48.3651 19.9174 48.3651 19.8614C48.3651 19.8057 48.5931 19.507 48.8718 19.198C49.1506 18.889 49.5097 18.3035 49.6699 17.8969C49.8301 17.4903 49.9609 17.0205 49.9607 16.8528C49.9604 16.6853 49.8305 16.3462 49.6719 16.0994C49.4789 15.799 49.1124 15.5367 48.5638 15.3064Z"/>
</mask>
<path d="M40.0823 17.8678L40.0856 18.0178L40.0857 18.0178L40.0823 17.8678ZM38.7884 18.0989L38.7485 17.9543L38.7884 18.0989ZM35.5077 19.244L35.5827 19.3739L35.5077 19.244ZM33.9835 20.3898L34.0866 20.4987L34.0866 20.4987L33.9835 20.3898ZM32.5284 22.2823L32.3954 22.213L32.3953 22.2131L32.5284 22.2823ZM31.1298 26.4068L30.9823 26.3792L30.9823 26.3792L31.1298 26.4068ZM31.0849 28.6268L30.9373 28.6535L30.9373 28.6535L31.0849 28.6268ZM32.371 32.1721L32.4996 32.0949L32.4996 32.0948L32.371 32.1721ZM33.1995 33.2051L33.3007 33.0944L33.3007 33.0944L33.1995 33.2051ZM34.5201 34.3228L34.4257 34.4394L34.4257 34.4394L34.5201 34.3228ZM40.6747 37.0981L40.6851 36.9485L40.6851 36.9485L40.6747 37.0981ZM44.1221 36.3361L44.0578 36.2006L44.0577 36.2006L44.1221 36.3361ZM50.1249 29.5559L50.2734 29.5769L50.2734 29.5769L50.1249 29.5559ZM50.1122 26.8952L50.2612 26.8784V26.8783L50.1122 26.8952ZM49.734 24.4996L49.5881 24.5343L49.5881 24.5344L49.734 24.4996ZM49.2222 23.0655L49.3544 22.9945L49.3544 22.9945L49.2222 23.0655ZM48.05 21.4179L47.933 21.5118L47.933 21.5118L48.05 21.4179ZM39.8983 39.0195L39.9149 38.8705L39.9149 38.8705L39.8983 39.0195ZM38.265 38.5764L38.3227 38.438L38.3227 38.438L38.265 38.5764ZM36.3083 37.69L36.3734 37.5548L36.3733 37.5548L36.3083 37.69ZM34.0237 36.3138L34.111 36.1918L34.111 36.1918L34.0237 36.3138ZM43.9841 50.1562L43.8346 50.1434L43.8346 50.1435L43.9841 50.1562ZM43.9436 45.2869L44.093 45.2734L44.093 45.2734L43.9436 45.2869ZM43.3521 42.9454L43.4925 42.8925L43.4925 42.8925L43.3521 42.9454ZM42.1832 40.6867L42.305 40.5991L42.305 40.5991L42.1832 40.6867ZM36.0657 19.0121L36.11 19.1555L36.0657 19.0121ZM37.0668 18.7027L37.0225 18.5594L37.0668 18.7027ZM40.966 17.9573L40.9513 18.1066L40.966 17.9573ZM44.5218 18.6592L44.5815 18.5216L44.5218 18.6592ZM45.7619 19.3352L45.8427 19.2088V19.2088L45.7619 19.3352ZM29.358 63.7886L29.3684 63.639L29.358 63.7886ZM36.7419 61.7501L36.8276 61.8732L36.7419 61.7501ZM37.331 61.3401L37.4167 61.4632L37.331 61.3401ZM41.6908 56.9899L41.8137 57.0759L41.6908 56.9899ZM34.3387 63.0308L34.3931 63.1706L34.3387 63.0308ZM40.0789 17.7179C39.7885 17.7243 39.1926 17.8319 38.7485 17.9543L38.8283 18.2435C39.2621 18.1239 39.8308 18.0234 40.0856 18.0178L40.0789 17.7179ZM35.4326 19.1141C34.9459 19.3954 34.3289 19.8561 33.8803 20.2809L34.0866 20.4987C34.5189 20.0893 35.1172 19.6429 35.5827 19.3739L35.4326 19.1141ZM33.8804 20.2809C33.2494 20.8782 32.7575 21.5175 32.3954 22.213L32.6614 22.3516C33.0065 21.6888 33.4772 21.0757 34.0866 20.4987L33.8804 20.2809ZM32.3953 22.2131C32.2481 22.4961 32.1031 22.8078 31.9879 23.0828C31.8742 23.354 31.7846 23.6008 31.7541 23.7492L32.0479 23.8096C32.0719 23.6929 32.1508 23.4703 32.2646 23.1988C32.3768 22.9311 32.5182 22.6268 32.6615 22.3516L32.3953 22.2131ZM31.7541 23.7492C31.7021 24.0018 31.5613 24.4169 31.4438 24.6626L31.7145 24.792C31.8419 24.5254 31.9908 24.0872 32.0479 23.8096L31.7541 23.7492ZM31.4438 24.6626C31.3759 24.8047 31.2917 25.07 31.2104 25.374C31.128 25.682 31.0454 26.0416 30.9823 26.3792L31.2772 26.4343C31.3388 26.1045 31.4197 25.7524 31.5002 25.4516C31.5817 25.1468 31.6599 24.9062 31.7145 24.792L31.4438 24.6626ZM30.9823 26.3792C30.8863 26.8934 30.8347 27.2458 30.8279 27.5793C30.8212 27.9145 30.8598 28.2244 30.9373 28.6535L31.2325 28.6002C31.1564 28.1783 31.1217 27.8911 31.1279 27.5854C31.1341 27.2781 31.1817 26.946 31.2772 26.4343L30.9823 26.3792ZM30.9373 28.6535C31.039 29.2163 31.2892 30.1121 31.4955 30.6511L31.7757 30.5438C31.576 30.0222 31.3308 29.1445 31.2325 28.6002L30.9373 28.6535ZM31.4955 30.6511C31.7004 31.1862 32.0348 31.9035 32.2424 32.2493L32.4996 32.0948C32.3041 31.7692 31.9768 31.0692 31.7757 30.5438L31.4955 30.6511ZM32.2424 32.2492C32.4504 32.5958 32.832 33.0724 33.0983 33.3158L33.3007 33.0944C33.0586 32.873 32.6947 32.4199 32.4996 32.0949L32.2424 32.2492ZM33.0983 33.3158C33.3558 33.5513 33.9527 34.0563 34.4257 34.4394L34.6145 34.2063C34.1432 33.8246 33.5517 33.3239 33.3007 33.0944L33.0983 33.3158ZM34.4257 34.4394C34.9001 34.8234 35.5383 35.2836 35.8475 35.4624L35.9977 35.2027C35.7085 35.0355 35.0844 34.5866 34.6145 34.2062L34.4257 34.4394ZM39.6501 37.0302C39.7524 37.0829 39.9185 37.1303 40.0936 37.1672C40.273 37.2049 40.4772 37.2348 40.6644 37.2477L40.6851 36.9485C40.5131 36.9366 40.3226 36.9088 40.1555 36.8736C39.9841 36.8375 39.8517 36.7966 39.7875 36.7635L39.6501 37.0302ZM40.6643 37.2477C40.86 37.2613 41.1665 37.238 41.497 37.1931C41.8306 37.1478 42.1998 37.079 42.525 36.9973L42.452 36.7063C42.1388 36.785 41.7806 36.8518 41.4567 36.8958C41.1297 36.9402 40.8486 36.9598 40.6851 36.9485L40.6643 37.2477ZM42.525 36.9973C43.164 36.8369 43.9118 36.602 44.1864 36.4717L44.0577 36.2006C43.8123 36.3171 43.0899 36.5462 42.452 36.7063L42.525 36.9973ZM44.1863 36.4717C44.4611 36.3414 44.9222 36.0318 45.2195 35.7808L45.0259 35.5516C44.7425 35.7909 44.3031 36.0843 44.0578 36.2006L44.1863 36.4717ZM45.8327 35.7749C45.8696 35.7749 45.9017 35.7627 45.9166 35.7568C45.9363 35.749 45.9569 35.7389 45.977 35.7281C46.0174 35.7065 46.0656 35.6767 46.1176 35.6422C46.2223 35.5729 46.3509 35.4784 46.4793 35.3753L46.2914 35.1414C46.1688 35.2399 46.0476 35.3287 45.9518 35.3922C45.9037 35.4241 45.8641 35.4482 45.8352 35.4638C45.8205 35.4716 45.811 35.476 45.806 35.478C45.7962 35.4818 45.809 35.4749 45.8327 35.4749V35.7749ZM47.5741 34.4809C47.8692 34.2396 48.3232 33.7921 48.5881 33.4816L48.3598 33.2869C48.1058 33.5847 47.6645 34.0195 47.3842 34.2485L47.5741 34.4809ZM48.5881 33.4816C48.7211 33.3257 48.8423 33.1654 48.9308 33.0316C48.9749 32.965 49.0124 32.9026 49.0394 32.849C49.0529 32.8224 49.065 32.7954 49.074 32.7696C49.0818 32.7468 49.092 32.712 49.0908 32.6738L48.791 32.6832C48.7904 32.6661 48.7946 32.6595 48.7905 32.6714C48.7874 32.6802 48.7815 32.6942 48.7716 32.7139C48.7518 32.7531 48.7212 32.8048 48.6806 32.8661C48.5998 32.9882 48.4862 33.1388 48.3598 33.2869L48.5881 33.4816ZM49.484 32.1251C49.5724 31.9885 49.653 31.8477 49.712 31.7299C49.7414 31.6711 49.7664 31.6161 49.7844 31.5689C49.7996 31.5292 49.8189 31.473 49.8183 31.4221L49.5183 31.4256C49.5182 31.4126 49.5203 31.4197 49.5042 31.4618C49.4909 31.4965 49.4705 31.542 49.4437 31.5956C49.3902 31.7025 49.3152 31.8337 49.2321 31.9622L49.484 32.1251ZM49.9502 30.9951C49.9815 30.9442 50.0093 30.864 50.0342 30.78C50.0606 30.6905 50.0886 30.579 50.1164 30.4537C50.1722 30.2029 50.2289 29.8908 50.2734 29.5769L49.9764 29.5348C49.9329 29.8417 49.8775 30.1462 49.8236 30.3886C49.7966 30.51 49.7703 30.6143 49.7465 30.6949C49.721 30.781 49.7025 30.8252 49.6946 30.8381L49.9502 30.9951ZM50.2734 29.5769C50.395 28.7188 50.391 28.0295 50.2612 26.8784L49.9631 26.912C50.091 28.0461 50.0934 28.7089 49.9764 29.5348L50.2734 29.5769ZM50.2612 26.8783C50.1659 26.0336 49.9951 24.9486 49.88 24.4649L49.5881 24.5344C49.6991 25.0007 49.8683 26.0719 49.9631 26.912L50.2612 26.8783ZM49.88 24.465C49.7651 23.9814 49.5308 23.3229 49.3544 22.9945L49.0901 23.1365C49.2506 23.4353 49.4772 24.0675 49.5881 24.5343L49.88 24.465ZM49.3544 22.9945C49.1788 22.6679 48.6439 21.9175 48.1669 21.3239L47.933 21.5118C48.4085 22.1034 48.9285 22.8358 49.0901 23.1365L49.3544 22.9945ZM41.0745 39.2397C40.9672 39.1514 40.7796 39.0725 40.5814 39.0109C40.377 38.9473 40.139 38.8955 39.9149 38.8705L39.8816 39.1686C40.0856 39.1914 40.3049 39.2391 40.4924 39.2973C40.686 39.3575 40.8248 39.4227 40.8838 39.4713L41.0745 39.2397ZM39.9149 38.8705C39.5033 38.8246 38.7821 38.6295 38.3227 38.438L38.2073 38.7149C38.6882 38.9154 39.4372 39.1191 39.8817 39.1686L39.9149 38.8705ZM38.3227 38.438C37.8555 38.2433 36.9774 37.8456 36.3734 37.5548L36.2433 37.8251C36.8508 38.1175 37.7339 38.5176 38.2073 38.7149L38.3227 38.438ZM36.3733 37.5548C35.7765 37.2677 34.7558 36.6531 34.111 36.1918L33.9364 36.4358C34.5928 36.9054 35.6283 37.5293 36.2433 37.8251L36.3733 37.5548ZM34.111 36.1918C33.4687 35.7325 32.5362 34.904 32.0448 34.3566L31.8216 34.5571C32.3285 35.1218 33.2777 35.9647 33.9364 36.4358L34.111 36.1918ZM43.2064 54.2864C43.2347 54.2698 43.2532 54.248 43.2626 54.236C43.2737 54.2219 43.2833 54.2068 43.2913 54.1928C43.3075 54.1647 43.3238 54.1303 43.3398 54.0929C43.3721 54.0174 43.409 53.9165 43.4479 53.7988C43.5261 53.5627 43.6161 53.2491 43.6995 52.9145L43.4084 52.8419C43.3264 53.171 43.2385 53.4771 43.1632 53.7045C43.1254 53.8186 43.0916 53.9105 43.0641 53.9748C43.0501 54.0072 43.0392 54.0295 43.0314 54.043C43.0274 54.0498 43.0258 54.0518 43.0267 54.0507C43.0272 54.0501 43.0292 54.0475 43.0329 54.0439C43.0364 54.0405 43.0437 54.034 43.0547 54.0275L43.2064 54.2864ZM43.6995 52.9145C43.8672 52.2415 44.0619 51.0085 44.1335 50.169L43.8346 50.1435C43.764 50.9705 43.5716 52.1874 43.4084 52.8419L43.6995 52.9145ZM44.1335 50.169C44.2051 49.3314 44.246 48.1166 44.2241 47.4653L43.9243 47.4754C43.9456 48.1119 43.9055 49.3144 43.8346 50.1434L44.1335 50.169ZM44.2241 47.4653C44.2024 46.819 44.1435 45.8336 44.093 45.2734L43.7942 45.3004C43.8441 45.8542 43.9027 46.8338 43.9243 47.4754L44.2241 47.4653ZM44.093 45.2734C44.0361 44.6443 43.7975 43.7032 43.4925 42.8925L43.2118 42.9982C43.5107 43.7927 43.7405 44.7064 43.7942 45.3004L44.093 45.2734ZM43.4925 42.8925C43.2066 42.1326 42.692 41.1371 42.305 40.5991L42.0614 40.7743C42.4298 41.2865 42.933 42.2573 43.2118 42.9982L43.4925 42.8925ZM42.305 40.5991C42.1193 40.341 41.936 40.1053 41.7897 39.933C41.7168 39.8472 41.6512 39.7749 41.5979 39.723C41.5716 39.6973 41.5453 39.6737 41.5206 39.6554C41.5084 39.6463 41.4934 39.6362 41.4765 39.6278C41.4627 39.6208 41.4324 39.607 41.3934 39.607V39.907C41.3628 39.907 41.343 39.8964 41.3419 39.8959C41.3378 39.8938 41.3376 39.8932 41.3421 39.8965C41.3511 39.9032 41.3663 39.9162 41.3885 39.9378C41.432 39.9802 41.4907 40.0445 41.561 40.1272C41.701 40.292 41.8793 40.5211 42.0614 40.7743L42.305 40.5991ZM36.11 19.1555L37.1111 18.846L37.0225 18.5594L36.0214 18.8688L36.11 19.1555ZM40.9513 18.1066C41.3675 18.1477 42.0197 18.2217 42.6828 18.3355C43.3492 18.4499 44.014 18.6024 44.4621 18.7968L44.5815 18.5216C44.0982 18.312 43.4031 18.1548 42.7335 18.0399C42.0606 17.9244 41.4007 17.8495 40.9807 17.8081L40.9513 18.1066ZM44.4621 18.7968C44.8809 18.9785 45.3044 19.2207 45.6811 19.4616L45.8427 19.2088C45.4583 18.963 45.0201 18.7118 44.5815 18.5216L44.4621 18.7968ZM27.6196 63.8183L29.3476 63.9382L29.3684 63.639L27.6404 63.519L27.6196 63.8183ZM36.8276 61.8732L37.4167 61.4632L37.2453 61.217L36.6562 61.627L36.8276 61.8732ZM41.8137 57.0759L42.3061 56.3718L42.0603 56.1999L41.5679 56.904L41.8137 57.0759ZM37.4167 61.4632C39.1293 60.2712 40.6179 58.7859 41.8137 57.0759L41.5679 56.904C40.3923 58.585 38.929 60.0451 37.2453 61.217L37.4167 61.4632ZM34.3931 63.1706C35.253 62.8358 36.0702 62.4003 36.8276 61.8732L36.6562 61.627C35.9183 62.1406 35.1221 62.5649 34.2843 62.8911L34.3931 63.1706ZM29.3476 63.9382C31.0655 64.0575 32.7884 63.7953 34.3931 63.1706L34.2843 62.8911C32.7208 63.4997 31.0421 63.7551 29.3684 63.639L29.3476 63.9382ZM35.5827 19.3739C35.7439 19.2807 35.9218 19.2137 36.11 19.1555L36.0214 18.8688C35.8234 18.93 35.6215 19.005 35.4326 19.1141L35.5827 19.3739ZM40.0857 18.0178C40.1598 18.0161 40.3256 18.0325 40.507 18.0537C40.6801 18.0739 40.8634 18.0979 40.9513 18.1066L40.9807 17.8081C40.8956 17.7997 40.7239 17.777 40.5418 17.7557C40.3682 17.7354 40.1786 17.7156 40.0789 17.7179L40.0857 18.0178ZM48.1669 21.3239C47.5085 20.5045 46.7318 19.7775 45.8427 19.2088L45.6811 19.4616C46.5393 20.0105 47.2923 20.7144 47.933 21.5118L48.1669 21.3239ZM38.7485 17.9543C38.4608 18.0337 38.1632 18.1441 37.8726 18.2541C37.5796 18.365 37.2945 18.4753 37.0225 18.5594L37.1111 18.846C37.3943 18.7585 37.6899 18.6441 37.9788 18.5347C38.2702 18.4244 38.5558 18.3187 38.8283 18.2435L38.7485 17.9543ZM47.0385 14.4811L46.8694 14.729V14.729L47.0385 14.4811ZM48.5638 15.3064L48.4476 15.583L48.4477 15.5831L48.5638 15.3064ZM49.6719 16.0994L49.4195 16.2615L49.4195 16.2616L49.6719 16.0994ZM49.9607 16.8528L50.2607 16.8523V16.8523L49.9607 16.8528ZM49.6699 17.8969L49.949 18.0068L49.6699 17.8969ZM48.8718 19.198L48.6491 18.997L48.649 18.997L48.8718 19.198ZM49.0078 20.6153L48.7941 20.8258L48.7941 20.8259L49.0078 20.6153ZM50.2377 22.3761L49.9725 22.5165L49.9726 22.5166L50.2377 22.3761ZM51.1346 24.7684L50.8429 24.8387V24.8387L51.1346 24.7684ZM51.5178 28.0518L51.8176 28.0407V28.0407L51.5178 28.0518ZM51.351 30.9443L51.6407 31.0223L51.6407 31.0222L51.351 30.9443ZM50.5279 32.981L50.2606 32.8448L50.2606 32.8448L50.5279 32.981ZM48.7835 35.2278L48.99 35.4453L48.7835 35.2278ZM46.7896 36.8386L46.9459 37.0947L46.946 37.0946L46.7896 36.8386ZM45.1119 38.8339L45.0929 39.1333L45.0929 39.1333L45.1119 38.8339ZM47.8805 39.4066L47.7584 39.6806L47.7584 39.6806L47.8805 39.4066ZM51.508 42.3326L51.3012 42.5499L51.3012 42.5499L51.508 42.3326ZM55.7653 45.5761L55.8924 45.3044L55.7653 45.5761ZM58.0144 46.5815L58.1228 46.3017L58.1227 46.3017L58.0144 46.5815ZM60.0696 46.882L60.0542 47.1816H60.0543L60.0696 46.882ZM60.4283 46.9004L60.4129 47.2H60.413L60.4283 46.9004ZM62.5364 46.4433L62.3983 46.177L62.3983 46.177L62.5364 46.4433ZM64.5064 45.331L64.5752 45.623L64.5752 45.623L64.5064 45.331ZM64.9867 45.4417L65.2649 45.3293L65.2648 45.3292L64.9867 45.4417ZM64.8204 46.3684L64.5368 46.2706L64.5368 46.2707L64.8204 46.3684ZM64.0814 47.556L64.2879 47.7736L64.288 47.7735L64.0814 47.556ZM62.8398 48.3827L62.7097 48.1123L62.7097 48.1124L62.8398 48.3827ZM60.8825 48.8155L60.8647 48.516H60.8647L60.8825 48.8155ZM58.7005 48.6492L58.6294 48.9407L58.6295 48.9407L58.7005 48.6492ZM55.9104 47.5703L55.7842 47.8425L55.7842 47.8425L55.9104 47.5703ZM52.6325 45.3677L52.8368 45.148L52.6325 45.3677ZM50.9675 43.8194L51.1718 43.5997V43.5997L50.9675 43.8194ZM46.9582 40.4023L46.8083 40.6622L46.8084 40.6622L46.9582 40.4023ZM45.8061 40.2666L45.6602 40.5287L45.6603 40.5288L45.8061 40.2666ZM54.0581 49.2991L54.218 49.0452L54.2179 49.0452L54.0581 49.2991ZM56.1034 50.2092L56.1987 49.9248L56.1986 49.9248L56.1034 50.2092ZM59.3405 50.8452L59.0623 50.9576L59.0624 50.9576L59.3405 50.8452ZM59.3337 51.3945L59.6237 51.4712L59.6237 51.4711L59.3337 51.3945ZM58.6466 52.0257L58.7774 52.2957L58.6466 52.0257ZM56.8286 52.0996L56.8807 51.8041H56.8806L56.8286 52.0996ZM54.2715 51.2317L54.4032 50.9621L54.4032 50.9621L54.2715 51.2317ZM52.2395 49.9636L52.0408 50.1884L52.0409 50.1885L52.2395 49.9636ZM51.0568 48.7193L50.8194 48.9028L50.8195 48.9028L51.0568 48.7193ZM47.258 42.6261L47.4911 42.4372L47.491 42.4371L47.258 42.6261ZM45.7006 41.1793L45.5283 41.4249L45.5284 41.4249L45.7006 41.1793ZM44.2112 41.2751L44.4719 41.1268L44.4719 41.1268L44.2112 41.2751ZM45.1886 43.8539L45.4784 43.7766L45.4784 43.7766L45.1886 43.8539ZM45.7087 47.2235L46.0084 47.2083V47.2083L45.7087 47.2235ZM45.6143 50.6669L45.316 50.6346L45.6143 50.6669ZM43.9842 56.2858L44.2526 56.4199L44.2526 56.4199L43.9842 56.2858ZM42.669 58.5585L42.4302 58.3769L42.4302 58.3769L42.669 58.5585ZM39.5139 61.6834L39.3281 61.4478L39.3281 61.4478L39.5139 61.6834ZM37.8655 62.8858L37.7021 62.6343L37.7021 62.6343L37.8655 62.8858ZM35.6165 64.1034L35.7488 64.3726L35.7488 64.3726L35.6165 64.1034ZM33.8172 65.0731L33.6263 64.8417L33.6263 64.8417L33.8172 65.0731ZM31.69 65.3478L31.6797 65.0479H31.6797L31.69 65.3478ZM28.2032 65.2515L28.2329 64.9529L28.2329 64.9529L28.2032 65.2515ZM25.542 64.7343L25.4452 65.0182L25.4452 65.0182L25.542 64.7343ZM22.1017 63.0497L22.2857 62.8128L22.2857 62.8128L22.1017 63.0497ZM20.7232 62.1061L20.8779 61.849L20.8778 61.849L20.7232 62.1061ZM19.0959 60.8027L18.8879 61.0189L18.8879 61.0189L19.0959 60.8027ZM17.0054 57.3186L16.7322 57.4426L16.7322 57.4427L17.0054 57.3186ZM15.4217 52.8421L15.7152 52.7798L15.7152 52.7798L15.4217 52.8421ZM15.0044 47.9693L15.3044 47.9671L15.3044 47.9671L15.0044 47.9693ZM15.283 43.7683L14.9922 43.6946L14.9922 43.6947L15.283 43.7683ZM17.8175 38.2603L18.0516 38.448L18.0516 38.448L17.8175 38.2603ZM19.7554 36.2192L19.9612 36.4375L19.9612 36.4375L19.7554 36.2192ZM21.5822 34.6694L21.7459 34.9208L21.7459 34.9207L21.5822 34.6694ZM23.2278 33.7811L23.357 34.0519L23.357 34.0519L23.2278 33.7811ZM25.0416 33.0154L24.9435 32.7319L24.9435 32.7319L25.0416 33.0154ZM26.7072 32.518L26.7824 32.8085L26.7824 32.8085L26.7072 32.518ZM29.2014 32.3457L29.2131 32.046H29.2131L29.2014 32.3457ZM30.2481 32.3868L30.2599 32.087L30.2481 32.3868ZM30.5621 31.9159L30.8343 31.7898L30.8343 31.7896L30.5621 31.9159ZM29.9105 30.4624L29.6359 30.5834L29.6359 30.5834L29.9105 30.4624ZM29.4757 27.9143L29.1758 27.9164V27.9164L29.4757 27.9143ZM29.7213 25.2354L29.4292 25.1668L29.4292 25.1668L29.7213 25.2354ZM30.5373 22.8381L30.8131 22.9563L30.8131 22.9563L30.5373 22.8381ZM31.4458 20.9688L31.1908 20.8109L31.1907 20.811L31.4458 20.9688ZM32.7929 19.4915L32.9955 19.7128L32.9955 19.7128L32.7929 19.4915ZM35.3514 17.8691L35.4755 18.1422L35.4755 18.1422L35.3514 17.8691ZM37.8119 16.941L37.8827 17.2325L37.8827 17.2325L37.8119 16.941ZM40.2377 16.7882L40.2247 17.0879L40.2247 17.088L40.2377 16.7882ZM42.7597 17.2177L42.8625 16.9359L42.8625 16.9359L42.7597 17.2177ZM44.8149 16.3172L44.548 16.1803L44.548 16.1803L44.8149 16.3172ZM45.7639 14.3629L45.9949 14.5544L45.9949 14.5543L45.7639 14.3629ZM46.8694 14.729C47.2748 15.0054 47.979 15.3862 48.4476 15.583L48.68 15.0299C48.2469 14.8479 47.5782 14.4861 47.2075 14.2333L46.8694 14.729ZM48.4477 15.5831C48.974 15.804 49.2747 16.0361 49.4195 16.2615L49.9243 15.9373C49.6832 15.5619 49.2509 15.2695 48.6799 15.0298L48.4477 15.5831ZM49.4195 16.2616C49.4865 16.3658 49.5497 16.4936 49.5955 16.6132C49.6448 16.7419 49.6606 16.8264 49.6607 16.8533L50.2607 16.8523C50.2604 16.7118 50.2111 16.543 50.1558 16.3985C50.097 16.245 50.0159 16.0798 49.9243 15.9372L49.4195 16.2616ZM49.6607 16.8533C49.6607 16.8905 49.64 17.0126 49.5865 17.2047C49.5365 17.3841 49.467 17.5933 49.3908 17.7869L49.949 18.0068C50.0329 17.7938 50.109 17.5649 50.1645 17.3657C50.2163 17.1794 50.2609 16.9828 50.2607 16.8523L49.6607 16.8533ZM49.3908 17.7869C49.2431 18.1618 48.9025 18.7161 48.6491 18.997L49.0946 19.3989C49.3986 19.0619 49.7763 18.4452 49.949 18.0068L49.3908 17.7869ZM48.649 18.997C48.5054 19.1564 48.3733 19.3146 48.2755 19.4426C48.2271 19.506 48.184 19.5661 48.1516 19.6173C48.1357 19.6425 48.1189 19.6709 48.1051 19.6997C48.0983 19.7138 48.0651 19.7796 48.0651 19.8614H48.6651C48.6651 19.9033 48.6556 19.9332 48.653 19.9412C48.6493 19.9526 48.646 19.9592 48.6459 19.9595C48.6456 19.9601 48.6488 19.9536 48.6586 19.9381C48.6777 19.908 48.709 19.8636 48.7524 19.8067C48.8383 19.6942 48.9595 19.5486 49.0946 19.3989L48.649 18.997ZM48.0651 19.8614C48.0651 19.9207 48.0821 19.9666 48.089 19.9843C48.0981 20.0075 48.1084 20.0273 48.1166 20.042C48.1331 20.0714 48.1532 20.101 48.1725 20.1278C48.212 20.1825 48.265 20.2484 48.3256 20.3194C48.4478 20.4627 48.6135 20.6425 48.7941 20.8258L49.2215 20.4047C49.0486 20.2292 48.893 20.0601 48.7822 19.9301C48.7263 19.8646 48.685 19.8127 48.6592 19.7769C48.653 19.7683 48.6482 19.7614 48.6448 19.7562C48.6412 19.7507 48.6398 19.7483 48.6399 19.7484C48.64 19.7485 48.6408 19.7499 48.642 19.7525C48.6432 19.7549 48.6454 19.7596 48.6479 19.766C48.6504 19.7725 48.6651 19.8092 48.6651 19.8614H48.0651ZM48.7941 20.8259C49.1211 21.1577 49.6587 21.9237 49.9725 22.5165L50.5028 22.2357C50.1709 21.609 49.6014 20.7902 49.2215 20.4047L48.7941 20.8259ZM49.9726 22.5166C50.2945 23.1242 50.6723 24.1314 50.8429 24.8387L51.4262 24.698C51.2445 23.9445 50.8494 22.89 50.5028 22.2357L49.9726 22.5166ZM50.8429 24.8387C51.0411 25.6602 51.1698 26.7525 51.218 28.0628L51.8176 28.0407C51.7685 26.7086 51.6372 25.5729 51.4262 24.698L50.8429 24.8387ZM51.218 28.0628C51.2762 29.6458 51.2394 30.2047 51.0613 30.8663L51.6407 31.0222C51.844 30.2673 51.876 29.6306 51.8176 28.0407L51.218 28.0628ZM51.0614 30.8662C50.9361 31.3311 50.575 32.2276 50.2606 32.8448L50.7952 33.1172C51.1218 32.476 51.5013 31.5395 51.6407 31.0223L51.0614 30.8662ZM50.2606 32.8448C49.8228 33.7041 49.4681 34.1642 48.5769 35.0102L48.99 35.4453C49.919 34.5635 50.3199 34.0501 50.7952 33.1172L50.2606 32.8448ZM48.5769 35.0102C47.9448 35.6102 47.0651 36.3189 46.6333 36.5826L46.946 37.0946C47.4294 36.7994 48.3441 36.0585 48.99 35.4453L48.5769 35.0102ZM46.6333 36.5826C46.1938 36.8509 45.2347 37.3207 44.5097 37.6203L44.7388 38.1748C45.4805 37.8684 46.4704 37.385 46.9459 37.0947L46.6333 36.5826ZM44.5097 37.6203C44.1367 37.7744 43.799 37.9318 43.5545 38.0626C43.4338 38.1271 43.3276 38.1895 43.2498 38.2451C43.2127 38.2716 43.1691 38.3056 43.1329 38.3452C43.1154 38.3645 43.0881 38.3974 43.0672 38.4422C43.0468 38.4857 43.0168 38.575 43.0518 38.6806L43.6214 38.4919C43.6532 38.588 43.6249 38.666 43.6106 38.6965C43.5957 38.7283 43.5791 38.7464 43.5764 38.7494C43.57 38.7564 43.5733 38.7514 43.5984 38.7334C43.6451 38.7001 43.7249 38.6519 43.8375 38.5916C44.0598 38.4728 44.3785 38.3237 44.7388 38.1748L44.5097 37.6203ZM43.0518 38.6806C43.0859 38.7833 43.1613 38.8354 43.1834 38.8502C43.2155 38.8717 43.2475 38.8858 43.2699 38.8948C43.3163 38.9133 43.3699 38.9281 43.4218 38.9403C43.5285 38.9655 43.6711 38.99 43.8355 39.0129C44.1666 39.0591 44.6119 39.1027 45.0929 39.1333L45.131 38.5345C44.6607 38.5046 44.2309 38.4622 43.9184 38.4187C43.761 38.3967 43.6397 38.3753 43.5598 38.3564C43.5184 38.3466 43.4981 38.3398 43.4923 38.3375C43.4886 38.336 43.4999 38.34 43.517 38.3515C43.5242 38.3563 43.5905 38.3986 43.6214 38.4919L43.0518 38.6806ZM45.0929 39.1333C45.858 39.1818 46.3008 39.222 46.664 39.2972C47.0194 39.3707 47.307 39.4795 47.7584 39.6806L48.0026 39.1326C47.5374 38.9253 47.2037 38.7961 46.7855 38.7096C46.3751 38.6247 45.8919 38.5828 45.1309 38.5345L45.0929 39.1333ZM47.7584 39.6806C48.6177 40.0634 49.0138 40.3733 51.3012 42.5499L51.7148 42.1152C49.4435 39.9539 48.9733 39.5649 48.0026 39.1325L47.7584 39.6806ZM51.3012 42.5499C52.584 43.7704 53.2477 44.4018 53.7985 44.8214C54.3618 45.2506 54.8097 45.4603 55.6382 45.8479L55.8924 45.3044C55.0588 44.9144 54.6673 44.729 54.1621 44.3442C53.6444 43.9497 53.0106 43.3481 51.7148 42.1152L51.3012 42.5499ZM55.6382 45.8479C56.5545 46.2765 57.5758 46.7334 57.9061 46.8613L58.1227 46.3017C57.8146 46.1825 56.8117 45.7344 55.8924 45.3044L55.6382 45.8479ZM57.9061 46.8613C58.1073 46.9392 58.4381 47.0071 58.8054 47.0608C59.181 47.1157 59.6206 47.1594 60.0542 47.1816L60.085 46.5824C59.6692 46.5611 59.2484 46.5192 58.8923 46.4671C58.528 46.4138 58.2558 46.3533 58.1228 46.3017L57.9061 46.8613ZM60.0543 47.1816L60.4129 47.2L60.4437 46.6008L60.085 46.5824L60.0543 47.1816ZM62.6744 46.7097C62.9525 46.5655 63.2385 46.4056 63.4761 46.2635C63.7054 46.1265 63.9123 45.9927 64.0153 45.9033L63.6217 45.4504C63.5651 45.4996 63.4037 45.6078 63.1682 45.7486C62.9411 45.8844 62.6658 46.0384 62.3983 46.177L62.6744 46.7097ZM64.0153 45.9033C64.1359 45.7985 64.4007 45.6641 64.5752 45.623L64.4377 45.039C64.1745 45.1009 63.8203 45.2778 63.6217 45.4504L64.0153 45.9033ZM64.5752 45.623C64.6374 45.6083 64.6834 45.601 64.717 45.5984C64.7512 45.5957 64.7642 45.5985 64.7639 45.5985C64.7608 45.5977 64.7452 45.593 64.7283 45.578C64.712 45.5637 64.7074 45.5513 64.7086 45.5542L65.2648 45.3292C65.2013 45.1721 65.0782 45.0552 64.8987 45.0138C64.7515 44.9798 64.5897 45.0031 64.4376 45.039L64.5752 45.623ZM64.7086 45.5541C64.6937 45.5173 64.702 45.5073 64.6994 45.5645C64.6975 45.6081 64.6903 45.6692 64.6767 45.7453C64.6495 45.8967 64.6007 46.0852 64.5368 46.2706L65.104 46.4662C65.1771 46.2544 65.2341 46.0358 65.2672 45.8512C65.2837 45.7593 65.2953 45.6703 65.2988 45.5916C65.3018 45.5267 65.3024 45.4223 65.2649 45.3293L64.7086 45.5541ZM64.5368 46.2707C64.4095 46.64 64.1132 47.1121 63.8748 47.3385L64.288 47.7735C64.6048 47.4726 64.9495 46.9147 65.1041 46.4661L64.5368 46.2707ZM63.8749 47.3384C63.6325 47.5685 63.1012 47.9241 62.7097 48.1123L62.9698 48.653C63.4048 48.4438 63.9912 48.0553 64.2879 47.7736L63.8749 47.3384ZM62.7097 48.1124C62.1909 48.3619 61.7506 48.4635 60.8647 48.516L60.9002 49.1149C61.8319 49.0597 62.3565 48.9481 62.9698 48.653L62.7097 48.1124ZM60.8647 48.516C60.0132 48.5665 59.4459 48.522 58.7714 48.3577L58.6295 48.9407C59.3723 49.1216 60.0007 49.1683 60.9003 49.1149L60.8647 48.516ZM58.7715 48.3577C58.264 48.2341 57.0303 47.7589 56.0366 47.2982L55.7842 47.8425C56.7858 48.3068 58.0629 48.8026 58.6294 48.9407L58.7715 48.3577ZM52.8368 45.148L51.1718 43.5997L50.7632 44.0391L52.4282 45.5874L52.8368 45.148ZM51.1718 43.5997C50.2074 42.703 49.337 41.9236 48.6387 41.3285C47.9486 40.7403 47.4067 40.3146 47.1081 40.1424L46.8084 40.6622C47.051 40.8021 47.5514 41.1902 48.2495 41.7851C48.9394 42.3731 49.803 43.1463 50.7632 44.0391L51.1718 43.5997ZM47.1081 40.1424C46.8588 39.9986 46.6037 39.8672 46.3919 39.7708C46.2863 39.7227 46.1878 39.6817 46.104 39.652C46.0344 39.6274 45.9335 39.5947 45.8431 39.5947V40.1947C45.8174 40.1947 45.8277 40.1906 45.9037 40.2176C45.9654 40.2394 46.0468 40.2729 46.1433 40.3169C46.3357 40.4044 46.5736 40.5268 46.8083 40.6622L47.1081 40.1424ZM45.8431 39.5947C45.7367 39.5947 45.6259 39.6184 45.5312 39.6711C45.4474 39.7178 45.3082 39.8307 45.3082 40.0256H45.9082C45.9082 40.085 45.8855 40.1302 45.8652 40.1568C45.8463 40.1816 45.8284 40.1924 45.8232 40.1953C45.8137 40.2006 45.8204 40.1947 45.8431 40.1947V39.5947ZM45.3082 40.0256C45.3082 40.167 45.3846 40.2801 45.4345 40.3408C45.4939 40.4131 45.5723 40.4798 45.6602 40.5287L45.9521 40.0045C45.9425 39.9992 45.9321 39.9921 45.9219 39.9835C45.9116 39.9749 45.9036 39.9666 45.8982 39.96C45.8923 39.9528 45.8924 39.9512 45.895 39.9568C45.8964 39.9598 45.8994 39.9667 45.9022 39.9772C45.9049 39.9875 45.9082 40.0041 45.9082 40.0256H45.3082ZM45.6603 40.5288C45.6601 40.5287 45.6609 40.5291 45.6627 40.5302C45.6645 40.5313 45.667 40.5328 45.6702 40.5349C45.6766 40.539 45.685 40.5444 45.6955 40.5515C45.7164 40.5656 45.743 40.5842 45.775 40.6073C45.8389 40.6533 45.9204 40.714 46.0143 40.7854C46.2019 40.9282 46.4346 41.111 46.6666 41.2987L47.044 40.8323C46.808 40.6413 46.5706 40.4549 46.3778 40.3081C46.1949 40.1688 46.0297 40.0477 45.9519 40.0044L45.6603 40.5288ZM46.6666 41.2987C47.1269 41.6712 47.8449 42.3151 48.2563 42.7244L48.6795 42.2991C48.2533 41.875 47.52 41.2174 47.044 40.8323L46.6666 41.2987ZM48.2563 42.7244C48.6628 43.1289 49.2822 43.8598 49.6242 44.3389L50.1125 43.9903C49.7514 43.4845 49.1104 42.7279 48.6795 42.2991L48.2563 42.7244ZM49.6242 44.3389C49.971 44.8246 50.5704 45.7356 50.9533 46.3592L51.4646 46.0452C51.0759 45.4123 50.4689 44.4894 50.1125 43.9903L49.6242 44.3389ZM50.9533 46.3592C51.3466 46.9995 51.9853 47.8626 52.3834 48.2865L52.8208 47.8758C52.4579 47.4894 51.843 46.6613 51.4646 46.0452L50.9533 46.3592ZM52.3834 48.2865C52.7793 48.7082 53.4539 49.2732 53.8983 49.553L54.2179 49.0452C53.8215 48.7957 53.1858 48.2646 52.8208 47.8758L52.3834 48.2865ZM53.8982 49.5529C54.346 49.835 55.2908 50.2535 56.0082 50.4937L56.1986 49.9248C55.5065 49.6931 54.6106 49.2926 54.218 49.0452L53.8982 49.5529ZM56.0081 50.4937C56.9528 50.81 57.6005 50.9383 58.3207 50.9383V50.3383C57.6871 50.3383 57.1067 50.2288 56.1987 49.9248L56.0081 50.4937ZM58.3207 50.9383C58.6699 50.9383 58.8823 50.952 59.0097 50.9778C59.1456 51.0054 59.0906 51.0274 59.0623 50.9576L59.6186 50.7328C59.528 50.5086 59.3125 50.4271 59.129 50.3898C58.9368 50.3508 58.6705 50.3383 58.3207 50.3383V50.9383ZM59.0624 50.9576C59.0607 50.9536 59.0647 50.9627 59.0683 50.9907C59.0716 51.0164 59.0735 51.0496 59.073 51.0882C59.072 51.1666 59.0614 51.2507 59.0436 51.3178L59.6237 51.4711C59.6557 51.35 59.6715 51.2163 59.673 51.0956C59.6744 50.9835 59.6642 50.8453 59.6186 50.7327L59.0624 50.9576ZM59.0436 51.3178C59.0348 51.3513 59.0011 51.4163 58.9079 51.5019C58.8174 51.5851 58.6863 51.6732 58.5159 51.7557L58.7774 52.2957C58.9864 52.1945 59.1701 52.0759 59.3138 51.9438C59.4548 51.8142 59.575 51.6554 59.6237 51.4712L59.0436 51.3178ZM58.5159 51.7557C58.2238 51.8971 58.1173 51.9398 57.9531 51.9465C57.7598 51.9544 57.4892 51.9113 56.8807 51.8041L56.7766 52.395C57.3547 52.4968 57.7033 52.5571 57.9774 52.546C58.2806 52.5337 58.4898 52.435 58.7774 52.2957L58.5159 51.7557ZM56.8806 51.8041C56.0479 51.6575 55.329 51.4147 54.4032 50.9621L54.1397 51.5012C55.1064 51.9737 55.8789 52.2369 56.7766 52.395L56.8806 51.8041ZM54.4032 50.9621C53.6802 50.6089 52.7927 50.052 52.4381 49.7388L52.0409 50.1885C52.4525 50.5521 53.3935 51.1366 54.1398 51.5012L54.4032 50.9621ZM52.4382 49.7389C52.0671 49.4109 51.5484 48.8646 51.2941 48.5358L50.8195 48.9028C51.1003 49.266 51.6461 49.8396 52.0408 50.1884L52.4382 49.7389ZM51.2941 48.5358C51.0419 48.2096 50.2383 46.9018 49.5081 45.6208L48.9869 45.918C49.7118 47.1898 50.5365 48.5368 50.8194 48.9028L51.2941 48.5358ZM49.5081 45.6208C48.781 44.3452 47.875 42.911 47.4911 42.4372L47.0249 42.815C47.3743 43.2461 48.2589 44.6408 48.9869 45.918L49.5081 45.6208ZM47.491 42.4371C47.1062 41.9626 46.3849 41.2926 45.8728 40.9336L45.5284 41.4249C45.9961 41.7527 46.6762 42.3849 47.025 42.815L47.491 42.4371ZM45.8729 40.9337C45.3799 40.5878 44.7373 40.2005 44.437 40.077L44.2088 40.632C44.4444 40.7289 45.0419 41.0837 45.5283 41.4249L45.8729 40.9337ZM44.437 40.077C44.2895 40.0164 44.1403 39.9692 44.0151 39.9431C43.9537 39.9302 43.888 39.9203 43.8264 39.9194C43.7959 39.9189 43.7566 39.9205 43.715 39.9294C43.678 39.9373 43.6071 39.9574 43.5439 40.0174L43.957 40.4525C43.9056 40.5014 43.8529 40.5135 43.8401 40.5162C43.8225 40.5199 43.8132 40.5193 43.8176 40.5193C43.8258 40.5194 43.85 40.5215 43.8924 40.5304C43.9747 40.5476 44.0883 40.5824 44.2088 40.632L44.437 40.077ZM43.5439 40.0174C43.4739 40.0838 43.4547 40.162 43.4485 40.1997C43.4418 40.2411 43.4437 40.2771 43.4459 40.3C43.4505 40.3465 43.4622 40.392 43.4731 40.4284C43.496 40.5044 43.5327 40.5967 43.5763 40.6953C43.6649 40.8954 43.7968 41.1535 43.9504 41.4235L44.4719 41.1268C44.3253 40.8691 44.2034 40.6294 44.1249 40.4524C44.0851 40.3625 44.06 40.2965 44.0478 40.2557C44.0411 40.2337 44.042 40.2312 44.0431 40.2415C44.0435 40.2463 44.0455 40.2672 44.0407 40.2966C44.0365 40.3223 44.0211 40.3917 43.957 40.4525L43.5439 40.0174ZM43.9504 41.4235C44.2668 41.9797 44.6383 42.9541 44.8987 43.9311L45.4784 43.7766C45.2109 42.7727 44.8232 41.7444 44.4719 41.1268L43.9504 41.4235ZM44.8987 43.9311C45.2046 45.0792 45.346 45.9948 45.4091 47.2387L46.0084 47.2083C45.9432 45.9244 45.7956 44.9671 45.4784 43.7766L44.8987 43.9311ZM45.4091 47.2387C45.4623 48.2873 45.4257 49.6218 45.316 50.6346L45.9125 50.6992C46.0257 49.654 46.0631 48.2877 46.0084 47.2083L45.4091 47.2387ZM45.316 50.6346C45.2163 51.5555 44.9889 52.8268 44.8145 53.4499L45.3923 53.6116C45.5783 52.9469 45.8106 51.6409 45.9125 50.6992L45.316 50.6346ZM44.8145 53.4499C44.6411 54.0693 44.1461 55.2905 43.7158 56.1517L44.2526 56.4199C44.6929 55.5385 45.2052 54.2802 45.3923 53.6116L44.8145 53.4499ZM43.7159 56.1517C43.282 57.0199 42.7004 58.0217 42.4302 58.3769L42.9078 58.7401C43.2136 58.3381 43.8155 57.2944 44.2526 56.4199L43.7159 56.1517ZM42.4302 58.3769C42.1528 58.7417 41.547 59.4221 41.0889 59.8813L41.5137 60.3051C41.9842 59.8335 42.6094 59.1326 42.9078 58.7401L42.4302 58.3769ZM41.0889 59.8813C40.633 60.3383 39.8376 61.0461 39.3281 61.4478L39.6997 61.9189C40.2277 61.5025 41.0409 60.7789 41.5137 60.3051L41.0889 59.8813ZM39.3281 61.4478C38.8138 61.8536 38.0798 62.3888 37.7021 62.6343L38.029 63.1374C38.4271 62.8787 39.1766 62.3316 39.6997 61.9189L39.3281 61.4478ZM37.7021 62.6343C37.3298 62.8763 36.331 63.4178 35.4841 63.8342L35.7488 64.3726C36.5999 63.9541 37.6253 63.3998 38.029 63.1374L37.7021 62.6343ZM35.4841 63.8342C35.0566 64.0444 34.6386 64.2595 34.3088 64.4373C34.144 64.5261 33.9998 64.6063 33.8867 64.6725C33.7813 64.7341 33.6831 64.7948 33.6263 64.8417L34.0081 65.3045C34.0079 65.3047 34.009 65.3038 34.0117 65.3018C34.0144 65.2998 34.018 65.2971 34.0228 65.2938C34.0326 65.287 34.0454 65.2784 34.0617 65.268C34.0944 65.2471 34.1372 65.2211 34.1897 65.1904C34.2945 65.1291 34.432 65.0524 34.5934 64.9655C34.9158 64.7917 35.3272 64.58 35.7488 64.3726L35.4841 63.8342ZM33.6263 64.8417C33.6222 64.8451 33.5953 64.8643 33.5157 64.8879C33.4379 64.9109 33.3263 64.9333 33.1674 64.9539C32.8492 64.9949 32.3773 65.0241 31.6797 65.0479L31.7003 65.6476C32.399 65.6237 32.8955 65.5939 33.2443 65.5489C33.4188 65.5264 33.5653 65.4989 33.686 65.4632C33.8049 65.428 33.9171 65.3796 34.0081 65.3045L33.6263 64.8417ZM31.6797 65.0479C30.6616 65.0828 29.1059 65.0397 28.2329 64.9529L28.1735 65.55C29.0768 65.6398 30.6595 65.6832 31.7003 65.6476L31.6797 65.0479ZM28.2329 64.9529C27.2582 64.8561 26.2496 64.6585 25.6388 64.4503L25.4452 65.0182C26.1146 65.2464 27.1722 65.4505 28.1735 65.55L28.2329 64.9529ZM25.6388 64.4503C25.0725 64.2573 24.2205 63.9163 23.7532 63.696L23.4973 64.2387C23.9877 64.4699 24.8609 64.819 25.4452 65.0182L25.6388 64.4503ZM23.7532 63.696C23.291 63.4781 22.6249 63.0764 22.2857 62.8128L21.9176 63.2866C22.2967 63.5812 23.0018 64.0051 23.4973 64.2387L23.7532 63.696ZM22.2857 62.8128C21.917 62.5264 21.2868 62.0951 20.8779 61.849L20.5685 62.3631C20.9576 62.5972 21.5681 63.0152 21.9176 63.2867L22.2857 62.8128ZM20.8778 61.849C20.5048 61.6247 19.7905 61.0543 19.3038 60.5864L18.8879 61.0189C19.3932 61.5047 20.1435 62.1076 20.5686 62.3632L20.8778 61.849ZM19.3038 60.5864C18.8893 60.1879 18.6666 59.9503 18.4085 59.5201C18.1412 59.0745 17.8371 58.4243 17.2785 57.1945L16.7322 57.4427C17.2855 58.6607 17.605 59.3471 17.894 59.8288C18.1923 60.3259 18.459 60.6065 18.8879 61.0189L19.3038 60.5864ZM17.2785 57.1945C16.283 55.0026 16.0414 54.3158 15.7152 52.7798L15.1283 52.9044C15.4669 54.4986 15.7269 55.2291 16.7322 57.4426L17.2785 57.1945ZM15.7152 52.7798C15.3697 51.1531 15.3241 50.6381 15.3044 47.9671L14.7044 47.9715C14.7242 50.6625 14.771 51.2223 15.1283 52.9044L15.7152 52.7798ZM15.3044 47.9671C15.285 45.3433 15.3224 44.8342 15.5738 43.842L14.9922 43.6947C14.7198 44.7699 14.685 45.3495 14.7044 47.9716L15.3044 47.9671ZM15.5738 43.842C15.7391 43.1897 15.9098 42.5003 15.9527 42.3112L15.3676 42.1784C15.3267 42.3587 15.158 43.0404 14.9922 43.6946L15.5738 43.842ZM15.9527 42.3112C15.9572 42.2912 15.9778 42.2288 16.0227 42.1162C16.0649 42.0106 16.1221 41.8764 16.1905 41.7224C16.3273 41.4147 16.5063 41.0343 16.694 40.6567L16.1568 40.3895C15.9656 40.7741 15.7829 41.1623 15.6422 41.4787C15.572 41.6368 15.5115 41.7785 15.4655 41.8939C15.4222 42.0023 15.384 42.1061 15.3676 42.1784L15.9527 42.3112ZM16.694 40.6567C17.0668 39.907 17.6823 38.9085 18.0516 38.448L17.5835 38.0727C17.1794 38.5766 16.542 39.6147 16.1568 40.3895L16.694 40.6567ZM18.0516 38.448C18.4264 37.9805 19.2875 37.0726 19.9612 36.4375L19.5496 36.0009C18.8648 36.6465 17.982 37.5755 17.5835 38.0727L18.0516 38.448ZM19.9612 36.4375C20.6403 35.7971 21.445 35.1167 21.7459 34.9208L21.4185 34.418C21.0679 34.6463 20.2286 35.3606 19.5496 36.0009L19.9612 36.4375ZM21.7459 34.9207C22.0557 34.719 22.7829 34.3258 23.357 34.0519L23.0986 33.5103C22.5139 33.7893 21.7599 34.1955 21.4184 34.418L21.7459 34.9207ZM23.357 34.0519C23.9305 33.7782 24.7358 33.4387 25.1397 33.2989L24.9435 32.7319C24.5113 32.8814 23.6842 33.2309 23.0986 33.5104L23.357 34.0519ZM25.1396 33.2989C25.5492 33.1573 26.2909 32.9357 26.7824 32.8085L26.632 32.2276C26.1275 32.3582 25.3703 32.5843 24.9435 32.7319L25.1396 33.2989ZM26.7824 32.8085C27.4293 32.6409 27.9935 32.5987 29.1896 32.6455L29.2131 32.046C27.9932 31.9983 27.3616 32.0387 26.632 32.2276L26.7824 32.8085ZM29.1896 32.6455L30.2364 32.6865L30.2599 32.087L29.2131 32.046L29.1896 32.6455ZM30.8343 31.7896C30.71 31.5218 30.4179 30.8699 30.185 30.3415L29.6359 30.5834C29.8691 31.1125 30.1632 31.7689 30.29 32.0421L30.8343 31.7896ZM30.185 30.3415C29.9968 29.9143 29.9031 29.6618 29.8497 29.3491C29.7947 29.0267 29.7808 28.6302 29.7757 27.9122L29.1758 27.9164C29.1808 28.6268 29.1937 29.0718 29.2582 29.45C29.3244 29.8378 29.4429 30.1452 29.6359 30.5834L30.185 30.3415ZM29.7757 27.9122C29.7684 26.8771 29.8507 25.9962 30.0133 25.304L29.4292 25.1668C29.2523 25.92 29.1683 26.8516 29.1758 27.9164L29.7757 27.9122ZM30.0133 25.304C30.1496 24.724 30.5106 23.662 30.8131 22.9563L30.2616 22.7199C29.9488 23.4497 29.5753 24.5452 29.4292 25.1668L30.0133 25.304ZM30.8131 22.9563C31.1198 22.2403 31.5215 21.4168 31.7009 21.1267L31.1907 20.811C30.9862 21.1416 30.57 22.0001 30.2616 22.7199L30.8131 22.9563ZM31.7008 21.1268C31.7811 20.9972 31.9642 20.7709 32.2072 20.5043C32.4459 20.2426 32.7282 19.9573 32.9955 19.7128L32.5904 19.2702C32.3087 19.528 32.0136 19.8262 31.7639 20.1001C31.5186 20.3691 31.3026 20.6303 31.1908 20.8109L31.7008 21.1268ZM32.9955 19.7128C33.7525 19.0199 34.2686 18.6906 35.4755 18.1422L35.2273 17.5959C33.9776 18.1638 33.4045 18.5251 32.5904 19.2702L32.9955 19.7128ZM35.4755 18.1422C36.3283 17.7545 37.4153 17.3462 37.8827 17.2325L37.741 16.6495C37.2183 16.7766 36.0907 17.2035 35.2272 17.5959L35.4755 18.1422ZM37.8827 17.2325C38.5004 17.0823 39.1241 17.0401 40.2247 17.0879L40.2507 16.4885C39.1251 16.4396 38.4374 16.4801 37.741 16.6495L37.8827 17.2325ZM40.2247 17.088C41.3873 17.1383 41.9237 17.2322 42.6569 17.4995L42.8625 16.9359C42.0524 16.6404 41.4501 16.5404 40.2506 16.4885L40.2247 17.088ZM42.6569 17.4995C42.9355 17.6012 43.2132 17.6939 43.4371 17.7616C43.5488 17.7954 43.6496 17.8237 43.7317 17.8439C43.801 17.8609 43.8911 17.8812 43.9616 17.8812V17.2812C43.9757 17.2812 43.9559 17.2811 43.8749 17.2612C43.8067 17.2444 43.7169 17.2194 43.6108 17.1873C43.399 17.1232 43.1321 17.0342 42.8625 16.9359L42.6569 17.4995ZM43.9616 17.8812C44.0802 17.8812 44.1666 17.8183 44.1971 17.7953C44.2405 17.7626 44.2804 17.7226 44.3151 17.6842C44.3856 17.606 44.4637 17.5013 44.5439 17.3824C44.706 17.1424 44.8966 16.8155 45.0819 16.454L44.548 16.1803C44.3705 16.5264 44.1919 16.8315 44.0467 17.0466C43.9733 17.1553 43.9132 17.2339 43.8696 17.2822C43.8592 17.2938 43.8508 17.3024 43.8444 17.3085C43.8379 17.3148 43.835 17.3169 43.8356 17.3165C43.836 17.3162 43.8381 17.3146 43.8417 17.3124C43.8452 17.3102 43.8513 17.3066 43.8598 17.3026C43.8742 17.2959 43.9104 17.2812 43.9616 17.2812V17.8812ZM45.0819 16.454C45.2618 16.1031 45.426 15.7643 45.5459 15.5003C45.6056 15.3687 45.6556 15.253 45.6912 15.1624C45.7088 15.1175 45.7244 15.0751 45.736 15.0381C45.7434 15.0147 45.7631 14.9531 45.7631 14.8894H45.1631C45.1631 14.8482 45.1736 14.8264 45.1637 14.858C45.158 14.8762 45.148 14.9042 45.1327 14.943C45.1025 15.0199 45.0573 15.1251 44.9995 15.2523C44.8844 15.5059 44.7245 15.836 44.548 16.1803L45.0819 16.454ZM45.7631 14.8894C45.7631 14.9268 45.753 14.9394 45.7652 14.9092C45.7738 14.8877 45.7891 14.8561 45.8119 14.8161C45.8574 14.7365 45.9226 14.6415 45.9949 14.5544L45.5329 14.1715C45.4397 14.2839 45.3545 14.4072 45.291 14.5184C45.2593 14.5739 45.2304 14.6309 45.2085 14.6853C45.1901 14.7311 45.1631 14.807 45.1631 14.8894H45.7631ZM45.9949 14.5543C46.0673 14.4669 46.1447 14.3896 46.2078 14.337C46.2398 14.3103 46.2626 14.2945 46.2751 14.2872C46.2813 14.2835 46.2801 14.2849 46.2725 14.2877C46.2677 14.2896 46.2403 14.3 46.1988 14.3V13.7C46.0935 13.7 46.0068 13.7488 45.9707 13.7701C45.9205 13.7996 45.8702 13.8372 45.8234 13.8763C45.7288 13.9552 45.6257 14.0594 45.5328 14.1716L45.9949 14.5543ZM46.1988 14.3C46.1528 14.3 46.125 14.2873 46.1399 14.2926C46.1451 14.2944 46.1575 14.2994 46.1787 14.3094C46.2205 14.329 46.2791 14.36 46.3517 14.4016C46.4959 14.4843 46.6807 14.6003 46.8694 14.729L47.2075 14.2333C47.0082 14.0974 46.8101 13.9728 46.65 13.881C46.5704 13.8354 46.4964 13.7958 46.4344 13.7666C46.4037 13.7521 46.3715 13.7381 46.3404 13.7271C46.3189 13.7195 46.2632 13.7 46.1988 13.7V14.3ZM60.413 47.2C61.1969 47.2402 61.9775 47.071 62.6744 46.7097L62.3983 46.177C61.7959 46.4893 61.1213 46.6356 60.4437 46.6008L60.413 47.2ZM56.0366 47.2982C54.8636 46.7541 53.7837 46.0285 52.8368 45.148L52.4282 45.5874C53.4213 46.5109 54.5539 47.2719 55.7842 47.8425L56.0366 47.2982ZM30.2364 32.6865C30.7082 32.705 31.0328 32.2182 30.8343 31.7898L30.2899 32.0419C30.2933 32.0492 30.2935 32.0541 30.2932 32.0577C30.2928 32.0622 30.2911 32.0676 30.2875 32.0729C30.284 32.0782 30.2796 32.0818 30.2757 32.0839C30.2725 32.0856 30.2679 32.0873 30.2599 32.087L30.2364 32.6865Z" fill="#CECA70" mask="url(#path-1-inside-1_138_316)"/>
</svg>
