<svg width="73" height="73" viewBox="0 0 73 73" fill="none" xmlns="http://www.w3.org/2000/svg">
<path fill-rule="evenodd" clip-rule="evenodd" d="M1.8096 1.9836C-0.6954 4.7516 -0.564399 20.1936 1.9836 22.4996C4.7516 25.0046 20.1936 24.8736 22.4996 22.3256C25.0046 19.5576 24.8736 4.1156 22.3256 1.8096C19.5576 -0.6954 4.1156 -0.564399 1.8096 1.9836ZM32.1546 4.1546V8.1546H36.1546H40.1546V4.1546V0.1546H36.1546H32.1546V4.1546ZM49.8096 1.9836C47.3046 4.7516 47.4356 20.1936 49.9836 22.4996C52.7516 25.0046 68.1936 24.8736 70.4996 22.3256C73.0046 19.5576 72.8736 4.1156 70.3256 1.8096C67.5576 -0.6954 52.1156 -0.564399 49.8096 1.9836ZM8.1546 12.1546V16.1546H12.1546H16.1546V12.1546V8.1546H12.1546H8.1546V12.1546ZM56.1546 12.1546V16.1546H60.1546H64.1546V12.1546V8.1546H60.1546H56.1546V12.1546ZM32.1546 20.1546V24.1546H36.1546H40.1546V20.1546V16.1546H36.1546H32.1546V20.1546ZM0.1546 36.1546V40.1546H4.1546H8.1546V36.1546V32.1546H4.1546H0.1546V36.1546ZM16.1546 36.1546V40.1546H20.1546H24.1546V36.1546V32.1546H20.1546H16.1546V36.1546ZM32.1546 36.1546V40.1546H36.1546H40.1546V44.1546V48.1546H36.1546H32.1546V52.1546V56.1546H36.1546H40.1546V60.1546V64.1546H36.1546H32.1546V68.1546V72.1546H36.1546H40.1546V68.1546V64.1546H44.1546H48.1546V68.1546V72.1546H52.1546H56.1546V68.1546V64.1546H60.1546H64.1546V68.1546V72.1546H68.1546H72.1546V68.1546V64.1546H68.1546H64.1546V60.1546V56.1546H68.1546H72.1546V52.1546V48.1546H68.1546H64.1546V44.1546V40.1546H68.1546H72.1546V36.1546V32.1546H68.1546H64.1546V36.1546V40.1546H60.1546H56.1546V36.1546V32.1546H52.1546H48.1546V36.1546V40.1546H44.1546H40.1546V36.1546V32.1546H36.1546H32.1546V36.1546ZM48.1546 44.1546V48.1546H44.1546H40.1546V52.1546V56.1546H44.1546H48.1546V60.1546V64.1546H52.1546H56.1546V60.1546V56.1546H60.1546H64.1546V52.1546V48.1546H60.1546H56.1546V44.1546V40.1546H52.1546H48.1546V44.1546ZM1.8096 49.9836C-0.6954 52.7516 -0.564399 68.1936 1.9836 70.4996C4.7516 73.0046 20.1936 72.8736 22.4996 70.3256C25.0046 67.5576 24.8736 52.1156 22.3256 49.8096C19.5576 47.3046 4.1156 47.4356 1.8096 49.9836ZM48.1546 52.1546V56.1546H52.1546H56.1546V52.1546V48.1546H52.1546H48.1546V52.1546ZM8.1546 60.1546V64.1546H12.1546H16.1546V60.1546V56.1546H12.1546H8.1546V60.1546Z" fill="#2E2E2E"/>
</svg>
