<svg xmlns="http://www.w3.org/2000/svg" width="24" height="24">
<g fill="none" fill-rule="nonzero">
<path d="M24 0v24H0V0h24ZM12.59349 23.25784l-.01155.00167-.07106.03553-.019.0037-.01516-.0037-.07107-.03553c-.00983-.00314-.0186-.00049-.0235.0054l-.00412.01092-.01709.42728.00495.02039.01101.01221.10358.07398.01487.00392.01177-.00392.10357-.07398.0126-.01604.00336-.01656-.01709-.42728c-.00199-.01013-.00855-.01653-.01607-.01799Zm.2649-.11255-.01384.00202-.1847.09235-.00997.01025-.00269.0112.0179.42953.00484.01278.00846.00707.20095.09275c.01209.00366.0229-.00025.02849-.00801l.004-.01407-.03415-.61463c-.0024-.01194-.01027-.01953-.01929-.02124Zm-.71534.00202a.0229.0229 0 0 0-.02741.00529l-.00572.01393-.03415.61463a.0229.0229 0 0 0 .01688.0234l.0156-.00132.20096-.09275.00944-.00806.00385-.0118.0179-.42952-.00316-.0126-.00949-.00885-.1847-.09235Z"/>
<path fill="#F5DEB3" d="M5.41215 2.28593c.45607-.19546 1.00845-.15969 1.44513.15884 1.14196.83298 2.03187 1.97063 2.79274 3.05828l.44202.64376.41696.61473c.39984.58491.33738 1.36927-.14591 1.88079l-.10999.10526-1.95112 1.44901c-.19339.1436-.25769.4047-.14171.6158.44146.8036 1.22792 1.9994 2.12793 2.8994.9009.9009 2.1532 1.7381 3.012 2.2293.19486.11139.43367.06888.58465-.08718l.05895-.07372 1.2693-1.9335c.4868-.6477 1.3957-.7893 2.0564-.332l.70631.48977c1.29412.90394 2.56729 1.85632 3.54519 3.10863.3416.4375.3923 1.0095.1886 1.4849-.832 1.9414-2.9657 3.615-5.1572 3.5344l-.30052-.01672-.23295-.0201-.2578-.0289-.28157-.03906-.30429-.05063-.32594-.06359-.34654-.07793-.36607-.09366-.38454-.11078-.40194-.12928c-1.84633-.62552-4.18913-1.85542-6.59289-4.25915-2.40378-2.40379-3.6337-4.7466-4.25921-6.59293l-.12929-.40194-.11077-.38454-.09366-.36606-.07792-.34654-.06359-.32594-.05062-.30428-.03906-.28157-.02889-.25779-.0201-.23294-.0167-.30052C1.78675 5.25209 3.46855 3.1189 5.41215 2.28593Zm14.58805.71413c.5522 0 1 .44772 1 1v4c0 .55229-.4478 1-1 1-.5523 0-1-.44771-1-1V6.41425l-3.293 3.29297c-.3905.39048-1.0237.39048-1.4142 0-.3905-.39053-.3905-1.02369 0-1.41422l3.2929-3.29294h-1.5857c-.5523 0-1-.44771-1-1 0-.55228.4477-1 1-1h4Z"/>
</g>
</svg>