<svg xmlns="http://www.w3.org/2000/svg" version="1.1" xmlns:xlink="http://www.w3.org/1999/xlink" xmlns:svgjs="http://svgjs.com/svgjs" width="217" height="217"><svg width="217" height="217" viewBox="0 0 217 217" fill="none" xmlns="http://www.w3.org/2000/svg">
<circle cx="108.5" cy="108.5" r="108.5" fill="#2E2E2E"></circle>
<mask id="SvgjsMask1000" fill="white">
<path d="M147.283 22.6041C145.695 21.9366 143.275 20.628 141.908 19.6955C140.541 18.7631 139.209 18 138.949 18C138.689 18 137.999 18.5757 137.416 19.2791C136.833 19.9824 136.356 20.8173 136.356 21.1343C136.356 21.4517 135.328 23.7157 134.072 26.166C132.794 28.6596 131.47 30.6206 131.065 30.6206C130.667 30.6206 128.761 30.0444 126.829 29.3396C124.11 28.3479 122.103 28.0062 117.941 27.8261C114.018 27.6557 111.708 27.8014 109.392 28.3644C107.647 28.7887 103.745 30.2604 100.721 31.6351C96.3924 33.602 94.4733 34.8189 91.7048 37.3527C89.7703 39.123 87.6343 41.4661 86.9573 42.5592C86.2808 43.6528 84.8398 46.6168 83.7557 49.1467C82.6716 51.6762 81.3774 55.4779 80.8798 57.5952C80.2815 60.1421 79.9885 63.3357 80.0146 67.0359C80.0504 72.0701 80.2033 72.9661 81.5466 76.016C82.3678 77.8794 83.4008 80.1847 83.8431 81.138L84.6465 82.8724L79.0476 82.6529C74.7905 82.4864 72.6832 82.632 70.2578 83.2602C68.5028 83.7145 65.8616 84.5033 64.3879 85.013C62.9147 85.5227 60.0383 86.7367 57.9959 87.7114C55.9541 88.6856 53.3441 90.0942 52.1966 90.8418C51.0486 91.5893 48.1518 94.0469 45.7586 96.3036C43.3649 98.5602 40.2921 101.797 38.9293 103.497C37.5666 105.196 35.359 108.785 34.0234 111.471C32.6877 114.157 31.4742 116.888 31.3264 117.539C31.1787 118.19 30.5809 120.606 29.9974 122.908C29.0744 126.551 28.9471 128.469 29.0156 137.713C29.0852 147.161 29.2478 149.055 30.4863 154.885C31.6578 160.401 32.5414 162.898 36.0673 170.661C39.9858 179.287 40.4619 180.081 43.4344 182.939C45.1823 184.62 47.7631 186.687 49.1693 187.533C50.5756 188.379 52.7616 189.875 54.0273 190.858C55.2929 191.842 57.7091 193.296 59.3965 194.092C61.084 194.887 64.1241 196.103 66.1516 196.795C68.4072 197.564 72.0481 198.271 75.5299 198.617C78.66 198.929 84.1898 199.081 87.8179 198.957C92.7388 198.788 94.6436 198.542 95.3145 197.989C95.8095 197.581 98.6628 196.043 101.655 194.571C104.647 193.1 108.214 191.169 109.581 190.28C110.948 189.392 113.562 187.485 115.39 186.043C117.219 184.601 120.053 182.079 121.689 180.439C123.326 178.799 125.495 176.365 126.509 175.03C127.525 173.696 129.61 170.092 131.144 167.021C132.679 163.95 134.453 159.581 135.089 157.312C135.724 155.043 136.534 150.501 136.889 147.219C137.282 143.593 137.412 138.834 137.222 135.084C136.996 130.63 136.487 127.33 135.389 123.209C134.459 119.719 133.121 116.19 131.944 114.121C130.886 112.262 130.155 110.612 130.321 110.456C130.486 110.299 131.393 110.489 132.338 110.877C133.282 111.265 135.467 112.573 137.193 113.784C138.92 114.994 141.389 117.288 142.682 118.882C143.974 120.477 147.129 125.462 149.693 129.96C152.257 134.458 155.126 139.136 156.069 140.356C157.012 141.575 158.888 143.548 160.237 144.741C161.587 145.934 164.809 147.945 167.398 149.21C170.733 150.84 173.361 151.731 176.41 152.268C180.592 153.005 180.774 152.997 182.817 152.008C184.154 151.36 185.035 150.551 185.238 149.783C185.414 149.12 185.424 148.249 185.262 147.848C185.042 147.303 184.132 147.118 181.668 147.118C179.283 147.118 177.119 146.7 173.854 145.606C171.37 144.775 168.127 143.332 166.646 142.399C165.165 141.466 162.856 139.535 161.515 138.107C160.174 136.679 157.965 133.699 156.606 131.485C155.246 129.271 153.12 126.04 151.881 124.304C150.642 122.569 148.421 119.948 146.945 118.479C145.47 117.011 142.912 114.718 141.263 113.383C139.613 112.048 137.949 110.781 137.565 110.567C137.182 110.354 136.868 109.972 136.868 109.718C136.868 109.464 137.24 109.257 137.695 109.257C138.151 109.257 139.919 110.061 141.625 111.045C143.533 112.145 148.972 116.781 155.755 123.088L166.782 133.342L173.174 136.307C176.69 137.937 181.114 139.648 183.007 140.109C185.504 140.717 187.611 140.878 190.696 140.695C193.899 140.505 195.599 140.129 197.594 139.169C199.05 138.469 201.02 137.158 201.97 136.256C202.948 135.327 204.078 133.512 204.574 132.071C205.057 130.671 205.32 129.201 205.16 128.805C204.951 128.288 204.473 128.178 203.468 128.415C202.696 128.596 201.606 129.145 201.043 129.634C200.481 130.122 198.448 131.338 196.525 132.335L193.029 134.147L187.832 133.881C184.838 133.727 181.767 133.278 180.589 132.822C179.464 132.386 175.897 130.792 172.663 129.279C166.805 126.539 166.746 126.494 157.659 117.848C149.627 110.204 148.1 108.973 144.875 107.536C141.645 106.097 140.497 105.859 135.119 105.518C131.766 105.305 128.951 104.912 128.862 104.645C128.774 104.378 130.816 103.286 133.4 102.218C135.984 101.15 139.419 99.4709 141.031 98.4865C142.644 97.5016 145.806 94.9474 148.058 92.8096C151.265 89.7651 152.596 88.0497 154.205 84.8916C155.335 82.6743 156.64 79.4444 157.106 77.7139C157.778 75.2179 157.899 73.1113 157.694 67.5204C157.522 62.8643 157.064 58.9383 156.343 55.9492C155.722 53.3751 154.361 49.7423 153.183 47.5186C152.045 45.3697 150.094 42.5772 148.848 41.3132C147.603 40.0487 146.583 38.8536 146.583 38.6565C146.583 38.4599 147.387 37.4076 148.369 36.3183C149.351 35.2295 150.617 33.1661 151.182 31.7332C151.746 30.3002 152.207 28.6445 152.206 28.0538C152.205 27.4635 151.748 26.2684 151.189 25.3986C150.509 24.3399 149.217 23.4157 147.283 22.6041Z"></path>
</mask>
<path d="M147.283 22.6041C145.695 21.9366 143.275 20.628 141.908 19.6955C140.541 18.7631 139.209 18 138.949 18C138.689 18 137.999 18.5757 137.416 19.2791C136.833 19.9824 136.356 20.8173 136.356 21.1343C136.356 21.4517 135.328 23.7157 134.072 26.166C132.794 28.6596 131.47 30.6206 131.065 30.6206C130.667 30.6206 128.761 30.0444 126.829 29.3396C124.11 28.3479 122.103 28.0062 117.941 27.8261C114.018 27.6557 111.708 27.8014 109.392 28.3644C107.647 28.7887 103.745 30.2604 100.721 31.6351C96.3924 33.602 94.4733 34.8189 91.7048 37.3527C89.7703 39.123 87.6343 41.4661 86.9573 42.5592C86.2808 43.6528 84.8398 46.6168 83.7557 49.1467C82.6716 51.6762 81.3774 55.4779 80.8798 57.5952C80.2815 60.1421 79.9885 63.3357 80.0146 67.0359C80.0504 72.0701 80.2033 72.9661 81.5466 76.016C82.3678 77.8794 83.4008 80.1847 83.8431 81.138L84.6465 82.8724L79.0476 82.6529C74.7905 82.4864 72.6832 82.632 70.2578 83.2602C68.5028 83.7145 65.8616 84.5033 64.3879 85.013C62.9147 85.5227 60.0383 86.7367 57.9959 87.7114C55.9541 88.6856 53.3441 90.0942 52.1966 90.8418C51.0486 91.5893 48.1518 94.0469 45.7586 96.3036C43.3649 98.5602 40.2921 101.797 38.9293 103.497C37.5666 105.196 35.359 108.785 34.0234 111.471C32.6877 114.157 31.4742 116.888 31.3264 117.539C31.1787 118.19 30.5809 120.606 29.9974 122.908C29.0744 126.551 28.9471 128.469 29.0156 137.713C29.0852 147.161 29.2478 149.055 30.4863 154.885C31.6578 160.401 32.5414 162.898 36.0673 170.661C39.9858 179.287 40.4619 180.081 43.4344 182.939C45.1823 184.62 47.7631 186.687 49.1693 187.533C50.5756 188.379 52.7616 189.875 54.0273 190.858C55.2929 191.842 57.7091 193.296 59.3965 194.092C61.084 194.887 64.1241 196.103 66.1516 196.795C68.4072 197.564 72.0481 198.271 75.5299 198.617C78.66 198.929 84.1898 199.081 87.8179 198.957C92.7388 198.788 94.6436 198.542 95.3145 197.989C95.8095 197.581 98.6628 196.043 101.655 194.571C104.647 193.1 108.214 191.169 109.581 190.28C110.948 189.392 113.562 187.485 115.39 186.043C117.219 184.601 120.053 182.079 121.689 180.439C123.326 178.799 125.495 176.365 126.509 175.03C127.525 173.696 129.61 170.092 131.144 167.021C132.679 163.95 134.453 159.581 135.089 157.312C135.724 155.043 136.534 150.501 136.889 147.219C137.282 143.593 137.412 138.834 137.222 135.084C136.996 130.63 136.487 127.33 135.389 123.209C134.459 119.719 133.121 116.19 131.944 114.121C130.886 112.262 130.155 110.612 130.321 110.456C130.486 110.299 131.393 110.489 132.338 110.877C133.282 111.265 135.467 112.573 137.193 113.784C138.92 114.994 141.389 117.288 142.682 118.882C143.974 120.477 147.129 125.462 149.693 129.96C152.257 134.458 155.126 139.136 156.069 140.356C157.012 141.575 158.888 143.548 160.237 144.741C161.587 145.934 164.809 147.945 167.398 149.21C170.733 150.84 173.361 151.731 176.41 152.268C180.592 153.005 180.774 152.997 182.817 152.008C184.154 151.36 185.035 150.551 185.238 149.783C185.414 149.12 185.424 148.249 185.262 147.848C185.042 147.303 184.132 147.118 181.668 147.118C179.283 147.118 177.119 146.7 173.854 145.606C171.37 144.775 168.127 143.332 166.646 142.399C165.165 141.466 162.856 139.535 161.515 138.107C160.174 136.679 157.965 133.699 156.606 131.485C155.246 129.271 153.12 126.04 151.881 124.304C150.642 122.569 148.421 119.948 146.945 118.479C145.47 117.011 142.912 114.718 141.263 113.383C139.613 112.048 137.949 110.781 137.565 110.567C137.182 110.354 136.868 109.972 136.868 109.718C136.868 109.464 137.24 109.257 137.695 109.257C138.151 109.257 139.919 110.061 141.625 111.045C143.533 112.145 148.972 116.781 155.755 123.088L166.782 133.342L173.174 136.307C176.69 137.937 181.114 139.648 183.007 140.109C185.504 140.717 187.611 140.878 190.696 140.695C193.899 140.505 195.599 140.129 197.594 139.169C199.05 138.469 201.02 137.158 201.97 136.256C202.948 135.327 204.078 133.512 204.574 132.071C205.057 130.671 205.32 129.201 205.16 128.805C204.951 128.288 204.473 128.178 203.468 128.415C202.696 128.596 201.606 129.145 201.043 129.634C200.481 130.122 198.448 131.338 196.525 132.335L193.029 134.147L187.832 133.881C184.838 133.727 181.767 133.278 180.589 132.822C179.464 132.386 175.897 130.792 172.663 129.279C166.805 126.539 166.746 126.494 157.659 117.848C149.627 110.204 148.1 108.973 144.875 107.536C141.645 106.097 140.497 105.859 135.119 105.518C131.766 105.305 128.951 104.912 128.862 104.645C128.774 104.378 130.816 103.286 133.4 102.218C135.984 101.15 139.419 99.4709 141.031 98.4865C142.644 97.5016 145.806 94.9474 148.058 92.8096C151.265 89.7651 152.596 88.0497 154.205 84.8916C155.335 82.6743 156.64 79.4444 157.106 77.7139C157.778 75.2179 157.899 73.1113 157.694 67.5204C157.522 62.8643 157.064 58.9383 156.343 55.9492C155.722 53.3751 154.361 49.7423 153.183 47.5186C152.045 45.3697 150.094 42.5772 148.848 41.3132C147.603 40.0487 146.583 38.8536 146.583 38.6565C146.583 38.4599 147.387 37.4076 148.369 36.3183C149.351 35.2295 150.617 33.1661 151.182 31.7332C151.746 30.3002 152.207 28.6445 152.206 28.0538C152.205 27.4635 151.748 26.2684 151.189 25.3986C150.509 24.3399 149.217 23.4157 147.283 22.6041Z" fill="#F1EA47"></path>
<path d="M112.834 32.4452L112.94 32.8309L112.94 32.8309L112.834 32.4452ZM109.851 33.6194L109.969 34.0017L110.146 33.947L110.219 33.7767L109.851 33.6194ZM118.916 31.8045L118.641 31.5138L117.982 32.137L118.886 32.2035L118.916 31.8045ZM117.393 31.6307L117.402 32.0307L117.403 32.0307L117.393 31.6307ZM102.216 35.9795L102.098 35.5973L102.071 35.6057L102.045 35.618L102.216 35.9795ZM95.9005 40.5185L96.1755 40.8091L96.1756 40.809L95.9005 40.5185ZM90.7726 47.1881L90.4177 47.0033L90.4176 47.0034L90.7726 47.1881ZM85.8436 61.7231L85.4503 61.6497L85.4503 61.6497L85.8436 61.7231ZM85.6855 69.5469L85.2918 69.618L85.2918 69.618L85.6855 69.5469ZM87.6262 76.4917L87.2525 76.6347L87.2525 76.6347L87.6262 76.4917ZM90.2178 82.0409L90.5608 81.835L90.5608 81.8349L90.2178 82.0409ZM93.1376 85.6814L93.4076 85.3862L93.4075 85.3861L93.1376 85.6814ZM97.7915 89.6205L97.5397 89.9314L97.5398 89.9315L97.7915 89.6205ZM119.481 99.401L119.509 99.0018L119.509 99.0018L119.481 99.401ZM125.873 98.5331L125.971 98.9211L125.971 98.9211L125.873 98.5331ZM131.63 96.7157L131.459 96.3542L131.459 96.3543L131.63 96.7157ZM146.967 86.3129L147.271 86.5726L147.271 86.5726L146.967 86.3129ZM152.785 72.821L153.181 72.8772L153.181 72.8771L152.785 72.821ZM152.74 63.4444L153.138 63.3995L153.138 63.3995L152.74 63.4444ZM151.408 55.0022L151.018 55.0946L151.018 55.0948L151.408 55.0022ZM149.604 49.9481L149.956 49.7588L149.956 49.7586L149.604 49.9481ZM145.473 44.1416L145.161 44.3922L145.161 44.3923L145.473 44.1416ZM141.859 40.0147L141.603 40.3223L141.628 40.3433L141.657 40.3599L141.859 40.0147ZM116.745 106.172L116.789 105.775L116.789 105.775L116.745 106.172ZM110.989 104.611L111.143 104.242L111.143 104.242L110.989 104.611ZM104.094 101.487L104.267 101.126L104.267 101.126L104.094 101.487ZM96.0422 96.6371L96.2749 96.3117L96.2749 96.3117L96.0422 96.6371ZM129.628 155.012L129.24 154.915L129.24 154.915L129.628 155.012ZM131.144 145.42L130.745 145.385L130.745 145.386L131.144 145.42ZM131.461 135.954L131.062 135.968L131.062 135.968L131.461 135.954ZM131.001 128.259L131.4 128.224L131.4 128.223L131.001 128.259ZM128.917 120.007L129.291 119.867L129.291 119.867L128.917 120.007ZM124.797 112.048L125.122 111.814L125.122 111.814L124.797 112.048ZM133.039 34.4197L132.88 34.7868L132.88 34.7868L133.039 34.4197ZM88.675 194.092L88.6472 194.491L88.7366 194.497L88.8201 194.465L88.675 194.092ZM101.655 189.038L101.8 189.411L101.845 189.394L101.884 189.367L101.655 189.038ZM116.745 178.536L116.974 178.864L117.032 178.824L117.073 178.765L116.745 178.536ZM112.727 32.0595C111.943 32.2758 111.207 32.5189 110.651 32.738C110.374 32.847 110.133 32.9534 109.951 33.0506C109.86 33.0988 109.775 33.1497 109.704 33.2027C109.649 33.2434 109.54 33.3294 109.483 33.4622L110.219 33.7767C110.185 33.8547 110.139 33.8764 110.181 33.8446C110.208 33.8251 110.254 33.7954 110.327 33.7567C110.471 33.6799 110.68 33.5863 110.944 33.4825C111.469 33.2759 112.177 33.0413 112.94 32.8309L112.727 32.0595ZM119.191 32.0953C119.232 32.0565 119.295 31.9824 119.32 31.8693C119.348 31.742 119.314 31.6259 119.259 31.5424C119.211 31.4694 119.151 31.4263 119.115 31.4038C119.076 31.3793 119.038 31.3625 119.007 31.3509C118.895 31.3085 118.749 31.2843 118.607 31.2681C118.306 31.2336 117.874 31.2196 117.384 31.2307L117.403 32.0307C117.873 32.02 118.265 32.0344 118.516 32.0631C118.578 32.0701 118.627 32.0777 118.665 32.0851C118.684 32.0887 118.699 32.0921 118.709 32.0948C118.72 32.0977 118.724 32.0993 118.723 32.099C118.723 32.0987 118.72 32.0976 118.715 32.0953C118.71 32.093 118.702 32.0889 118.692 32.0825C118.676 32.0726 118.631 32.0425 118.591 31.9828C118.545 31.9125 118.514 31.8101 118.539 31.6968C118.561 31.5976 118.615 31.5379 118.641 31.5138L119.191 32.0953ZM117.385 31.2307C116.376 31.2531 114.288 31.6291 112.727 32.0595L112.94 32.8309C114.473 32.408 116.489 32.051 117.402 32.0307L117.385 31.2307ZM102.045 35.618C100.256 36.4661 97.5093 38.4436 95.6253 40.2281L96.1756 40.809C98.0174 39.0645 100.695 37.1433 102.388 36.341L102.045 35.618ZM95.6254 40.228C93.4112 42.3244 91.6866 44.5661 90.4177 47.0033L91.1274 47.3728C92.3509 45.0229 94.0186 42.8513 96.1755 40.8091L95.6254 40.228ZM90.4176 47.0034C89.9004 47.9973 89.3911 49.0927 88.9862 50.0587C88.5856 51.0146 88.2744 51.8739 88.1696 52.3833L88.9533 52.5446C89.0408 52.1196 89.3232 51.3247 89.7242 50.368C90.1209 49.4215 90.6209 48.3462 91.1275 47.3727L90.4176 47.0034ZM88.1696 52.3833C87.9841 53.2845 87.4845 54.757 87.0663 55.632L87.7882 55.9771C88.2331 55.0464 88.7542 53.5123 88.9533 52.5446L88.1696 52.3833ZM87.0663 55.632C86.8327 56.1206 86.5386 57.0451 86.2518 58.1169C85.9622 59.1991 85.6719 60.4631 85.4503 61.6497L86.2369 61.7966C86.4545 60.6309 86.7403 59.387 87.0248 58.3237C87.3121 57.25 87.5902 56.3913 87.7882 55.9771L87.0663 55.632ZM85.4503 61.6497C85.1122 63.4606 84.9319 64.694 84.9084 65.8581C84.8847 67.0265 85.0193 68.1089 85.2918 69.618L86.0793 69.4758C85.8103 67.9861 85.6863 66.9643 85.7084 65.8743C85.7305 64.78 85.9 63.601 86.2369 61.7966L85.4503 61.6497ZM85.2918 69.618C85.6486 71.5936 86.5283 74.7427 87.2525 76.6347L87.9998 76.3486C87.2933 74.5029 86.4271 71.402 86.0793 69.4758L85.2918 69.618ZM87.2525 76.6347C87.9729 78.5164 89.1484 81.037 89.8747 82.2468L90.5608 81.8349C89.8666 80.6788 88.7103 78.2045 87.9998 76.3486L87.2525 76.6347ZM89.8747 82.2467C90.6022 83.4588 91.9395 85.1284 92.8677 85.9767L93.4075 85.3861C92.5438 84.5967 91.2539 82.9897 90.5608 81.835L89.8747 82.2467ZM92.8676 85.9766C93.7722 86.804 95.8735 88.5821 97.5397 89.9314L98.0433 89.3096C96.3816 87.9639 94.2948 86.1975 93.4076 85.3862L92.8676 85.9766ZM97.5398 89.9315C99.2097 91.2833 101.453 92.9003 102.534 93.5254L102.935 92.8326C101.907 92.2384 99.7012 90.6517 98.0432 89.3095L97.5398 89.9315ZM115.929 99.0475C116.274 99.2248 116.844 99.3889 117.46 99.5185C118.087 99.6505 118.801 99.755 119.454 99.8001L119.509 99.0018C118.896 98.9595 118.219 98.8607 117.625 98.7355C117.019 98.608 116.538 98.4611 116.296 98.3361L115.929 99.0475ZM119.454 99.8001C120.129 99.847 121.199 99.7663 122.362 99.6083C123.533 99.4492 124.83 99.2076 125.971 98.9211L125.776 98.145C124.667 98.4235 123.4 98.6598 122.254 98.8154C121.101 98.9721 120.099 99.0428 119.509 99.0018L119.454 99.8001ZM125.971 98.9211C128.222 98.3557 130.847 97.5305 131.802 97.0771L131.459 96.3543C130.581 96.7707 128.025 97.5803 125.776 98.145L125.971 98.9211ZM131.802 97.0772C132.757 96.6241 134.373 95.54 135.415 94.6604L134.898 94.049C133.894 94.8974 132.336 95.9384 131.459 96.3542L131.802 97.0772ZM137.659 94.6091C137.763 94.6091 137.857 94.5746 137.907 94.5546C137.97 94.5295 138.038 94.4964 138.106 94.4597C138.244 94.3859 138.41 94.2837 138.592 94.1631C138.957 93.9212 139.407 93.5908 139.857 93.2293L139.356 92.6055C138.921 92.9546 138.491 93.27 138.15 93.4963C137.978 93.6098 137.835 93.6972 137.728 93.7546C137.674 93.7835 137.636 93.8013 137.612 93.8108C137.575 93.8254 137.601 93.809 137.659 93.809V94.6091ZM143.714 90.0779C144.748 89.233 146.343 87.6612 147.271 86.5726L146.663 86.0532C145.763 87.1082 144.202 88.6459 143.208 89.4582L143.714 90.0779ZM147.271 86.5726C147.737 86.0262 148.161 85.4655 148.47 84.9992C148.624 84.7667 148.753 84.5512 148.845 84.3687C148.891 84.2777 148.931 84.1883 148.96 84.1046C148.986 84.029 149.016 83.9239 149.012 83.8132L148.213 83.8381C148.211 83.8015 148.22 83.7961 148.204 83.8426C148.191 83.881 148.167 83.9359 148.131 84.0083C148.058 84.1524 147.947 84.3393 147.802 84.5577C147.514 84.993 147.111 85.5278 146.663 86.0532L147.271 86.5726ZM150.419 81.8057C150.728 81.3277 151.009 80.8356 151.215 80.4251C151.317 80.2203 151.404 80.0304 151.465 79.8694C151.519 79.7283 151.578 79.5514 151.576 79.3995L150.776 79.4087C150.776 79.3903 150.774 79.4363 150.718 79.5838C150.669 79.7115 150.595 79.8758 150.499 80.0669C150.308 80.4482 150.042 80.9148 149.747 81.3711L150.419 81.8057ZM152.06 77.8258C152.16 77.6627 152.254 77.3955 152.342 77.0986C152.434 76.787 152.532 76.3972 152.63 75.9573C152.826 75.077 153.025 73.9803 153.181 72.8772L152.389 72.7648C152.235 73.8495 152.039 74.9257 151.849 75.7837C151.753 76.2131 151.66 76.5837 151.575 76.8716C151.485 77.1742 151.416 77.3453 151.378 77.4069L152.06 77.8258ZM153.181 72.8771C153.608 69.867 153.594 67.4491 153.138 63.3995L152.343 63.4892C152.794 67.4935 152.803 69.8404 152.389 72.7649L153.181 72.8771ZM153.138 63.3995C152.802 60.4246 152.201 56.6069 151.797 54.9096L151.018 55.0948C151.411 56.7458 152.008 60.5266 152.343 63.4892L153.138 63.3995ZM151.797 54.9097C151.394 53.2127 150.571 50.9034 149.956 49.7588L149.252 50.1374C149.824 51.2033 150.626 53.4423 151.018 55.0946L151.797 54.9097ZM149.956 49.7586C149.344 48.6189 147.465 45.9819 145.785 43.891L145.161 44.3923C146.837 46.4777 148.676 49.0667 149.252 50.1375L149.956 49.7586ZM145.785 43.891C144.943 42.8434 144.113 41.8526 143.454 41.0996C143.125 40.7234 142.835 40.4041 142.607 40.1659C142.494 40.047 142.392 39.9454 142.307 39.866C142.231 39.7945 142.142 39.7171 142.061 39.6695L141.657 40.3599C141.653 40.3577 141.683 40.3781 141.761 40.451C141.831 40.5161 141.921 40.6057 142.029 40.7191C142.246 40.9454 142.526 41.2549 142.852 41.6267C143.503 42.3697 144.325 43.3516 145.161 44.3922L145.785 43.891ZM120.808 107.047C120.451 106.753 119.811 106.481 119.114 106.265C118.401 106.043 117.571 105.862 116.789 105.775L116.701 106.57C117.428 106.651 118.209 106.821 118.877 107.029C119.561 107.241 120.071 107.477 120.3 107.665L120.808 107.047ZM116.789 105.775C115.325 105.612 112.771 104.92 111.143 104.242L110.835 104.98C112.521 105.683 115.148 106.397 116.701 106.57L116.789 105.775ZM111.143 104.242C109.494 103.554 106.397 102.152 104.267 101.126L103.92 101.847C106.06 102.877 109.17 104.286 110.835 104.98L111.143 104.242ZM104.267 101.126C102.156 100.111 98.5525 97.9409 96.2749 96.3117L95.8094 96.9625C98.1176 98.6136 101.76 100.809 103.92 101.847L104.267 101.126ZM96.2749 96.3117C94.0045 94.6877 90.711 91.762 88.9727 89.8255L88.3772 90.3601C90.1571 92.3428 93.4949 95.307 95.8094 96.9625L96.2749 96.3117ZM128.338 159.864C128.417 159.818 128.471 159.756 128.5 159.718C128.534 159.675 128.565 159.627 128.591 159.581C128.645 159.488 128.7 159.372 128.755 159.242C128.867 158.981 128.996 158.629 129.133 158.216C129.407 157.388 129.723 156.286 130.016 155.109L129.24 154.915C128.95 156.078 128.64 157.159 128.373 157.965C128.239 158.368 128.119 158.696 128.02 158.927C127.97 159.044 127.929 159.127 127.898 159.181C127.882 159.208 127.873 159.221 127.871 159.224C127.864 159.232 127.885 159.202 127.934 159.174L128.338 159.864ZM130.016 155.109C130.606 152.745 131.291 148.407 131.543 145.454L130.745 145.386C130.496 148.306 129.817 152.601 129.24 154.915L130.016 155.109ZM131.543 145.454C131.795 142.505 131.938 138.23 131.861 135.941L131.062 135.968C131.137 138.217 130.995 142.46 130.745 145.385L131.543 145.454ZM131.861 135.941C131.785 133.665 131.577 130.195 131.4 128.224L130.603 128.295C130.779 130.25 130.986 133.705 131.062 135.968L131.861 135.941ZM131.4 128.223C131.201 126.021 130.364 122.717 129.291 119.867L128.542 120.148C129.599 122.955 130.412 126.187 130.603 128.295L131.4 128.223ZM129.291 119.867C128.287 117.197 126.478 113.699 125.122 111.814L124.473 112.281C125.779 114.097 127.557 117.529 128.543 120.148L129.291 119.867ZM125.122 111.814C124.469 110.907 123.826 110.079 123.313 109.475C123.057 109.174 122.829 108.922 122.645 108.743C122.554 108.655 122.466 108.576 122.386 108.517C122.346 108.487 122.3 108.456 122.249 108.431C122.207 108.409 122.122 108.371 122.014 108.371V109.171C121.971 109.171 121.939 109.163 121.922 109.158C121.904 109.153 121.893 109.147 121.89 109.146C121.885 109.143 121.891 109.145 121.91 109.16C121.948 109.188 122.007 109.239 122.086 109.316C122.244 109.47 122.454 109.7 122.703 109.993C123.199 110.577 123.829 111.387 124.473 112.281L125.122 111.814ZM102.334 36.3618L109.969 34.0017L109.733 33.2372L102.098 35.5973L102.334 36.3618ZM118.916 31.8045C118.886 32.2035 118.886 32.2035 118.886 32.2035C118.887 32.2035 118.887 32.2035 118.887 32.2035C118.887 32.2036 118.887 32.2036 118.888 32.2036C118.889 32.2037 118.891 32.2038 118.893 32.204C118.898 32.2044 118.904 32.2049 118.913 32.2056C118.932 32.2069 118.959 32.209 118.995 32.2119C119.067 32.2175 119.173 32.2261 119.309 32.2377C119.583 32.2608 119.979 32.2961 120.468 32.3443C121.446 32.4408 122.795 32.5891 124.281 32.7964C127.267 33.2132 130.747 33.8617 132.88 34.7868L133.198 34.0527C130.954 33.0791 127.373 32.42 124.391 32.0039C122.893 31.7947 121.532 31.6452 120.546 31.548C120.053 31.4994 119.654 31.4638 119.377 31.4403C119.239 31.4286 119.131 31.4199 119.058 31.4142C119.021 31.4113 118.993 31.4091 118.974 31.4077C118.965 31.407 118.958 31.4064 118.953 31.4061C118.95 31.4059 118.948 31.4057 118.947 31.4056C118.946 31.4056 118.946 31.4056 118.946 31.4055C118.945 31.4055 118.945 31.4055 118.945 31.4055C118.945 31.4055 118.945 31.4055 118.916 31.8045ZM132.88 34.7868C135.033 35.7205 137.212 37.1018 138.861 38.2569C139.684 38.8332 140.37 39.3506 140.851 39.7236C141.091 39.9101 141.28 40.0603 141.408 40.1637C141.473 40.2154 141.522 40.2553 141.554 40.2822C141.571 40.2957 141.583 40.3058 141.591 40.3126C141.595 40.3159 141.598 40.3184 141.6 40.3201C141.601 40.3209 141.602 40.3215 141.603 40.3218C141.603 40.322 141.603 40.3222 141.603 40.3222C141.603 40.3223 141.603 40.3223 141.603 40.3223C141.603 40.3223 141.603 40.3223 141.859 40.0147C142.115 39.7072 142.115 39.7071 142.115 39.7071C142.115 39.707 142.115 39.707 142.115 39.7069C142.114 39.7067 142.114 39.7065 142.114 39.7063C142.113 39.7057 142.112 39.705 142.111 39.704C142.109 39.7021 142.105 39.6992 142.101 39.6956C142.092 39.6882 142.079 39.6774 142.062 39.6633C142.027 39.6351 141.976 39.5938 141.911 39.5407C141.779 39.4345 141.586 39.2811 141.342 39.0914C140.853 38.712 140.155 38.1866 139.32 37.6015C137.653 36.4337 135.423 35.0175 133.198 34.0527L132.88 34.7868ZM73.4823 193.438L88.6472 194.491L88.7027 193.693L73.5377 192.64L73.4823 193.438ZM88.8201 194.465L101.8 189.411L101.51 188.666L88.5298 193.719L88.8201 194.465ZM101.884 189.367L116.974 178.864L116.517 178.208L101.427 188.71L101.884 189.367ZM117.073 178.765L125.125 167.25L124.47 166.792L116.417 178.307L117.073 178.765ZM141.908 19.6955L142.359 19.0345L142.359 19.0344L141.908 19.6955ZM147.283 22.6041L146.974 23.3418L146.974 23.3419L147.283 22.6041ZM151.189 25.3986L150.515 25.8311L150.516 25.8311L151.189 25.3986ZM152.206 28.0538L153.006 28.0524L153.006 28.0524L152.206 28.0538ZM151.182 31.7332L150.437 31.4398L150.437 31.4398L151.182 31.7332ZM148.369 36.3183L147.775 35.7823L147.775 35.7824L148.369 36.3183ZM148.848 41.3132L148.278 41.8747L148.278 41.8748L148.848 41.3132ZM153.183 47.5186L152.475 47.8931L152.475 47.8933L153.183 47.5186ZM156.343 55.9492L155.565 56.1368L155.565 56.1368L156.343 55.9492ZM157.694 67.5204L158.493 67.491L158.493 67.4909L157.694 67.5204ZM157.106 77.7139L157.879 77.9221L157.879 77.9219L157.106 77.7139ZM154.205 84.8916L153.492 84.5284L153.492 84.5284L154.205 84.8916ZM148.058 92.8096L148.609 93.39L148.609 93.39L148.058 92.8096ZM141.031 98.4865L141.448 99.1694L141.448 99.1694L141.031 98.4865ZM133.4 102.218L133.094 101.479L133.094 101.479L133.4 102.218ZM128.862 104.645L129.622 104.394L129.622 104.394L128.862 104.645ZM135.119 105.518L135.068 106.317L135.068 106.317L135.119 105.518ZM144.875 107.536L144.55 108.267L144.55 108.267L144.875 107.536ZM157.659 117.848L157.108 118.428L157.108 118.428L157.659 117.848ZM172.663 129.279L173.002 128.554L173.002 128.554L172.663 129.279ZM180.589 132.822L180.878 132.076L180.878 132.076L180.589 132.822ZM187.832 133.881L187.791 134.68L187.791 134.68L187.832 133.881ZM193.029 134.147L192.988 134.947L193.204 134.958L193.397 134.858L193.029 134.147ZM196.525 132.335L196.157 131.624L196.157 131.624L196.525 132.335ZM201.043 129.634L200.518 129.03L200.518 129.03L201.043 129.634ZM203.468 128.415L203.651 129.194L203.651 129.194L203.468 128.415ZM205.16 128.805L205.902 128.505L205.902 128.505L205.16 128.805ZM204.574 132.071L203.818 131.81L203.818 131.81L204.574 132.071ZM201.97 136.256L202.521 136.836L202.521 136.836L201.97 136.256ZM197.594 139.169L197.247 138.448L197.247 138.448L197.594 139.169ZM190.696 140.695L190.649 139.896L190.649 139.896L190.696 140.695ZM183.007 140.109L182.817 140.886L182.817 140.886L183.007 140.109ZM173.174 136.307L172.837 137.032L172.838 137.032L173.174 136.307ZM166.782 133.342L166.237 133.928L166.33 134.015L166.445 134.068L166.782 133.342ZM155.755 123.088L156.3 122.502L156.3 122.502L155.755 123.088ZM141.625 111.045L141.225 111.739L141.226 111.739L141.625 111.045ZM137.565 110.567L137.176 111.266L137.176 111.267L137.565 110.567ZM146.945 118.479L146.381 119.047L146.381 119.047L146.945 118.479ZM151.881 124.304L152.532 123.839L152.532 123.839L151.881 124.304ZM161.515 138.107L162.098 137.559L162.098 137.559L161.515 138.107ZM166.646 142.399L167.073 141.722L167.072 141.722L166.646 142.399ZM173.854 145.606L174.108 144.848L174.108 144.848L173.854 145.606ZM185.262 147.848L184.52 148.147L184.52 148.148L185.262 147.848ZM185.238 149.783L186.012 149.988L186.012 149.988L185.238 149.783ZM182.817 152.008L182.468 151.288L182.468 151.288L182.817 152.008ZM176.41 152.268L176.549 151.48L176.549 151.48L176.41 152.268ZM167.398 149.21L167.75 148.491L167.75 148.491L167.398 149.21ZM160.237 144.741L159.707 145.341L159.707 145.341L160.237 144.741ZM156.069 140.356L155.436 140.845L155.436 140.845L156.069 140.356ZM142.682 118.882L143.303 118.379L143.303 118.378L142.682 118.882ZM137.193 113.784L136.734 114.439L136.734 114.439L137.193 113.784ZM132.338 110.877L132.642 110.137L132.642 110.137L132.338 110.877ZM130.321 110.456L130.872 111.036L130.872 111.036L130.321 110.456ZM131.944 114.121L132.64 113.726L132.64 113.726L131.944 114.121ZM135.389 123.209L136.162 123.003L136.162 123.003L135.389 123.209ZM137.222 135.084L138.021 135.044L138.021 135.044L137.222 135.084ZM136.889 147.219L136.094 147.133L136.094 147.133L136.889 147.219ZM135.089 157.312L134.318 157.096L134.318 157.096L135.089 157.312ZM131.144 167.021L131.86 167.379L131.86 167.379L131.144 167.021ZM126.509 175.03L125.873 174.546L125.873 174.546L126.509 175.03ZM115.39 186.043L114.895 185.415L114.895 185.415L115.39 186.043ZM109.581 190.28L109.145 189.61L109.145 189.61L109.581 190.28ZM101.655 194.571L102.008 195.29L102.008 195.29L101.655 194.571ZM95.3145 197.989L94.8053 197.371L94.8053 197.371L95.3145 197.989ZM87.8179 198.957L87.7906 198.157L87.7905 198.157L87.8179 198.957ZM75.5299 198.617L75.6091 197.821L75.6091 197.821L75.5299 198.617ZM66.1516 196.795L65.8934 197.552L65.8934 197.552L66.1516 196.795ZM59.3965 194.092L59.0553 194.816L59.0553 194.816L59.3965 194.092ZM54.0273 190.858L54.5182 190.226L54.5181 190.226L54.0273 190.858ZM49.1693 187.533L49.5819 186.847L49.5817 186.847L49.1693 187.533ZM43.4344 182.939L42.8798 183.516L42.8798 183.516L43.4344 182.939ZM36.0673 170.661L35.3387 170.992L35.3387 170.992L36.0673 170.661ZM30.4863 154.885L31.269 154.719L31.269 154.719L30.4863 154.885ZM29.0156 137.713L29.8158 137.707L29.8158 137.707L29.0156 137.713ZM29.9974 122.908L29.2218 122.711L29.2218 122.711L29.9974 122.908ZM34.0234 111.471L33.3069 111.115L33.3069 111.115L34.0234 111.471ZM38.9293 103.497L39.5536 103.997L39.5537 103.997L38.9293 103.497ZM45.7586 96.3036L46.3075 96.8858L46.3076 96.8858L45.7586 96.3036ZM52.1966 90.8418L52.6332 91.5123L52.6334 91.5122L52.1966 90.8418ZM57.9959 87.7114L58.3405 88.4336L58.3406 88.4335L57.9959 87.7114ZM64.3879 85.013L64.1264 84.2568L64.1263 84.2568L64.3879 85.013ZM70.2578 83.2602L70.4584 84.0348L70.4584 84.0348L70.2578 83.2602ZM79.0476 82.6529L79.0789 81.8534L79.0789 81.8534L79.0476 82.6529ZM84.6465 82.8724L84.6151 83.6719L85.9224 83.7232L85.3725 82.536L84.6465 82.8724ZM83.8431 81.138L84.5692 80.8017L84.569 80.8012L83.8431 81.138ZM81.5466 76.016L80.8143 76.3385L80.8144 76.3387L81.5466 76.016ZM80.0146 67.0359L79.2144 67.0416L79.2144 67.0416L80.0146 67.0359ZM80.8798 57.5952L80.1008 57.4122L80.1008 57.4122L80.8798 57.5952ZM83.7557 49.1467L84.4912 49.4619L84.4912 49.4619L83.7557 49.1467ZM86.9573 42.5592L86.277 42.1379L86.2768 42.1382L86.9573 42.5592ZM91.7048 37.3527L92.245 37.943L92.245 37.943L91.7048 37.3527ZM100.721 31.6351L101.052 32.3636L101.052 32.3636L100.721 31.6351ZM109.392 28.3644L109.581 29.142L109.581 29.1419L109.392 28.3644ZM117.941 27.8261L117.906 28.6255L117.907 28.6255L117.941 27.8261ZM126.829 29.3396L127.103 28.5879L127.103 28.5879L126.829 29.3396ZM134.072 26.166L133.36 25.8009L133.36 25.801L134.072 26.166ZM137.416 19.2791L138.032 19.7897L138.033 19.7894L137.416 19.2791ZM141.457 20.3566C142.871 21.3206 145.338 22.6545 146.974 23.3418L147.593 21.8664C146.052 21.2188 143.68 19.9354 142.359 19.0345L141.457 20.3566ZM146.974 23.3419C148.848 24.1285 149.964 24.9723 150.515 25.8311L151.862 24.9661C151.053 23.7075 149.586 22.7029 147.593 21.8663L146.974 23.3419ZM150.516 25.8311C150.762 26.2149 150.992 26.6813 151.159 27.1173C151.336 27.5776 151.406 27.9115 151.406 28.0551L153.006 28.0524C153.006 27.6058 152.846 27.047 152.654 26.5447C152.452 26.0182 152.174 25.4521 151.862 24.966L150.516 25.8311ZM151.406 28.0551C151.406 28.226 151.323 28.6882 151.135 29.363C150.957 30.0034 150.709 30.7493 150.437 31.4398L151.926 32.0265C152.219 31.2841 152.484 30.4857 152.677 29.7923C152.86 29.1333 153.007 28.4722 153.006 28.0524L151.406 28.0551ZM150.437 31.4398C149.906 32.7881 148.69 34.7683 147.775 35.7823L148.963 36.8543C150.013 35.6908 151.328 33.5441 151.926 32.0265L150.437 31.4398ZM147.775 35.7824C147.272 36.3398 146.811 36.8921 146.472 37.3365C146.303 37.5573 146.157 37.7622 146.048 37.9336C145.995 38.0182 145.941 38.1088 145.899 38.1978C145.875 38.2475 145.783 38.4322 145.783 38.6565H147.384C147.384 38.8317 147.317 38.9405 147.341 38.8908C147.346 38.8803 147.363 38.848 147.401 38.7892C147.473 38.674 147.589 38.5109 147.744 38.3078C148.052 37.9046 148.484 37.3861 148.963 36.8542L147.775 35.7824ZM145.783 38.6565C145.783 38.8175 145.829 38.9439 145.85 38.9961C145.876 39.0626 145.906 39.1214 145.932 39.1669C145.983 39.2586 146.048 39.3541 146.113 39.4449C146.246 39.6297 146.428 39.8557 146.64 40.1037C147.065 40.6029 147.645 41.2321 148.278 41.8747L149.418 40.7516C148.806 40.1298 148.253 39.5292 147.858 39.0654C147.659 38.832 147.508 38.6432 147.411 38.509C147.362 38.4403 147.337 38.4002 147.328 38.3839C147.323 38.3754 147.33 38.387 147.341 38.4138C147.345 38.4262 147.384 38.5202 147.384 38.6565H145.783ZM148.278 41.8748C149.453 43.0673 151.362 45.7895 152.475 47.8931L153.89 47.1442C152.728 44.95 150.734 42.0871 149.418 40.7515L148.278 41.8748ZM152.475 47.8933C153.621 50.0547 154.959 53.6243 155.565 56.1368L157.121 55.7616C156.485 53.1259 155.101 49.4298 153.89 47.144L152.475 47.8933ZM155.565 56.1368C156.269 59.0549 156.724 62.9228 156.894 67.5498L158.493 67.4909C158.321 62.8058 157.859 58.8218 157.121 55.7616L155.565 56.1368ZM156.894 67.5498C157.099 73.1315 156.972 75.1345 156.334 77.5059L157.879 77.9219C158.584 75.3014 158.699 73.091 158.493 67.491L156.894 67.5498ZM156.334 77.5057C155.886 79.1665 154.605 82.3431 153.492 84.5284L154.918 85.2549C156.064 83.0055 157.394 79.7223 157.879 77.9221L156.334 77.5057ZM153.492 84.5284C151.934 87.5882 150.664 89.2326 147.507 92.2293L148.609 93.39C151.866 90.2977 153.259 88.5112 154.918 85.2548L153.492 84.5284ZM147.507 92.2293C145.273 94.3495 142.158 96.8607 140.614 97.8036L141.448 99.1694C143.13 98.1425 146.338 95.5452 148.609 93.39L147.507 92.2293ZM140.614 97.8035C139.05 98.7586 135.657 100.42 133.094 101.479L133.706 102.958C136.312 101.881 139.788 100.183 141.448 99.1694L140.614 97.8035ZM133.094 101.479C131.785 102.02 130.604 102.571 129.751 103.027C129.329 103.252 128.966 103.466 128.706 103.652C128.58 103.742 128.444 103.849 128.334 103.969C128.281 104.028 128.204 104.122 128.145 104.247C128.089 104.368 128.008 104.611 128.103 104.897L129.622 104.394C129.705 104.646 129.63 104.849 129.595 104.925C129.558 105.004 129.518 105.046 129.517 105.047C129.513 105.052 129.542 105.022 129.635 104.955C129.813 104.828 130.106 104.652 130.506 104.438C131.299 104.014 132.43 103.485 133.706 102.958L133.094 101.479ZM128.103 104.897C128.195 105.175 128.4 105.318 128.465 105.362C128.557 105.423 128.651 105.466 128.722 105.494C128.869 105.552 129.043 105.601 129.222 105.643C129.586 105.729 130.079 105.814 130.656 105.894C131.815 106.056 133.377 106.209 135.068 106.317L135.169 104.719C133.508 104.614 131.986 104.464 130.877 104.309C130.319 104.232 129.883 104.155 129.59 104.086C129.439 104.05 129.353 104.023 129.315 104.007C129.295 103.999 129.316 104.005 129.355 104.032C129.368 104.04 129.541 104.149 129.622 104.394L128.103 104.897ZM135.068 106.317C137.762 106.488 139.34 106.63 140.64 106.899C141.92 107.164 142.953 107.556 144.55 108.267L145.201 106.805C143.568 106.078 142.412 105.631 140.965 105.332C139.538 105.037 137.853 104.89 135.169 104.719L135.068 106.317ZM144.55 108.267C147.626 109.637 149.053 110.763 157.108 118.428L158.211 117.268C150.2 109.645 148.574 108.308 145.201 106.805L144.55 108.267ZM157.108 118.428C161.634 122.734 163.96 124.947 165.887 126.415C167.848 127.908 169.402 128.637 172.324 130.004L173.002 128.554C170.066 127.181 168.662 126.517 166.857 125.142C165.018 123.741 162.772 121.608 158.211 117.268L157.108 118.428ZM172.324 130.004C175.554 131.515 179.145 133.121 180.3 133.568L180.878 132.076C179.782 131.652 176.24 130.069 173.002 128.554L172.324 130.004ZM180.3 133.568C180.98 133.831 182.12 134.067 183.414 134.257C184.729 134.449 186.27 134.602 187.791 134.68L187.873 133.082C186.4 133.006 184.909 132.858 183.645 132.673C182.36 132.485 181.376 132.269 180.878 132.076L180.3 133.568ZM187.791 134.68L192.988 134.947L193.07 133.348L187.873 133.082L187.791 134.68ZM193.397 134.858L196.893 133.045L196.157 131.624L192.66 133.437L193.397 134.858ZM196.893 133.045C197.869 132.54 198.872 131.979 199.705 131.481C200.515 130.996 201.225 130.536 201.568 130.238L200.518 129.03C200.299 129.22 199.711 129.612 198.883 130.107C198.079 130.588 197.104 131.134 196.157 131.624L196.893 133.045ZM201.568 130.238C202.027 129.839 202.998 129.347 203.651 129.194L203.284 127.636C202.395 127.845 201.185 128.45 200.518 129.03L201.568 130.238ZM203.651 129.194C204.129 129.081 204.349 129.088 204.433 129.107C204.458 129.113 204.443 129.113 204.42 129.093C204.398 129.074 204.403 129.066 204.418 129.105L205.902 128.505C205.707 128.023 205.337 127.673 204.792 127.547C204.334 127.442 203.812 127.512 203.284 127.636L203.651 129.194ZM204.418 129.105C204.388 129.031 204.414 129.044 204.405 129.249C204.397 129.418 204.37 129.645 204.321 129.92C204.222 130.468 204.047 131.145 203.818 131.81L205.331 132.332C205.584 131.596 205.782 130.839 205.896 130.203C205.953 129.886 205.992 129.584 206.003 129.322C206.014 129.096 206.012 128.777 205.902 128.505L204.418 129.105ZM203.818 131.81C203.358 133.146 202.292 134.846 201.419 135.676L202.521 136.836C203.604 135.808 204.798 133.878 205.331 132.332L203.818 131.81ZM201.419 135.676C200.541 136.509 198.646 137.776 197.247 138.448L197.941 139.891C199.455 139.162 201.498 137.807 202.521 136.836L201.419 135.676ZM197.247 138.448C195.378 139.347 193.791 139.71 190.649 139.896L190.744 141.493C194.007 141.3 195.82 140.911 197.941 139.891L197.247 138.448ZM190.649 139.896C187.627 140.075 185.602 139.917 183.196 139.331L182.817 140.886C185.406 141.517 187.594 141.68 190.744 141.493L190.649 139.896ZM183.196 139.331C181.382 138.889 177.016 137.206 173.511 135.581L172.838 137.032C176.364 138.667 180.846 140.406 182.817 140.886L183.196 139.331ZM173.511 135.581L167.119 132.616L166.445 134.068L172.837 137.032L173.511 135.581ZM167.327 132.756L156.3 122.502L155.21 123.674L166.237 133.928L167.327 132.756ZM156.3 122.502C152.903 119.343 149.838 116.599 147.381 114.505C144.945 112.429 143.053 110.945 142.025 110.352L141.226 111.739C142.105 112.246 143.886 113.629 146.343 115.723C148.777 117.798 151.824 120.526 155.21 123.674L156.3 122.502ZM142.025 110.352C141.153 109.849 140.261 109.39 139.523 109.054C139.155 108.886 138.815 108.745 138.529 108.643C138.281 108.556 137.964 108.456 137.695 108.456V110.057C137.654 110.057 137.73 110.058 137.995 110.152C138.222 110.232 138.516 110.354 138.86 110.51C139.546 110.823 140.392 111.258 141.225 111.739L142.025 110.352ZM137.695 108.456C137.356 108.456 137.011 108.532 136.721 108.693C136.461 108.838 136.067 109.167 136.067 109.718H137.668C137.668 109.861 137.613 109.967 137.569 110.024C137.548 110.052 137.529 110.069 137.518 110.079C137.512 110.083 137.507 110.087 137.505 110.088C137.503 110.089 137.502 110.09 137.501 110.091C137.501 110.091 137.501 110.091 137.501 110.091C137.5 110.091 137.5 110.091 137.5 110.091C137.5 110.091 137.5 110.091 137.501 110.091C137.501 110.091 137.501 110.091 137.501 110.091C137.502 110.09 137.503 110.09 137.504 110.089C137.507 110.088 137.511 110.086 137.516 110.084C137.526 110.081 137.541 110.076 137.559 110.072C137.595 110.063 137.642 110.057 137.695 110.057V108.456ZM136.067 109.718C136.067 110.126 136.29 110.466 136.454 110.666C136.643 110.896 136.895 111.11 137.176 111.266L137.954 109.868C137.852 109.811 137.755 109.727 137.691 109.65C137.66 109.612 137.648 109.589 137.646 109.585C137.642 109.576 137.668 109.624 137.668 109.718H136.067ZM137.176 111.267C137.306 111.339 137.765 111.666 138.455 112.191C139.118 112.696 139.94 113.342 140.759 114.005L141.766 112.761C140.936 112.089 140.101 111.433 139.424 110.918C138.773 110.422 138.208 110.009 137.954 109.868L137.176 111.267ZM140.759 114.005C142.388 115.323 144.925 117.598 146.381 119.047L147.51 117.912C146.014 116.424 143.437 114.112 141.766 112.761L140.759 114.005ZM146.381 119.047C147.824 120.483 150.016 123.069 151.23 124.769L152.532 123.839C151.268 122.068 149.018 119.413 147.51 117.912L146.381 119.047ZM151.23 124.769C152.456 126.487 154.572 129.702 155.924 131.904L157.287 131.066C155.92 128.84 153.784 125.593 152.532 123.839L151.23 124.769ZM155.924 131.904C157.303 134.15 159.544 137.177 160.932 138.655L162.098 137.559C160.805 136.181 158.627 133.248 157.287 131.066L155.924 131.904ZM160.932 138.655C162.314 140.126 164.674 142.103 166.22 143.076L167.072 141.722C165.655 140.83 163.398 138.943 162.098 137.559L160.932 138.655ZM166.22 143.076C167.774 144.055 171.083 145.522 173.6 146.365L174.108 144.848C171.658 144.027 168.48 142.608 167.073 141.722L166.22 143.076ZM173.6 146.365C176.913 147.475 179.167 147.919 181.668 147.919V146.318C179.398 146.318 177.324 145.924 174.108 144.848L173.6 146.365ZM181.668 147.919C182.899 147.919 183.671 147.966 184.147 148.063C184.647 148.165 184.569 148.267 184.52 148.147L186.004 147.548C185.736 146.884 185.092 146.622 184.466 146.495C183.816 146.363 182.901 146.318 181.668 146.318V147.919ZM184.52 148.148C184.541 148.199 184.581 148.39 184.577 148.707C184.573 149.002 184.533 149.319 184.465 149.579L186.012 149.988C186.118 149.584 186.172 149.134 186.177 148.727C186.182 148.342 186.145 147.897 186.004 147.548L184.52 148.148ZM184.465 149.579C184.416 149.762 184.261 150.031 183.911 150.351C183.57 150.665 183.085 150.989 182.468 151.288L183.166 152.728C183.886 152.379 184.51 151.974 184.994 151.53C185.471 151.092 185.857 150.573 186.012 149.988L184.465 149.579ZM182.468 151.288C181.441 151.785 181.021 151.96 180.383 151.986C179.667 152.015 178.68 151.855 176.549 151.48L176.271 153.056C178.322 153.417 179.517 153.623 180.448 153.585C181.457 153.544 182.15 153.22 183.166 152.728L182.468 151.288ZM176.549 151.48C173.586 150.959 171.03 150.094 167.75 148.491L167.047 149.928C170.436 151.585 173.135 152.504 176.271 153.056L176.549 151.48ZM167.75 148.491C165.192 147.241 162.041 145.267 160.767 144.141L159.707 145.341C161.134 146.6 164.427 148.648 167.047 149.929L167.75 148.491ZM160.767 144.141C159.449 142.977 157.61 141.04 156.702 139.866L155.436 140.845C156.415 142.11 158.326 144.12 159.707 145.341L160.767 144.141ZM156.702 139.866C155.8 138.699 152.959 134.074 150.388 129.564L148.998 130.356C151.555 134.842 154.452 139.572 155.436 140.845L156.702 139.866ZM150.388 129.564C147.825 125.067 144.642 120.03 143.303 118.379L142.06 119.386C143.306 120.924 146.433 125.856 148.998 130.356L150.388 129.564ZM143.303 118.378C141.963 116.725 139.438 114.38 137.653 113.128L136.734 114.439C138.401 115.607 140.815 117.851 142.06 119.386L143.303 118.378ZM137.653 113.128C135.918 111.912 133.673 110.561 132.642 110.137L132.034 111.617C132.892 111.97 135.017 113.234 136.734 114.439L137.653 113.128ZM132.642 110.137C132.134 109.928 131.624 109.767 131.201 109.679C130.992 109.635 130.779 109.603 130.585 109.601C130.488 109.599 130.371 109.604 130.249 109.63C130.14 109.653 129.943 109.711 129.77 109.875L130.872 111.036C130.739 111.161 130.607 111.19 130.583 111.195C130.546 111.203 130.534 111.2 130.561 111.201C130.613 111.202 130.716 111.212 130.873 111.245C131.182 111.31 131.597 111.438 132.034 111.617L132.642 110.137ZM129.77 109.875C129.581 110.055 129.528 110.267 129.51 110.373C129.491 110.488 129.496 110.591 129.503 110.66C129.517 110.799 129.553 110.941 129.59 111.063C129.665 111.316 129.79 111.63 129.942 111.974C130.25 112.669 130.71 113.571 131.249 114.517L132.64 113.726C132.12 112.812 131.686 111.96 131.405 111.326C131.263 111.005 131.17 110.762 131.122 110.603C131.097 110.519 131.095 110.492 131.096 110.504C131.096 110.509 131.102 110.558 131.09 110.632C131.079 110.695 131.04 110.876 130.872 111.036L129.77 109.875ZM131.249 114.517C132.379 116.504 133.695 119.961 134.616 123.415L136.162 123.003C135.222 119.477 133.863 115.876 132.64 113.726L131.249 114.517ZM134.616 123.415C135.698 127.479 136.199 130.724 136.423 135.125L138.021 135.044C137.792 130.536 137.275 127.18 136.162 123.003L134.616 123.415ZM136.423 135.125C136.611 138.834 136.482 143.55 136.094 147.133L137.685 147.306C138.082 143.636 138.213 138.834 138.021 135.044L136.423 135.125ZM136.094 147.133C135.741 150.387 134.938 154.883 134.318 157.096L135.859 157.528C136.51 155.203 137.326 150.615 137.685 147.306L136.094 147.133ZM134.318 157.096C133.701 159.3 131.949 163.62 130.429 166.664L131.86 167.379C133.408 164.281 135.206 159.863 135.859 157.528L134.318 157.096ZM130.429 166.663C128.898 169.726 126.84 173.274 125.873 174.546L127.146 175.515C128.209 174.118 130.321 170.458 131.86 167.379L130.429 166.663ZM125.873 174.546C124.886 175.844 122.743 178.25 121.123 179.874L122.256 181.004C123.909 179.347 126.104 176.886 127.146 175.515L125.873 174.546ZM121.123 179.874C119.509 181.491 116.698 183.992 114.895 185.415L115.886 186.671C117.739 185.21 120.597 182.667 122.256 181.004L121.123 179.874ZM114.895 185.415C113.078 186.848 110.485 188.739 109.145 189.61L110.017 190.951C111.411 190.045 114.046 188.122 115.886 186.671L114.895 185.415ZM109.145 189.61C107.82 190.471 104.289 192.385 101.302 193.853L102.008 195.29C105.006 193.816 108.608 191.867 110.018 190.951L109.145 189.61ZM101.302 193.853C99.7983 194.593 98.3279 195.35 97.1687 195.974C96.5895 196.287 96.0841 196.568 95.6892 196.799C95.3148 197.018 94.987 197.222 94.8053 197.371L95.8236 198.606C95.8895 198.552 96.104 198.41 96.4973 198.18C96.8701 197.962 97.3578 197.69 97.928 197.383C99.0674 196.769 100.52 196.021 102.008 195.29L101.302 193.853ZM94.8053 197.371C94.7535 197.414 94.6224 197.494 94.325 197.582C94.0324 197.669 93.6242 197.75 93.0574 197.823C91.923 197.97 90.2495 198.073 87.7906 198.157L87.8453 199.756C90.3072 199.672 92.0465 199.568 93.2624 199.411C93.8708 199.332 94.3721 199.238 94.7791 199.117C95.1814 198.998 95.54 198.84 95.8236 198.606L94.8053 197.371ZM87.7905 198.157C84.1926 198.28 78.6988 198.128 75.6091 197.821L75.4508 199.414C78.6212 199.729 84.187 199.882 87.8453 199.756L87.7905 198.157ZM75.6091 197.821C72.1627 197.479 68.5873 196.78 66.4098 196.037L65.8934 197.552C68.2271 198.348 71.9335 199.064 75.4508 199.414L75.6091 197.821ZM66.4098 196.037C64.4064 195.354 61.3945 194.149 59.7378 193.368L59.0553 194.816C60.7735 195.626 63.8418 196.853 65.8934 197.552L66.4098 196.037ZM59.7378 193.368C58.0948 192.594 55.7305 191.168 54.5182 190.226L53.5363 191.49C54.8552 192.515 57.3233 193.999 59.0553 194.816L59.7378 193.368ZM54.5181 190.226C53.2269 189.223 51.0146 187.709 49.5819 186.847L48.7568 188.218C50.1366 189.048 52.2964 190.527 53.5364 191.49L54.5181 190.226ZM49.5817 186.847C48.2449 186.043 45.7121 184.019 43.989 182.362L42.8798 183.516C44.6524 185.22 47.2813 187.331 48.757 188.218L49.5817 186.847ZM43.989 182.362C42.522 180.952 41.7186 180.096 40.7918 178.551C39.8402 176.966 38.7622 174.659 36.7958 170.33L35.3387 170.992C37.2909 175.289 38.4102 177.693 39.4195 179.375C40.4534 181.098 41.3743 182.068 42.8798 183.516L43.989 182.362ZM36.7958 170.33C33.2831 162.596 32.424 160.157 31.269 154.719L29.7036 155.051C30.8916 160.645 31.7998 163.2 35.3387 170.992L36.7958 170.33ZM31.269 154.719C30.0462 148.963 29.8851 147.128 29.8158 137.707L28.2155 137.719C28.2852 147.193 28.4493 149.147 29.7036 155.051L31.269 154.719ZM29.8158 137.707C29.7472 128.461 29.8781 126.637 30.7731 123.104L29.2218 122.711C28.2707 126.465 28.147 128.477 28.2155 137.719L29.8158 137.707ZM30.7731 123.104C31.3559 120.805 31.9563 118.378 32.1068 117.716L30.5461 117.362C30.401 118.001 29.8059 120.406 29.2218 122.711L30.7731 123.104ZM32.1068 117.716C32.1279 117.623 32.2079 117.385 32.3656 116.99C32.5158 116.614 32.7187 116.138 32.9607 115.593C33.4443 114.505 34.0766 113.161 34.7399 111.827L33.3069 111.115C32.6345 112.467 31.9922 113.832 31.4982 114.943C31.2514 115.498 31.0397 115.995 30.8792 116.397C30.726 116.781 30.5989 117.129 30.5461 117.362L32.1068 117.716ZM34.7399 111.827C36.0589 109.175 38.2372 105.639 39.5536 103.997L38.3051 102.996C36.8959 104.754 34.6592 108.395 33.3069 111.115L34.7399 111.827ZM39.5537 103.997C40.8847 102.337 43.9287 99.1284 46.3075 96.8858L45.2097 95.7214C42.8011 97.9921 39.6995 101.257 38.305 102.996L39.5537 103.997ZM46.3076 96.8858C48.7007 94.6291 51.5515 92.2167 52.6332 91.5123L51.76 90.1712C50.5456 90.9619 47.6028 93.4647 45.2096 95.7214L46.3076 96.8858ZM52.6334 91.5122C53.7385 90.7923 56.3128 89.401 58.3405 88.4336L57.6514 86.9892C55.5954 87.9702 52.9497 89.3962 51.7598 90.1713L52.6334 91.5122ZM58.3406 88.4335C60.3667 87.4666 63.214 86.2658 64.6495 85.7692L64.1263 84.2568C62.6154 84.7795 59.7099 86.0068 57.6513 86.9892L58.3406 88.4335ZM64.6494 85.7692C66.1002 85.2675 68.7208 84.4846 70.4584 84.0348L70.0573 82.4855C68.2849 82.9444 65.6231 83.7391 64.1264 84.2568L64.6494 85.7692ZM70.4584 84.0348C72.7735 83.4352 74.7909 83.2872 79.0163 83.4525L79.0789 81.8534C74.7902 81.6856 72.5929 81.8288 70.0572 82.4855L70.4584 84.0348ZM79.0163 83.4525L84.6151 83.6719L84.6778 82.0728L79.0789 81.8534L79.0163 83.4525ZM85.3725 82.536L84.5692 80.8017L83.1171 81.4743L83.9204 83.2087L85.3725 82.536ZM84.569 80.8012C84.1301 79.8552 83.0997 77.5558 82.2788 75.6933L80.8144 76.3387C81.636 78.203 82.6715 80.5141 83.1173 81.4748L84.569 80.8012ZM82.2789 75.6934C81.6136 74.1831 81.2726 73.2699 81.079 72.1355C80.8811 70.9754 80.8327 69.5575 80.8147 67.0302L79.2144 67.0416C79.2322 69.5485 79.2782 71.0957 79.5015 72.4046C79.7292 73.7393 80.1362 74.799 80.8143 76.3385L82.2789 75.6934ZM80.8147 67.0303C80.7889 63.3697 81.0796 60.2438 81.6588 57.7782L80.1008 57.4122C79.4834 60.0405 79.1881 63.3016 79.2144 67.0416L80.8147 67.0303ZM81.6588 57.7782C82.1433 55.7162 83.4208 51.9594 84.4912 49.4619L83.0202 48.8315C81.9224 51.393 80.6114 55.2395 80.1008 57.4122L81.6588 57.7782ZM84.4912 49.4619C85.573 46.9372 86.9946 44.0198 87.6378 42.9802L86.2768 42.1382C85.5669 43.2858 84.1065 46.2963 83.0202 48.8315L84.4912 49.4619ZM87.6376 42.9805C87.9341 42.5018 88.5934 41.6894 89.4508 40.749C90.2965 39.8215 91.2971 38.8105 92.245 37.943L91.1646 36.7624C90.178 37.6653 89.1434 38.7109 88.2682 39.6708C87.4047 40.6178 86.6576 41.5234 86.277 42.1379L87.6376 42.9805ZM92.245 37.943C94.9375 35.4788 96.7805 34.3045 101.052 32.3636L100.39 30.9066C96.0043 32.8994 94.0091 34.159 91.1645 36.7625L92.245 37.943ZM101.052 32.3636C104.062 30.9953 107.91 29.5483 109.581 29.142L109.203 27.5869C107.385 28.0291 103.428 29.5255 100.39 30.9066L101.052 32.3636ZM109.581 29.1419C111.792 28.6044 114.017 28.4566 117.906 28.6255L117.976 27.0267C114.02 26.8549 111.624 26.9983 109.203 27.5869L109.581 29.1419ZM117.907 28.6255C122.019 28.8035 123.938 29.1371 126.555 30.0914L127.103 28.5879C124.281 27.5588 122.187 27.2089 117.976 27.0267L117.907 28.6255ZM126.555 30.0913C127.533 30.4482 128.507 30.7733 129.291 31.0103C129.682 31.1286 130.033 31.227 130.316 31.2966C130.565 31.3578 130.853 31.4208 131.065 31.4208V29.8204C131.078 29.8204 130.978 29.8113 130.698 29.7425C130.452 29.682 130.13 29.5923 129.754 29.4785C129.002 29.2512 128.057 28.9359 127.103 28.5879L126.555 30.0913ZM131.065 31.4208C131.393 31.4208 131.64 31.2457 131.74 31.17C131.874 31.0685 132.003 30.9409 132.12 30.8113C132.357 30.5486 132.624 30.1908 132.904 29.7761C133.468 28.9411 134.134 27.7983 134.784 26.5311L133.36 25.801C132.731 27.0272 132.097 28.1118 131.578 28.8807C131.316 29.2679 131.097 29.5562 130.932 29.7392C130.847 29.8323 130.796 29.8775 130.776 29.8929C130.721 29.9342 130.837 29.8204 131.065 29.8204V31.4208ZM134.784 26.5311C135.417 25.2971 135.994 24.1069 136.414 23.1811C136.624 22.7193 136.798 22.3159 136.921 22.0025C136.982 21.8467 137.034 21.7035 137.073 21.5814C137.1 21.4951 137.156 21.3138 137.156 21.1343H135.556C135.556 21.0341 135.58 20.993 135.546 21.1009C135.524 21.1729 135.486 21.2778 135.431 21.4172C135.322 21.6941 135.161 22.0694 134.957 22.5195C134.549 23.4177 133.984 24.5846 133.36 25.8009L134.784 26.5311ZM137.156 21.1343C137.156 21.2148 137.137 21.2212 137.182 21.1082C137.218 21.0182 137.278 20.8961 137.362 20.7486C137.53 20.4544 137.769 20.1077 138.032 19.7897L136.8 18.7684C136.481 19.1538 136.189 19.5762 135.973 19.9546C135.865 20.1433 135.769 20.3332 135.697 20.511C135.635 20.6656 135.556 20.8953 135.556 21.1343H137.156ZM138.033 19.7894C138.296 19.4709 138.58 19.1869 138.816 18.9901C138.935 18.8908 139.027 18.8259 139.087 18.7905C139.117 18.7729 139.126 18.7703 139.117 18.7738C139.115 18.7746 139.052 18.8002 138.949 18.8002V17.1998C138.652 17.1998 138.399 17.3388 138.276 17.4113C138.115 17.5059 137.949 17.6289 137.791 17.7614C137.471 18.0283 137.119 18.3839 136.8 18.7687L138.033 19.7894ZM138.949 18.8002C138.834 18.8002 138.772 18.7692 138.827 18.7888C138.857 18.7992 138.909 18.8206 138.988 18.8577C139.144 18.9311 139.357 19.0441 139.615 19.1924C140.131 19.4876 140.788 19.9 141.457 20.3566L142.359 19.0344C141.661 18.5587 140.969 18.1233 140.411 17.8038C140.134 17.6448 139.88 17.5087 139.67 17.4099C139.566 17.3609 139.461 17.3154 139.362 17.2804C139.289 17.2546 139.129 17.1998 138.949 17.1998V18.8002Z" fill="#2E2E2E" mask="url(#path-2-inside-1_212_176)"></path>
</svg><style>@media (prefers-color-scheme: light) { :root { filter: none; } }
</style></svg>