<svg xmlns="http://www.w3.org/2000/svg" width="39" height="160" fill="none"><path fill="#2E2E2E" d="M18.4141 29.7342v-.2636l-.0791-.0791v-5.5108l.4218-5.4844h2.2676v1.4239l-.2373 2.6367h.1582l1.4502-1.4502 1.2656-1.2656h.1582l.2637-.501.5801-.6856.6855-.7646h.1582c.4043-.668.8262-1.3096 1.2657-1.9248.457-.6328.7207-1.3447.791-2.1357l-.3428-.5801c-.5098-.4043-1.1074-.6065-1.793-.6065-2.25.334-4.4472.8965-6.5918 1.6875-2.1445.791-4.2011 1.6963-6.1699 2.7158l-.1055.2637h-2.5312v-.4219c2.707-1.4765 5.5019-2.6806 8.3848-3.6123 2.8828-.9316 5.8974-1.3095 9.0439-1.1337.8438 0 1.582.2812 2.2149.8437.2285.457.3076.9932.2373 1.6084-.211.7383-.545 1.4502-1.002 2.1357-.457.668-.9404 1.3096-1.4502 1.9248l-.2373.0791-.8437 1.1866-.2637.0791-.6856.9492-1.1865 1.1865-.501.2373-.0791.2637-.7646.6855h-2.1094l-.1055.501v6.0117h-2.2675ZM21.2617 65.4989l-.1055-.4219c.9141-2.1973 1.7315-4.4121 2.4522-6.6445.7383-2.2324 1.3887-4.5088 1.9512-6.8291l-.501-.7647-1.1865-.4218c-1.459.1757-2.8828.4482-4.2715.8173-1.3887.3692-2.8125.668-4.2715.8965l-1.4502 5.8272h-2.3467v-.4219c.4395-2.0918.9844-4.166 1.6348-6.2227.6504-2.0566 1.2568-4.1308 1.8193-6.2226h2.3731v.4219l-1.6875 5.6689h.1582c1.5293-.4395 3.1201-.7734 4.7724-1.002 1.67-.2285 3.3838-.3164 5.1416-.2636.7383 0 1.3536.2285 1.8457.6855.2813.4395.3956.9492.3428 1.5293-.6152 2.25-1.2744 4.5088-1.9775 6.7764-.7031 2.25-1.5117 4.4473-2.4258 6.5918h-2.2676ZM19.2314 99.5497c-1.3007-.211-2.4873-.6592-3.5595-1.3448l-.5801-.5009-1.3447-1.8721c-.3516-.7383-.5537-1.5293-.6065-2.3731-.0527-.8437-.0527-1.7138 0-2.6103h-.3427c-.6153.4394-1.2745.7646-1.9776.9756-.7031.1933-1.47655.2285-2.3203.1055v-.4219c.77344-.4395 1.582-.8526 2.4258-1.2393.8613-.4043 1.7138-.7734 2.5576-1.1074.334-1.8633.8086-3.6563 1.4238-5.3789.6328-1.7227 1.3975-3.4014 2.294-5.0361l2.4521-.0791v.4218c-.8437 1.3535-1.5469 2.795-2.1094 4.3242-.5625 1.5118-1.0459 3.0586-1.4501 4.6407h.2636c1.2481-.4571 2.5137-.8526 3.7969-1.1865 1.3008-.334 2.6279-.5889 3.9814-.7647h4.2452c.6152.0527 1.1777.2813 1.6875.6855.2812.3868.3691.8614.2636 1.4239l-.8437 1.6084-1.6084 1.872-1.5293 1.5293c-1.0723.6153-2.3467.8086-3.8233.5801l-1.2656-.8437v-.4219h2.3731l.3427.1582.5801-.3164.7647-.7647c1.582-1.8632 2.4609-3.2519 2.6367-4.166l-.7647-.6592-1.4502-.1845c-1.6875.2812-3.3662.6767-5.0361 1.1865-1.6523.5098-3.2959 1.0723-4.9307 1.6875-.2285 1.248-.3164 2.5752-.2636 3.9814.1758 1.125.5713 2.1709 1.1865 3.1377l.501.6065.8437.501v.1582c1.0196.6152 2.1533 1.0107 3.4014 1.1865.791-.2285 1.5644-.4483 2.3203-.6592.7559-.2285 1.5908-.29 2.5049-.1846v.4219c-.9668.457-1.9863.7647-3.0586.9229h-3.9815ZM10.5303 135.499v-.422l.8437-.765 4.6406-4.825 2.1358-2.452.8437-.949 1.6875-1.925 1.5293-1.608c.668-.862 1.1162-1.829 1.3448-2.901l-.0791-.316c-.6328-.457-1.3711-.633-2.2149-.528-1.7929.229-3.542.624-5.2471 1.187-1.6875.562-3.4892.817-5.4052.765v-.422c1.459-.387 2.9355-.765 4.4297-1.134 1.4941-.369 3.0322-.668 4.6142-.897h4.4824l1.5293.607c.2813.439.3692.94.2637 1.503l-1.1074 2.03-.8438 1.108-1.2656 1.529-1.8721 2.03-.58.686.5009.316.3428.343 1.1074 1.186v.185l.9229.659.0791.264c.8437.615 1.7402 1.151 2.6894 1.608.9668.457 1.9864.712 3.0586.765v.422h-2.6103c-1.0195-.123-1.9688-.396-2.8477-.818-.8613-.422-1.7226-1.028-2.584-1.819l-1.6875-1.424-.4218-.264-3.2959 3.56-2.1094 2.109-.4219.501-2.4521.106Z"/></svg>