<svg xmlns="http://www.w3.org/2000/svg" width="42" height="126" fill="none"><path fill="#2E2E2E" d="M13.5032 29.3496c-.5801-.123-1.0899-.3516-1.5293-.6855l-.3428-.3428c-.5098-1.0195-.7383-2.1709-.6855-3.4541l.0791-.3428h2.373v.4219l-.0791 1.0019c.0527.7911.3076 1.5293.7647 2.2149.5625.5098 1.2656.7295 2.1093.6592 1.5821-.211 3.0938-.5801 4.5352-1.1075 1.4414-.5449 2.9795-.791 4.6142-.7382v.4218c-1.1777.4571-2.4082.8526-3.6914 1.1866-1.2656.3339-2.5488.5888-3.8496.7646h-4.2978Zm14.8974-8.9912v-.0791l-.3427-2.7949v-3.7178h2.373v3.9023l.2373 2.6895h-2.2676Zm-3.3222-.9229v-1.3447l-.0791-.0791V12h2.373v6.1699l.0791 1.1074-.0791.1582h-2.2939Zm-6.6709-1.1074v-.4219l.2373-.0791.6855-.9228.2637-.0791c.668-.791 1.1689-1.6699 1.5029-2.6367l-.0791-.3428-1.2656-.4219c-1.5293.1758-2.9883.5362-4.377 1.0811-1.371.5273-2.874.7646-4.5087.7119v-.4219c1.1777-.457 2.3906-.8525 3.6386-1.1865 1.2481-.3516 2.5225-.5801 3.8233-.6855h3.6386l1.2657.5009c.2285.334.3076.7559.2373 1.2657l-.501 1.1074-.2637.0791-.5801 1.0283-1.3447 1.4238h-2.373ZM19.3567 65.6152v-1.6084l.4482-5.1679h2.2676v1.1074l-.4219 5.6689h-2.2939Zm7.04-7.9629v-.4218c.4571-.4571.7383-.9932.8438-1.6084l-.3428-.4219-2.1885-.4219-3.1377.3428v.1582c-1.8105.123-3.5507.4219-5.2207.8965-1.6523.4746-3.4101.6855-5.2734.6328v-.4219l7.6992-1.6084v-.3428c-.334-.6152-.6328-1.248-.8965-1.8984-.2461-.6504-.3427-1.3711-.29-2.1621l2.373-.0791c-.0527.791.0616 1.5117.3428 2.1621.2813.6504.5889 1.2832.9229 1.8984l1.0283.0791.0791-.0791h5.0625c.7383.0528 1.415.2813 2.0303.6856.1757.334.2373.7295.1845 1.1865l-.6064 1.0811c-.791.3515-1.6612.4658-2.6104.3427Zm-4.2451-5.3261v-.4219l.5274-.6855h.1582l.2636-.501c.8438-.8965 1.5996-1.8809 2.2676-2.9532l.1846-.8701-.8438-.7383-2.0302-.2636c-1.5821.1054-3.1202.3691-4.6143.791-1.4941.4219-3.0586.6064-4.6934.5537v-.4219c1.793-.5625 3.6475-.958 5.5635-1.1865 1.9336-.2285 3.9111-.3076 5.9326-.2373.8965 0 1.7403.167 2.5313.501l.4219.501.1054 1.1074c-.2812.8437-.7031 1.6084-1.2656 2.2939l-1.292 1.503-.8437.8437h-.1582v.1846h-2.2149ZM27.636 101.037v-.422c1.0195-1.5291 1.8369-3.1375 2.4521-4.825.6328-1.6875.9756-3.4892 1.0284-5.4052-.0528-.7383-.2813-1.3887-.6856-1.9512l-.1582-.0791-1.0283-.8701-.5801-.0791c-.8437.2812-1.6611.6064-2.4521.9756-.7911.3691-1.6963.4658-2.7159.29.0528.3516-.0351.5801-.2636.6855h-2.8741c-.1582-.3867-.2109-.8085-.1582-1.2656.334-1.125.7559-2.2412 1.2657-3.3486.5097-1.1074 1.0722-2.1621 1.6875-3.1641l2.373-.1054v.4482c-.6152 1.0723-1.1953 2.1709-1.7402 3.2959-.5274 1.125-.9317 2.3115-1.2129 3.5596h.9228v-.5274c1.0196-.6679 2.1358-1.0986 3.3487-1.292 1.2129-.2109 2.4697-.2549 3.7705-.1318.6679.1055 1.2832.3867 1.8457.8437.791 1.0723 1.1338 2.3379 1.0283 3.7969-.1758 1.7578-.5625 3.4278-1.1602 5.0098-.58 1.582-1.3535 3.0762-2.3203 4.4824l-2.373.079Zm-15.0557-.343v-.9225l.3428-6.2754-.1055-.4219-3.37497-.1582v-.6064c.73827-.791 1.55567-1.4678 2.45217-2.0303.914-.5625 1.7314-1.1777 2.4521-1.8457h-.501l-.0791.0791h-3.5595l-1.18655-.3428-.0791-.8437.50098-.9229.26367-.1054.2373-.501 1.793-1.6084h.1582l.0791-.2373.6855-.6065c.791-.6152 1.6084-1.2041 2.4522-1.7666.8437-.5625 1.8633-.7383 3.0586-.5273v.4219l-1.9512 1.4502c-1.125.791-2.1709 1.6347-3.1377 2.5312h-.1582l-.1055.2637-.5009.501h-.1583l-.7646 1.5292c.5098.2813 1.0986.3692 1.7666.2637l3.3223-.1055.5009.1846v.501l-.2636.4219-3.1377 2.0302v.1846l-1.6084 1.1865v.1582h.2636l4.1397-.3427v-.4219c-.2285-.3867-.3428-.835-.3428-1.3447h2.294c.2285.791.5273 1.5556.8965 2.2939.3691.7207.6679 1.4766.8964 2.2676h-2.2939l-1.0283-2.294h-.3164l-1.292.1846v3.2959c.9668-.0527 1.8457.0352 2.6367.2637l2.1094 1.3447v.4219h-2.294l-2.2676-1.5293-.0791-.501h-.1845l-.3428 4.4821h-2.1885Zm-3.71775-2.0299-.18457-.0791c-.1582-.5625-.21094-1.1866-.1582-1.8721l.2373-1.5029H11.051v.8437l-.1582 1.8457h1.3447v.4219c-1.0195.3516-2.1445.4658-3.37495.3428Zm14.63375-2.5313-.8437-.4219c-.6152-1.0195-.9844-2.1533-1.1074-3.4013h2.2939c.1582 1.1425.5801 2.1621 1.2656 3.0586.2813.2285.6504.3164 1.1075.2636v.4219l-2.7159.0791Z"/></svg>