<svg xmlns="http://www.w3.org/2000/svg" width="42" height="160" fill="none"><path fill="#2E2E2E" d="M26.1396 30.6152v-.4218c.6153-.3868 1.0987-.8877 1.4502-1.503.5098-.9668.7647-2.039.7647-3.2168-.1231-.791-.4043-1.5029-.8438-2.1357l-.2636-.0791-1.5293-1.1865c-1.0196-.4571-2.1182-.7119-3.2959-.7647l-2.7158.6856c-.1055 1.248-.2286 2.4785-.3692 3.6914-.1406 1.2129-.4922 2.3554-1.0547 3.4277l-.2636.0791-.4219.5801c-.6153.4043-1.3096.6064-2.083.6064h-2.2412c-.668-.0527-1.2832-.2812-1.8457-.6855l-.3428-.3428c-.2813-.5098-.4219-1.0723-.4219-1.6875.1582-.8437.4922-1.6348 1.002-2.373l1.2656-1.2657h.1846l.1582-.2636c.6328-.5098 1.2656-.9317 1.8984-1.2657.6504-.3339 1.3184-.6416 2.0039-.9228l.1582-2.7158-.0791-1.1866h-.4219c-1.125.2813-2.2588.4922-3.4013.6329-1.125.1406-2.3028.1845-3.53324.1318v-.4219a32.28712 32.28712 0 0 0 3.66504-.5273c1.2129-.2637 2.4434-.5098 3.6914-.7383v-.7647L16.9902 12h2.294l.3428 4.4824h2.5312v.4219l-2.5312.2637v3.7968h.3427l.8438-.1582h3.7969c.9667.1055 1.8808.3164 2.7421.6329.8789.3164 1.6612.8085 2.3467 1.4765.791.9668 1.125 2.1006 1.002 3.4014-.1055 1.1777-.4658 2.2764-1.0811 3.2959-.2812.457-.6767.791-1.1865 1.0019h-2.294Zm-10.8369-1.2656.9493-1.1865c.3339-.791.5537-1.5908.6591-2.3994.1231-.8262.211-1.6875.2637-2.584h-.1846l-1.6084 1.0019-.0791.2637c-.791.6152-1.4414 1.3799-1.9511 2.294l-.3164 1.2656c.1054.5097.3867.958.8437 1.3447l.7647.3428.6591-.3428Zm11.2588-11.0742c-.334-.1758-.5888-.4307-.7646-.7647l-.0791-2.7949.2636-1.6875h2.2676v.8438l-.2373 2.6103.3428.9492.4219.0791c.6679-.3339 1.3798-.5888 2.1357-.7646.7734-.1758 1.582-.2022 2.4258-.0791v.4219c-1.0195.4394-2.0918.7734-3.2168 1.0019-1.125.2285-2.3115.2901-3.5596.1846ZM22.9756 66.5645c-.4043-1.4239-.7031-2.8477-.8965-4.2715-.1934-1.4414-.3252-2.9268-.3955-4.4561h2.373l.1055.501h.2373c.8438-.5625 1.7754-.9141 2.7949-1.0547 1.0196-.1406 2.0918-.1846 3.2168-.1318l1.1075.5273c.5097.7207.6767 1.5645.5009 2.5313-.2812 1.125-.6504 2.2236-1.1074 3.2959h1.2656v.4218c-1.2304.1231-2.4433.2813-3.6386.4746-1.1778.1934-2.3555.378-3.5332.5538v.1582l.2373 1.4502h-2.2676Zm-10.8369-.1846v-.1582c-.4043-1.125-.7032-2.2764-.8965-3.4541-.1934-1.1953-.2637-2.4434-.211-3.7442l.0792-.1845h2.373v.4482l-.0791.3164h.1582c.6855-.5097 1.4502-.7998 2.2939-.8701.8438-.0879 1.7139-.1055 2.6104-.0527.4043.0527.7471.2197 1.0283.5009.3867.6856.5274 1.4502.4219 2.294l-.4219 2.373h1.2656v.4219c-1.0195.2285-2.0478.4834-3.0849.7647-1.0371.2812-2.127.4482-3.2696.5009v.2637l.1055.5801h-2.373Zm4.7197-2.1094v-.2637c.4043-1.125.6328-2.3115.6855-3.5595l-.4218-.9229h-.2637l-1.9248 1.0283-.1846.2373-.5801.6065h-.6855v.6592l.6064 2.7949h.4219l2.3467-.5801Zm11.3643-.6064c.3867-.7207.7294-1.4766 1.0283-2.2676.3164-.791.4482-1.6436.3955-2.5576l-.3428-.6592-.5801-.3428c-1.248.457-2.4082 1.0459-3.4804 1.7666l-.0791.1846c-.2286.2812-.5362.3955-.9229.3428v.3164l.5801 3.7441h.4219l2.9795-.5273Zm-11.9444-7.0928v-.0791c-.334-1.2481-.5713-2.5488-.7119-3.9024-.1406-1.3535-.2109-2.7334-.2109-4.1396l.1582-1.2656h2.2939v1.0019l-.0791.9229h.1582c1.0195-.791 2.1445-1.3096 3.375-1.5557 1.2481-.2461 2.5752-.3164 3.9815-.2109.6855.0527 1.2832.3603 1.7929.9228.334.6856.501 1.4502.501 2.294-.0527.8437-.2109 1.6787-.4746 2.5049-.2461.8085-.5361 1.582-.8701 2.3203l-2.4785.0791v-.4219h-.2373c-.7911.1758-1.5996.3779-2.4258.6064-.8086.211-1.6084.4307-2.3994.6592l-.0791.2637h-2.294Zm7.8838-2.294c.2813-.6152.501-1.2744.6592-1.9775.1758-.7031.29-1.4238.3428-2.1621-.0528-.6152-.2813-1.1777-.6856-1.6875l-.9228-.5273c-.8438.2812-1.6612.6416-2.4522 1.081-.791.4219-1.5556.9141-2.2939 1.4766l-.0791.1582-.9229.1845v.8438l.5801 3.5332h.4219c.8437-.2109 1.705-.4043 2.584-.5801.8789-.1758 1.8017-.29 2.7685-.3428ZM23.7666 102.329v-.422l.0791-.448h-.3428c-.9492.229-1.916.431-2.9004.606-.9843.176-2.0478.229-3.1904.159l-1.6084-.079c-.1582-.95-.2812-1.934-.3691-2.9536-.0879-1.0195-.1055-2.0654-.0528-3.1377h2.294l.0791.7647h.1846c.6152-.4043 1.2744-.7032 1.9775-.8965.7031-.1934 1.4238-.378 2.1621-.5537h3.4805c.5625.0703 1.0371.2724 1.4238.6064.4043.6152.5713 1.3184.501 2.1094-.1055.791-.2901 1.5293-.5537 2.215-.2461.668-.5362 1.345-.8702 2.03h-2.2939Zm.501-1.714c.5097-1.0017.791-2.074.8437-3.2166l-.5801-1.081c-.2812-.2813-.6503-.3955-1.1074-.3428-1.0195.1582-1.9687.5098-2.8476 1.0547-.8614.5273-1.8018.8525-2.8213.9756v1.1865h.3428c.9668-.2812 1.9511-.5625 2.9531-.8437 1.0195-.2813 2.0918-.3692 3.2168-.2637v.4219c-1.0723.2285-2.1182.5097-3.1377.8437-1.002.334-2.1006.4483-3.2959.3428v.5006l.1846 1.451h.5009c.9668-.176 1.916-.378 2.8477-.607.9316-.211 1.8984-.351 2.9004-.422Zm-8.7012-5.7478v-.4219l4.1397-.6855.0791-2.1094h-.3428c-1.0723.4043-2.2852.5449-3.6387.4219v-.4219l3.9815-1.002v-1.4502h-.3428c-1.1778.334-2.4434.4483-3.7969.3428v-.4219l3.9815-.8437.0791-2.0303-.0791-.3428h-.2637c-2.6719.5098-4.7461.9756-6.2227 1.3975-1.459.4219-3.0058.6064-4.6406.5537v-.4219l11.127-2.4521v-.7647l-.0791-1.872h-.1846c-.7383.2812-1.5029.4834-2.294.6064-.7734.1055-1.5908.1319-2.4521.0791v-.4219l4.8252-1.1865v-.6855l-.1582-1.8721h2.373l.1582 2.2939h2.5049c.8262 0 1.5469.2286 2.1621.6856l.0791.2373h.1582c.2285.457.3428.9668.3428 1.5293h.1846c.9492-.1582 1.8984-.2549 2.8476-.29.9668-.0352 1.96-.0528 2.9795-.0528l.6856.2637v.5801c-.8438.2812-1.7491.3691-2.7159.2636v-.5009h-.58l-3.4805.5009c-.2285 1.1778-.6504 2.2764-1.2656 3.2959h-2.294v-.4218l.9492-2.3731h-.3427L22 85.2959v.9492l.0791 1.6875h1.4238v.4219l-1.2656.3428-.0791 1.6875c1.0723-.0528 2.0918 0 3.0586.1582l.0791.5273c-.6855.5098-1.5908.6768-2.7158.501v-.6065h-.1582l-.2637.1055-.0791 2.2676h.1582c1.0723-.1582 2.2061-.2109 3.4014-.1582v.3428l-3.7442.58v.3428c-1.0547 0-2.0918.1055-3.1113.3164-1.0195.1934-2.0918.2285-3.2168.1055Zm9.1231-10.916v-.8438l-.501-.8437c-.4571-.334-.9932-.5362-1.6084-.6065l-.6856.1846-.0791.9228.0791 1.6875h.1846l2.6104-.5009ZM16.5947 135.615v-.764c-.6679-.95-.9756-2.075-.9228-3.375l.4219-1.002c.6152-.51 1.3447-.765 2.1884-.765h2.5576c.7207.105 1.4063.29 2.0567.554.6504.246 1.3183.483 2.0039.712v-.343l-1.1074-6.091h-.7647c-1.6347.229-3.2431.483-4.8252.765-1.582.281-3.2431.422-4.9834.422l-.0791-.501c1.793-.176 3.5596-.414 5.2998-.712 1.7578-.317 3.5157-.563 5.2735-.739v-.342l-.6065-4.14h-.8437c-1.125.053-2.2412.123-3.3487.211-1.0898.088-2.1972.097-3.3222.026l-.1055-.501 7.4619-.342v-.422l-.7646-4.562h2.373l.7647 4.483h2.4521v.421c-.7383.282-1.5029.449-2.2939.501v.528l.6064 3.559 2.4522.079v.501l-2.3731.343v.237c.2285 1.424.4834 2.839.7647 4.246.2812 1.406.4482 2.847.5009 4.324l-2.6103.079c-.8613-.615-1.7578-1.16-2.6895-1.635-.914-.492-1.8808-.852-2.9004-1.081-.5097.281-.8789.65-1.1074 1.107l-.0791 1.002c.3867 1.02.7822 2.066 1.1865 3.138l-2.6367.079Z"/></svg>