<svg xmlns="http://www.w3.org/2000/svg" width="44" height="165" fill="none"><path fill="#2E2E2E" d="M18.0565 34.7812c-.3515-1.3007-.5273-2.6806-.5273-4.1396l.4219-4.2451h2.373v.8437h.1846l2.0302-.7646v-.1582h-.8437l-.0791-2.7949c.0527-.7911.1494-1.5645.29-2.3204.1407-.7734.2901-1.5205.4483-2.2412h2.373v.5801c-.2812 1.0195-.4746 2.0654-.5801 3.1377h.3428c.8438-.123 1.6612-.3516 2.4522-.6855.791-.334 1.6875-.4219 2.6894-.2637v.4482l-.0791.1582c-.8437.334-1.7314.5889-2.6631.7647-.9316.1582-1.9072.2724-2.9267.3428v2.6894h2.6631c.8789 0 1.6611.2549 2.3466.7647.7383.9668.9932 2.1269.7647 3.4804-.1758 1.3535-.5449 2.6192-1.1074 3.7969h-2.294v-.5801l.1846-.5009h-.4219c-.9668.1054-1.9336.246-2.9004.4218-.9492.1582-1.9336.2373-2.9531.2373v.2637l.1846.7646h-2.3731Zm8.8067-2.4521v-.1846c.3867-1.0019.5537-2.1269.5009-3.375l-.5009-1.3447c-.4571-.4043-.9932-.6328-1.6084-.6855-.9141.1582-1.7666.4834-2.5577.9755-.791.4747-1.6611.7647-2.6103.8702l-.1846 3.1377.1846 1.4502h.501l6.2754-.8438Zm-16.084-1.2656v-.4219c.8965-2.0918 1.8193-4.1396 2.7685-6.1436.9668-2.0039 1.8985-4.0517 2.795-6.1435h-1.9248v-.4219l7.0136-.7646.2637-5.168h2.373v1.0283l-.2636 3.876h.1582l3.4804-.3164h3.5596v.4219c-2.039.0527-4.0781.1933-6.1172.4218-2.0215.2286-4.0429.4834-6.0644.7647-.791 2.1973-1.7139 4.3594-2.7686 6.4863-1.0371 2.1094-2.0039 4.2363-2.9004 6.3809h-2.373ZM12.3348 70.4404v-.2373c-.1757-1.1953-.2285-2.4082-.1582-3.6386l.5801-2.3731h2.294v.3428h.1582c1.248-.2285 2.5752-.3164 3.9814-.2637.457.1758.7998.4834 1.0283.9229l.0791 2.1357-.3427 1.3447c-.9668-.0527-1.8721 0-2.7159.1582-.8437.1758-1.749.2373-2.7158.1846v.3428l.1846 1.081h-2.3731Zm13.8692-.6592v-.6064l.1846-3.2168h-1.9512v-.4219l2.0303-.58v-1.4502h-2.3731v-.4219l2.294-.6856c.1757-.3867.2285-.8086.1582-1.2656h-2.2676v-.4219c.6679-.6152 1.4238-1.0634 2.2676-1.3447v-2.2148l-.0791-.7383h-.1582c-.6856.2812-1.4239.4482-2.2149.501-.791.0527-1.6084.0527-2.4521 0v-.4219l4.8252-1.0283v-3.4541l.0791-.1846h2.2939v3.1377h.1582c1.2481-.2285 2.5752-.3164 3.9815-.2637v.4219l-4.1397.6855v2.7159h.5801l2.9004-.0791c.6679.0527 1.2568.2988 1.7666.7382l.0791.2637.2636.1582c.4571.6856.7208 1.4414.7911 2.2676.0879.8086.1318 1.6348.1318 2.4785-.0527.8438-.1494 1.6611-.29 2.4522-.1407.791-.2989 1.582-.4746 2.373h-2.3731v-.4219c.2285-1.0195.4219-2.0302.5801-3.0322.1758-1.0195.2373-2.0654.1846-3.1377-.0528-1.125-.4131-2.1182-1.0811-2.9795-.4043-.334-.8877-.501-1.4502-.501l-1.5293.6065-.0791 2.1094h2.7158v.4218l-2.6367.5801-.0791 1.4502h2.1885v.501l-2.2676.5273-.1846 4.4824h-2.373Zm-8.4639-1.872v-.2637l.2637-1.3447-.3428-1.1865-.501-.0791-1.6084 1.1865h-.9228l-.1846 1.9512.0791.2373h.5274l2.6894-.501Zm3.4805-1.6875v-.4219c-.1055-.7383-.1758-1.5029-.211-2.2939a53.53104 53.53104 0 0 1-.0527-2.3731l.1846-1.4238h2.373v.5801c-.1758 1.125-.2373 2.2851-.1845 3.4804l.2636 2.4522h-2.373Zm-11.3379-2.874v-.4219c1.125-.2813 2.2676-.5186 3.4277-.7119a39.03202 39.03202 0 0 1 3.5069-.4746v-.1846h-1.4239v-.6592l.0791-1.292h-.4218l-2.9795.1055v-.3428h-.1582l-.0791.1582H9.46082v-.501l.42188-.58 1.5293-1.8721h.1582l.501-.8438.5273-.6064 1.6084-1.7666h.1582l.2637-.501.501-.5273h.1582l.1845-.3164.2373-.1055.1055-.2373 2.4522-.0791v.4219l-.5274.5009h-.1582l-.1582.3428-.2637.0791v.2637c.8965.0527 1.7403.3164 2.5313.791.791.4746 1.582.8877 2.373 1.2393v.5009h-2.2675L16.3163 54.04v.0791l-.501.501h-.1846l-.2373.501-.2636.1055-.3428.58-.2637.0791-1.0019 1.4502-.2637.0791-1.1865 1.8721h.5273l2.9531-.4219.1582-3.0586h2.294v1.5293l-.0791 1.2657h2.0303v.4218l-2.1094.2637-.1055 2.2676h2.9795v.4219c-1.8633.123-3.6738.3867-5.4316.791-1.7403.3867-3.542.5801-5.4053.5801Zm21.3311-11.1006v-.3428l-.4219-4.1397h2.2676l.5273 4.4825h-2.373ZM31.0028 102.145c-.5098-.053-.958-.308-1.3447-.765-.2285-.334-.3164-.703-.2637-1.108h2.2676l.501.95.7383.237c.5097-.316 1.4062-.387 2.6894-.211v.422c-.8262.334-1.5644.51-2.2148.527-.6329.018-1.4239 0-2.3731-.052Zm-17.9824 2.821.0264-8.1476.1582-3.5596h-.3955c-1.2129.4043-2.5225.5449-3.92876.4219v-.4219l4.24516-.9229.0791-.0791.2109-7.7519h2.3467l-.211 7.4883h1.5821l.1582-1.8721h.1845v-.1582c.7207-.4043 1.503-.6856 2.3467-.8438h3.3223c.5976.1055 1.125.4131 1.582.9229.4571.791.6592 1.6963.6065 2.7158l-.6065 2.874c-1.0019-.1054-1.9336-.0175-2.7949.2637-.8613.2813-1.7666.4219-2.7158.4219v2.1885l.4219 1.5291h.2636c.7735-.4569 1.5996-.7118 2.4785-.7645v-.1582c-.5449-.6328-.8964-1.3096-1.0546-2.0303h2.2412c.7734 1.125 1.4414 2.2764 2.0039 3.454H23.33l-.2637-.343h-.4219c-.668.405-1.4062.624-2.2148.66-.8086.017-1.626.026-2.4522.026l-.4219-.264-.2636-.158c-.2813-.7382-.4219-1.5556-.4219-2.4521-.5449-.0528-1.0371-.2549-1.4766-.6065l-.1054 7.5676h-2.2676Zm12.5508-1.899v-.421l2.8213-6.5132h-.3164c-1.0547.3516-2.2237.4658-3.5069.3428v-.4219l4.4297-.9228 1.3184-3.2168h2.2675v.4218l-1.0283 2.5313h1.4239v.4219l-1.8458.2636-3.3222 7.5143h-2.2412ZM8.88074 100.8c-.33398-.404-.44824-.9143-.34277-1.5295.17578-.7383.36914-1.4678.58008-2.1885.22851-.7382.4834-1.4502.76465-2.1357l2.3467-.0791v.4219c-.3516.791-.6328 1.582-.8438 2.373-.2109.791-.3779 1.6084-.501 2.4519h1.0811v.422c-.9492.229-1.97754.317-3.08496.264ZM16.87 96.1328v-.1582l.2637-3.4805h-.1582l-1.4239.2637-.0791 2.3731h.4219l.501.8437.3955.2373.0791-.0791Zm5.6953-1.1865v-.1582l.3428-1.9512h-.1846c-1.1074.334-2.2148.6152-3.3223.8438l-.0791 1.872h.2374c.9492-.2812 1.9511-.4834 3.0058-.6064Zm3.6651-.501v-.3428l.2636-3.5595h2.2412v.6855l-.1582 3.2168h-2.3466Zm-3.2432-2.1885v-.3427c-.0527-.6856-.334-1.2832-.8438-1.793l-.8173-.4219-1.5821.7647c-.2285.6855-.3164 1.4238-.2636 2.2148h.1582c1.0019-.4043 2.1181-.5449 3.3486-.4219Zm2.0039-2.9795-.1846-.0791v-.3427c1.459-.2285 3.085-.5098 4.878-.8438 1.8105-.3515 3.4892-.4746 5.0361-.3691l.0791.5273c-1.4238.0528-3.0234.2637-4.7988.6328-1.7754.3692-3.4454.5274-5.0098.4746ZM23.0927 140.44v-.659l.0791-1.265H19.454c-.9668-.071-1.7842-.44-2.4522-1.108-.5097-.914-.6855-1.933-.5273-3.058l.1055-.66h-.1846c-1.3008.159-2.6279.211-3.9815.159v-.422l4.4034-.422c.1757-.967.5185-1.872 1.0283-2.716h2.2676v.422c-.334.633-.5889 1.31-.7647 2.03h.4483l3.8759-.237v-.765h2.294l.0791.659h.1582l.1055-.079h4.9043v.422l-5.2471.185-.2637 4.482h.501c1.248-.228 2.5488-.316 3.9023-.263v.421l-4.4033.686c-.1582.738-.2373 1.468-.2373 2.188h-2.373Zm.1582-2.61v-.501l.3427-4.245h-1.3447l-3.0586.343c-.2812.791-.3955 1.635-.3428 2.531.1758.51.4043.967.6856 1.371.7383.492 1.582.712 2.5312.659l1.1866-.158Zm-10.6524-8.226v-.238c-.2812-1.019-.4658-2.092-.5537-3.217-.0879-1.125-.1055-2.285-.0527-3.48h2.373c-.0527 1.248-.0264 2.452.0791 3.612.1231 1.16.2988 2.268.5274 3.323h-2.3731Zm2.874-.238v-.422c2.0918-.281 4.1924-.501 6.3018-.659 2.1094-.176 4.2363-.264 6.3809-.264v.08h.1845c.3867-.686.7383-1.38 1.0547-2.083.3164-.704.4746-1.477.4746-2.321l-.6064-.949c-.9668-.492-2.0127-.712-3.1377-.659l-.5801.079-.3428 5.089h-2.373v-1.292l.2637-3.296h-.3428l-2.294.606-.1582 1.846h1.9512v.422l-.2637.343h-.1582l-.2636.527c-.9668.44-2.0655.58-3.2959.422-.2813-.686-.3955-1.424-.3428-2.215l.0791-.343h-.3428l-2.373.079v-.421l2.7949-1.002.5273-3.138h2.3467v.606l-.3164 1.767h.3164l2.294-.422.1845-2.188h2.3467v1.002l-.1582 1.028c1.0195 0 2.0303.017 3.0322.053 1.0196.017 1.9512.246 2.795.685l.1054.264.2373.079c.4043.633.545 1.397.4219 2.294-.1582.738-.4219 1.45-.791 2.136-.3692.668-.7471 1.336-1.1338 2.004l-2.4785.079v-.422l.1846-.317h-.501c-2.0391.106-4.0518.273-6.0381.501-1.9688.229-3.9639.369-5.9854.422Zm-.1845-9.808v-.449c2.0918-.386 4.1836-.676 6.2754-.87 2.0918-.193 4.2363-.29 6.4336-.29v.422c-2.1446.106-4.2627.299-6.3545.58-2.0918.281-4.21.484-6.3545.607Z"/></svg>