<svg xmlns="http://www.w3.org/2000/svg" width="98" height="451" fill="none"><g fill="#2E2E2E" clip-path="url(#a)"><path d="M33.0068 94.6152v-.4218c.6153-.3868 1.0987-.8877 1.4502-1.503.5098-.9668.7647-2.039.7647-3.2168-.1231-.791-.4043-1.5029-.8438-2.1357l-.2636-.0791-1.5293-1.1865c-1.0196-.4571-2.1182-.7119-3.2959-.7647l-2.7159.6856c-.1054 1.248-.2285 2.4785-.3691 3.6914-.1406 1.2129-.4922 2.3554-1.0547 3.4277l-.2637.0791-.4218.5801c-.6153.4043-1.3096.6064-2.083.6064h-2.2413c-.6679-.0527-1.2832-.2812-1.8457-.6855l-.3427-.3428c-.2813-.5098-.4219-1.0723-.4219-1.6875.1582-.8437.4922-1.6348 1.0019-2.373l1.2657-1.2657h.1845l.1582-.2636c.6329-.5098 1.2657-.9317 1.8985-1.2657.6504-.3339 1.3183-.6416 2.0039-.9228l.1582-2.7158-.0791-1.1866h-.4219c-1.125.2813-2.2588.4922-3.4013.6329-1.125.1406-2.3028.1845-3.5333.1318v-.4219a32.2862 32.2862 0 0 0 3.6651-.5273c1.2129-.2637 2.4433-.5098 3.6914-.7383v-.7647L23.8574 76h2.294l.3427 4.4824h2.5313v.4219l-2.5313.2637v3.7968h.3428l.8438-.1582h3.7968c.9668.1055 1.8809.3164 2.7422.6329.8789.3164 1.6612.8085 2.3467 1.4765.791.9668 1.125 2.1006 1.002 3.4014-.1055 1.1777-.4659 2.2764-1.0811 3.2959-.2812.457-.6768.791-1.1865 1.0019h-2.294Zm-10.8369-1.2656.9492-1.1865c.334-.791.5538-1.5908.6592-2.3994.1231-.8262.211-1.6875.2637-2.584h-.1846l-1.6084 1.0019-.0791.2637c-.791.6152-1.4414 1.3799-1.9511 2.294l-.3165 1.2656c.1055.5097.3868.958.8438 1.3447l.7646.3428.6592-.3428Zm11.2588-11.0742c-.334-.1758-.5889-.4307-.7646-.7647l-.0791-2.7949.2636-1.6875h2.2676v.8438l-.2373 2.6103.3428.9492.4219.0791c.6679-.3339 1.3798-.5888 2.1357-.7646.7734-.1758 1.582-.2022 2.4258-.0791v.4219c-1.0196.4394-2.0918.7734-3.2168 1.0019-1.125.2285-2.3115.2901-3.5596.1846ZM23.8311 126.564c-.3516-1.3-.5274-2.68-.5274-4.139l.4219-4.245h2.373v.843h.1846l2.0303-.764v-.158h-.8438l-.0791-2.795c.0528-.791.1494-1.565.2901-2.321.1406-.773.29-1.52.4482-2.241h2.3731v.58c-.2813 1.02-.4747 2.066-.5801 3.138h.3427c.8438-.123 1.6612-.352 2.4522-.686.791-.334 1.6875-.422 2.6894-.263v.448l-.0791.158c-.8437.334-1.7314.589-2.663.765-.9317.158-1.9073.272-2.9268.343v2.689h2.6631c.8789 0 1.6611.255 2.3467.765.7383.966.9931 2.127.7646 3.48-.1758 1.354-.5449 2.619-1.1074 3.797h-2.2939v-.58l.1845-.501h-.4219c-.9668.105-1.9335.246-2.9003.422-.9493.158-1.9336.237-2.9532.237v.264l.1846.764h-2.373Zm8.8066-2.452v-.184c.3867-1.002.5537-2.127.501-3.375l-.501-1.345c-.457-.404-.9932-.633-1.6084-.686-.9141.159-1.7666.484-2.5576.976-.791.475-1.6612.765-2.6104.87l-.1845 3.138.1845 1.45h.501l6.2754-.844Zm-16.084-1.265v-.422c.8965-2.092 1.8193-4.14 2.7686-6.144.9668-2.004 1.8984-4.052 2.7949-6.143h-1.9248v-.422l7.0137-.765.2636-5.168h2.3731v1.029l-.2637 3.876h.1582l3.4805-.317h3.5595v.422c-2.039.053-4.0781.193-6.1171.422-2.0215.228-4.043.483-6.0645.764-.791 2.198-1.7139 4.36-2.7686 6.487-1.0371 2.109-2.0039 4.236-2.9003 6.381h-2.3731ZM30.6074 156.615v-.422l1.7666-1.423 1.3711-1.372h.1582c.6153-.896 1.1338-1.819 1.5557-2.768.4394-.967.6592-2.013.6592-3.138-.1758-1.125-.6065-2.118-1.292-2.979-.7207-.616-1.5117-1.09-2.3731-1.424-.8437-.334-1.7402-.501-2.6894-.501-1.125.158-2.2149.466-3.2696.923-1.0371.457-2.039.993-3.0058 1.608l-.0791.158-.9229.765-.8437.844-1.1074 1.265c-.5625.862-.8438 1.828-.8438 2.901l.6856 1.002.5009.158 2.1094-1.345.0791-.158 1.1865-1.107h.1846l.8437-1.187c.7208-.844 1.3711-1.749 1.9512-2.716l.501-1.265h2.373v.421c-.5097 1.249-1.1865 2.435-2.0302 3.56l-.2637.079-.501.844-.8437.844h-.1846l-.1582.342-.2637.08-.0791.263c-.8437.897-1.8369 1.521-2.9795 1.872-1.125.334-2.3291.413-3.6123.238l-1.0283-.317-.6855-.87-.1582-1.767c.1054-.738.3427-1.397.7119-1.977.3691-.598.8086-1.178 1.3183-1.74l1.6875-1.53c1.0723-.738 2.1885-1.327 3.3487-1.766 1.1601-.457 2.3906-.774 3.6914-.949h4.2978c.791.123 1.5381.316 2.2412.58.7207.246 1.3887.588 2.0039 1.028.5098.457.9317.993 1.2657 1.608.5097.967.7031 2.066.58 3.296-.1054 1.073-.3867 2.074-.8437 3.006-.4395.932-1.0283 1.793-1.7666 2.584-.8438.914-1.8281 1.732-2.9531 2.452h-2.294ZM26.8896 188.723v-.765c.2813-1.002.4395-2.039.4747-3.111.0351-1.073.0791-2.145.1318-3.217l-.1846-5.01h-.501c-1.6347.229-3.3046.527-5.0097.897-1.6875.369-3.4278.527-5.2207.474v-.448l10.6523-1.688v-1.081l-.4219-5.589h2.294c.1582 1.002.2637 2.039.3164 3.111.0703 1.072.1318 2.144.1846 3.217h1.0019c1.4238-.106 2.8389-.202 4.2451-.29 1.4063-.088 2.8477-.132 4.3243-.132v.527c-1.5821.053-3.1817.123-4.7989.211-1.5996.088-3.164.237-4.6933.448l-.0791.422.1582 2.03v6.197c-.0528 1.301-.2461 2.566-.5801 3.797h-2.294Zm-4.9834-1.952-.2636-.158c-.5625-1.072-.7559-2.285-.5801-3.638l.6592-3.718h2.373v.422c-.2285.843-.4131 1.705-.5537 2.584-.1406.861-.1758 1.775-.1055 2.742l.6592 1.266.1846.079v.421h-2.3731Zm12.6036-.316c-.6153-.07-1.125-.325-1.5293-.765-.5625-.966-.8965-2.012-1.002-3.137v-3.718l.0791-.185h2.294v1.609l-.0791.844c.0527.791.1494 1.573.29 2.346.1406.756.4307 1.442.8701 2.057.457.334.9668.474 1.5293.422v.527h-2.4521ZM30.0537 220.487v-.422c.791-2.478 1.6084-4.93 2.4522-7.356.8613-2.426 1.5996-4.887 2.2148-7.383l-.4219-.923c-.334-.281-.7295-.395-1.1865-.342-2.0918.404-4.0693 1.001-5.9326 1.793-1.8633.791-3.8057 1.406-5.8272 1.845v.422l.501 3.823h-2.373c-.334-1.863-.5274-3.77-.5801-5.721-.0527-1.952-.2285-3.859-.5274-5.722h2.3731c.1758 1.02.29 2.057.3428 3.111.0527 1.037.1142 2.092.1845 3.164h.3164c2.0918-1.019 4.254-1.854 6.4864-2.505 2.2324-.65 4.5615-.914 6.9873-.791.6152 0 1.1513.167 1.6084.501.334.686.4482 1.451.3427 2.294-.7382 2.426-1.5029 4.808-2.2939 7.146a301.4633 301.4633 0 0 0-2.2939 7.066h-2.3731ZM27.6543 250.037l-.4219-.316c-.2812-1.143-.4219-2.303-.4219-3.481v-4.06l.1846-1.451h-.2637c-1.7402 1.354-3.4365 2.708-5.0888 4.061l-1.9248 1.951-2.4522.079v-.422l.2373-.079.2637-.501.4219-.422c1.7402-1.582 3.4629-3.023 5.1679-4.324 2.4258-1.582 4.8516-3.173 7.2774-4.772 2.4258-1.617 5.0713-2.593 7.9365-2.927v.422c-1.916.844-3.7881 1.819-5.6162 2.927-1.8281 1.09-3.6475 2.258-5.458 3.507v.158h1.8721v.685l-.1846 1.029v4.297c0 1.073.167 2.092.501 3.059l1.1865.079v.422l-3.2168.079ZM21.6953 281.38l-.5801-.765c-.1757-1.283-.2373-2.601-.1845-3.955.2812-2.549.5625-5.089.8437-7.62.2813-2.549.624-5.062 1.0283-7.541h2.294v.844c-.4043 2.707-.7735 5.449-1.1074 8.226-.334 2.76-.5889 5.52-.7647 8.28l.2637 1.45h.1582l.2637-.106v-.158h2.2675l.1055.422c-.5801.563-1.2832.853-2.1094.87-.8086.035-1.6347.053-2.4785.053Zm11.6016-7.515c-1.4063-.633-2.8477-1.169-4.3242-1.608-1.459-.457-2.8916-.941-4.2979-1.45v-.422h2.4522c1.4062.51 2.83.993 4.2714 1.45 1.4414.439 2.8653.976 4.2715 1.608v.422h-2.373ZM26.4941 313.408v-.949c.1055-.721.1846-1.477.2373-2.268.0704-.791.1319-1.582.1846-2.373v-4.904l-.0791-1.371h-.6064c-1.6875.228-3.3662.501-5.0362.817-1.6523.317-3.3838.44-5.1943.369v-.421c1.8105-.282 3.6035-.545 5.3789-.791 1.7754-.264 3.5947-.475 5.458-.633v-.844l-.3428-4.931h2.3731l.3428 5.59h.5009l3.5596-.237h5.669v.422c-1.6348 0-3.2696.044-4.9043.132-1.6348.07-3.2432.167-4.8252.29v2.61l.0791 3.401c-.0528 1.002-.1143 2.031-.1846 3.085-.0527 1.037-.1582 2.039-.3164 3.006h-2.294Zm7.7784-2.716-1.3448-.58-.0791-.263c-.2285-.053-.3691-.194-.4218-.422-.2813-.686-.4395-1.415-.4747-2.189-.0351-.791-.0527-1.582-.0527-2.373l.1846-1.028h2.373v.422c-.1758.967-.2373 1.951-.1845 2.953.0703.914.3515 1.74.8437 2.478.5801.387 1.2305.581 1.9512.581v.421h-2.7949Zm-13.1045-.079c-.4043-.123-.6592-.378-.7647-.764-.2285-.791-.3164-1.609-.2637-2.453l.5274-2.874h2.3467v.422c-.334 1.125-.501 2.312-.501 3.56 0 .562.2021 1.037.6064 1.424l1.0811.079v.422c-.9492.175-1.96.237-3.0322.184Zm12.3398-13.289v-.184c-.1582-.95-.2549-1.934-.29-2.953-.0176-1.02-.0264-2.031-.0264-3.033h2.3731c0 1.073.0087 2.127.0263 3.164.0352 1.037.1319 2.039.2901 3.006h-2.3731Zm3.3223-.184v-1.002l.501-4.746h2.373v.606l-.501 5.142h-2.373ZM28.3799 325.486l.5068.018c-.0276 2.521-.0466 5.042-.057 7.566-.0137 2.541-.1257 5.08-.336 7.618l-.6838 3.494-.414-.081c.5043-3.126.7019-6.24.5927-9.342-.1126-3.085.0179-6.176.3913-9.273ZM21.0927 377.249l-.58-.686-.1846-2.03c.2812-2.935.7207-5.827 1.3183-8.675.5977-2.847 1.1778-5.713 1.7403-8.595h2.373v.448c-.6328 2.918-1.2568 5.845-1.872 8.78-.6153 2.936-1.0108 5.933-1.1866 8.991l.1846.66h.2373l2.4522-.08v.422c-.6153.51-1.3184.765-2.1094.765h-2.3731Zm12.2871-6.697c-1.4238-.387-2.7861-.87-4.0869-1.45-1.2832-.598-2.5488-1.266-3.7968-2.004v-.422h2.4521c1.2481.791 2.5137 1.485 3.7969 2.083 1.3008.58 2.6631 1.037 4.0869 1.371v.422h-2.4522Zm.8438-5.485v-1.186l.4219-5.511h2.373v1.028c-.123.897-.2285 1.829-.3164 2.795-.0703.95-.1055 1.908-.1055 2.874h-2.373Zm-3.5596-1.951v-.079c-.2812-1.072-.4394-2.197-.4746-3.375-.0176-1.195-.0879-2.355-.2109-3.48h2.373c.0528 1.177.1055 2.346.1582 3.506.0703 1.161.2198 2.303.4483 3.428h-2.294ZM29.9785 407.326l-1.1865-.685c-.5625-.686-1.0459-1.389-1.4502-2.11-.3868-.738-.7471-1.503-1.0811-2.294h2.3731c.457.686.8613 1.38 1.2128 2.083.3692.703.835 1.363 1.3975 1.978l.7647.343c1.3007-.51 2.496-1.231 3.5859-2.163 1.1074-.931 2.4521-1.283 4.0342-1.054v.422c-.9492.685-1.9336 1.336-2.9532 1.951-1.0195.615-2.0654 1.125-3.1376 1.529h-3.5596Zm-12.4453-1.529-.2373-.079-.2637-.264c-.3867-1.072-.5274-2.259-.4219-3.56l.501-5.589h2.373v.843c-.1054 1.073-.2197 2.145-.3427 3.217-.1055 1.072-.1582 2.18-.1582 3.322l.2636 1.002h.1582l1.3448-1.002c.8613-.351 1.8281-.465 2.9004-.342v.422l-.4483.158-.1582.263c-.7383.739-1.5732 1.222-2.5049 1.451-.9316.211-1.9336.263-3.0058.158Zm13.5527-8.306v-.422l.501-.764 1.6084-2.189.1845-.923h-.1845c-1.1778.334-2.3028.774-3.375 1.319-1.0723.527-2.3115.703-3.7178.527v-.422c1.3535-.668 2.7598-1.23 4.2188-1.687 1.4765-.457 3.0585-.598 4.746-.422l.5801.237.1055 1.187c-.3516.861-.8086 1.652-1.3711 2.373l-.2373.105-.5273.844-.2374.079v.158h-2.2939ZM31.2441 438.985l-1.2656-.58c-.334-.562-.4483-1.186-.3428-1.872.457-1.793 1.2041-3.858 2.2412-6.196 1.0371-2.338 1.9248-4.351 2.6631-6.038-.3516-.281-.7822-.369-1.292-.264-2.8125.404-5.5635 1.143-8.2529 2.215-2.6719 1.072-5.4492 1.775-8.332 2.109v-.422c3.0585-1.177 6.1523-2.25 9.2812-3.216 3.1289-.967 6.3897-1.389 9.7822-1.266l1.002.237v.185h.1582l.1055.844c-.8438 1.74-1.8018 3.805-2.8741 6.196-1.0722 2.391-1.7754 4.544-2.1093 6.46l.4218.685c.5098.405 1.1075.545 1.793.422.668-.175 1.3711-.29 2.1094-.342.7383-.053 1.4677-.053 2.1885 0v.421l-2.6895.422h-4.5879Z"/></g><g fill="#2E2E2E" clip-path="url(#b)"><path d="M72.1045 29.4551v-.5274l.6064-2.1884h-.2636c-1.5118.3339-3.0147.6767-4.5088 1.0283-1.4942.334-3.0938.4658-4.7989.3955v.3428h-2.373a226.34586 226.34586 0 0 0-.3428-3.2432c-.1054-1.1074-.1845-2.1973-.2373-3.2695v-7.4356l.1582-1.793h2.3731v.5274l-.1582 2.2676h.1582l.1845-.2373c1.1778-.7911 2.417-1.4854 3.7178-2.083 1.3008-.5977 2.6543-1.0108 4.0606-1.2393h3.5595c.7207.123 1.3711.4043 1.9512.8438.4922.58.791 1.2216.8965 1.9248.123.7031.1846 1.4502.1846 2.2412-.2286 2.1445-.6153 4.2363-1.1602 6.2754-.5273 2.0214-1.0723 4.0781-1.6348 6.1699h-2.373Zm.8701-3.3223v-.1582c.4395-1.582.8525-3.1992 1.2393-4.8516.4043-1.6699.6328-3.3837.6855-5.1416-.1055-.8964-.3515-1.7138-.7383-2.4521l-.2636-.1582c-.5098-.5625-1.1338-.8174-1.8721-.7647-1.6875.2813-3.2432.9317-4.667 1.9512-1.4063 1.002-3.0059 1.5029-4.7988 1.5029l-.0791 3.4805.0791 1.7666h.2373c1.7578-.4922 3.5508-.9492 5.3789-1.3711 1.8457-.4394 3.7265-.6592 5.6426-.6592v.5274c-1.9161.1582-3.7793.5273-5.5899 1.1074-1.8105.5625-3.7002.8701-5.6689.9229v.2373l.5009 5.6689h.1583c1.6523-.2812 3.2607-.6152 4.8251-1.0019 1.5821-.4043 3.2256-.6065 4.9307-.6065ZM62.375 61.457v-.2636c-.1055-.668-.1934-1.3536-.2637-2.0567-.0527-.7031-.0791-1.4238-.0791-2.1621.0703-.8965.1407-1.793.211-2.6894.0879-.9141.2461-1.793.4746-2.6368h2.373v.4219l-.0791.3428h.4219c.9492-.457 1.9775-.7295 3.085-.8174 1.1074-.0879 2.25-.1055 3.4277-.0527.9668.0703 1.8105.4131 2.5312 1.0283l.1055.2637.2373.1582c.5098.6855.8086 1.4414.8965 2.2675.0879.8086.1055 1.6612.0527 2.5577l-.6064 2.7158h-2.294v-.1846h-.4218c-1.2305.1758-2.4873.3428-3.7705.501-1.2657.1758-2.5752.2637-3.9288.2637v.3427h-2.373Zm10.5996-1.9511c.2813-1.0196.4483-2.0918.501-3.2168-.0527-1.2305-.4483-2.3291-1.1865-3.2959-.6856-.5625-1.503-.8438-2.4522-.8438-.914.1758-1.7842.4658-2.6103.8701-.8086.3867-1.6612.6856-2.5577.8965l-.1582 2.294h.2373c.9141-.334 1.8633-.5274 2.8477-.5801.9844-.0703 1.9863-.0703 3.0059 0l.8437.4219c.1582.3339.2109.6943.1582 1.081l-.3428.6856h-2.373v-.4219l.3428-.7647-.3428-.4218h-.3164c-.6856.1757-1.3535.3779-2.0039.6064-.6504.2109-1.3711.29-2.1621.2373v1.5293l.2636 2.0303h.4219c1.3008-.1758 2.6104-.3516 3.9287-.5274 1.336-.1582 2.6543-.3515 3.9551-.58Zm-13.6318-8.2002c-.1758-.4043-.2373-.8262-.1846-1.2657l1.0283-3.6386h-.2636c-1.125.3867-2.3643.5273-3.7178.4218v-.4218l4.3242-1.1866.7646-2.6367h-.3427c-.9668.2813-2.0127.3692-3.1377.2637v-.4219l3.7969-.8437 1.0283-3.2168h2.2939v.5801l-.6855 2.373h3.375v.4219l-3.7178.3427-.6855 2.5313h.4218c.8614-.1582 1.7403-.29 2.6367-.3955.8965-.1231 1.8282-.1582 2.795-.1055v.4219c-1.0196.1758-2.0567.3516-3.1114.5273-1.0371.1582-2.0566.3516-3.0586.5801a41.175 41.175 0 0 1-.7646 2.5049c-.2813.8086-.4834 1.6611-.6065 2.5576l.4219.1846v.4219h-2.6103Zm19.1953 0c-1.002-.5625-1.9688-1.169-2.9004-1.8194-.9316-.6504-1.793-1.3974-2.584-2.2412l-.0791-.6855h2.2676l.6855.7646v.1582c.7911.6328 1.5909 1.2481 2.3994 1.8457.8262.5801 1.6875 1.0987 2.584 1.5557v.4219h-2.373Zm-8.8858-1.793-.1582-.6592.8438-3.1377h-.1582l-2.7158.0791v-.4219l3.2959-.7646.7646-2.5313h-2.7158v-.4218l3.0586-.3428.7646-2.5313h2.3731v.4219l-.5274 1.6875h.7647l2.5576-.0791v.4219l-3.6387.5801-.6855 2.2939h.5801c.7382-.1054 1.5029-.2021 2.2939-.29.791-.0879 1.582-.1055 2.3731-.0528l.0791.4219c-.9668.1231-1.9336.2549-2.9004.3955-.9493.1407-1.8985.2901-2.8477.4483l-1.1074 4.0605h.1582v.4219h-2.4522Zm-4.5615-.5801-1.1865-.6855-.9229-1.002v-.4219h2.3731l.3428.5801.58.3428.6856.6064.501.1582v.4219h-2.3731ZM61.3203 92.7207v-.4219c.2813-1.248.4483-2.5224.501-3.8232h-.2637c-1.0195.8437-2.2588 1.125-3.7178.8437l-.5009-.3164c-.4571-.7383-.6856-1.5468-.6856-2.4258v-2.663c.1055-.8965.2813-1.7666.5274-2.6104.2636-.8613.6767-1.6523 1.2392-2.373.8613-.4571 1.8545-.5977 2.9795-.4219v.4219c-.6855.4922-1.2217 1.1338-1.6084 1.9248-.334.791-.5625 1.6435-.6855 2.5576-.1055.8965-.1582 1.793-.1582 2.6894l.3427 1.793h.1582l.501-.501.6065-.3427.0791-.2637.7646-.6856h.1582l.1846-.3164.2373-.1054.3428-5.3262v-3.375l.0791-.6065-.1582-2.4521h2.373l.0791.2637v5.9326l-.1582 3.1904h.1582c1.125-.8437 2.294-1.5732 3.5068-2.1885 1.2129-.6152 2.4961-1.0634 3.8497-1.3447h4.2451c.6152.1055 1.1777.3604 1.6875.7647l.0791.2373.2636.0791c.4395.7383.6417 1.3535.6065 1.8457-.0176.4746-.0703.9931-.1582 1.5556-.0703.5625-.3604 1.3272-.8701 2.294-.5098.9492-1.0459 1.9072-1.6084 2.874h-2.3731v-.4219c.668-.9668 1.2393-1.9687 1.7139-3.0058.4922-1.0547.791-2.1709.8965-3.3487-.1055-.6328-.3516-1.1689-.7383-1.6084-.5098-.4043-1.1074-.6591-1.793-.7646-1.4062.334-2.7334.8437-3.9814 1.5293-1.2305.668-2.4434 1.459-3.6387 2.373l-.0791.1582-1.2656 1.0284h-.1846l-.0791.2373-.4219.3427c-.0527 1.1778-.123 2.3379-.2109 3.4805-.0879 1.125-.2461 2.2236-.4746 3.2959h-2.3467ZM71.709 122.877v-1.951l.8437-13.026h2.3731v1.002c-.2285 2.321-.4131 4.641-.5537 6.961-.1407 2.303-.2637 4.641-.3692 7.014H71.709Zm-9.1494-5.933c-.3867-.228-.6944-.571-.9229-1.028-.1758-.668-.2637-1.354-.2637-2.057v-2.162c.1231-1.529.2901-3.023.501-4.482.2285-1.477.5186-2.944.8701-4.403h2.2676v.843a78.06409 78.06409 0 0 0-.9756 5.3c-.2461 1.775-.3427 3.595-.29 5.458l.5273 1.688h.2373c.5625-.457 1.1954-.791 1.8985-1.002.7207-.229 1.5029-.29 2.3467-.185v.422c-.8438.738-1.793 1.222-2.8477 1.45-1.0371.211-2.1533.264-3.3486.158ZM59.2373 154.22v-.449l.3428-.237 5.748-7.198.4219-.422v-.264l-1.1074-.764-2.1094-1.767v-.501h2.2939l2.2676 1.767 2.9795-3.797 3.7178-4.667 1.4502-1.767h2.3467v.422l-6.75 8.464-2.1358 2.716c.791.562 1.5908 1.116 2.3994 1.661.8262.527 1.6963.958 2.6104 1.292.791-.176 1.6348-.237 2.5312-.185v.449c-1.1777.492-2.5312.659-4.0605.501-.8438-.229-1.6524-.58-2.4258-1.055-.7558-.492-1.5293-.958-2.3203-1.398l-.1582.238-5.0098 6.091-.6591.87h-2.3731ZM56.3369 180.474v-.422c3.9551-.563 7.919-1.029 11.8916-1.398 3.9727-.369 7.9629-.606 11.9707-.712v.422c-4.0078.158-7.9892.484-11.9443.976-3.9375.474-7.9102.852-11.918 1.134Zm13.3945-9.598v-.422l1.1866-.685.0791-.264.5009-.659h-.9228c-1.4063.228-2.8037.509-4.1924.843-1.3711.334-2.8213.449-4.3506.343-.2285-.123-.3164-.351-.2636-.685 1.3007.052 2.5136-.071 3.6386-.369 1.125-.317 2.3116-.537 3.5596-.66h4.4824l.501.264v.765l-.5801.58h-.1582l-.1846.263c-.8964.686-1.9951.914-3.2959.686ZM68.5713 211.685l-1.793-.185v-.422c1.4766 0 2.9268-.105 4.3506-.316 1.4414-.229 2.874-.431 4.2979-.607.2812-.843.5449-1.837.791-2.979.2636-1.16.4218-2.426.4746-3.797-.0528-.791-.334-1.477-.8438-2.057-.4043-.334-.8613-.527-1.3711-.58-.8437.176-1.6435.404-2.3994.686-.7558.281-1.5029.641-2.2412 1.081h-.8437l-1.5293-.079v-.422c1.0722-.615 2.2148-1.108 3.4277-1.477 1.2129-.369 2.4961-.492 3.8496-.369 1.1777-.07 2.25.15 3.2168.659l.7647.95c.2812.896.3691 2.091.2636 3.585-.2285 1.793-.5713 3.305-1.0283 4.536h.1582l2.4785-.159.5801.079v.501c-2.0918.176-4.1836.422-6.2754.739-2.0742.299-4.1836.51-6.3281.633ZM68.9673 223.762l.5068.019c-.0276 2.52-.0466 5.042-.0569 7.565-.0138 2.541-.1258 5.081-.3361 7.619l-.6838 3.493-.414-.081c.5043-3.125.7019-6.239.5927-9.341-.1126-3.085.0179-6.177.3913-9.274ZM69.415 273.943c-.7382-.123-1.3886-.439-1.9511-.949-.4571-.51-.6241-1.151-.501-1.925l.7646-1.371 1.3448-1.002c1.1777-.562 2.4785-.844 3.9023-.844v-2.293l-.1846-5.248h-.2636c-.7735.229-1.5996.361-2.4785.396-.879.018-1.7667.026-2.6631.026l-.1055-.501c.9668 0 1.8896-.096 2.7686-.29a22.7217 22.7217 0 0 1 2.663-.474v-1.793l-.2636-3.217h2.373l.2637 4.403h.1582c1.0195-.158 1.8984-.606 2.6367-1.344.7207-.229 1.5381-.317 2.4522-.264v.422c-.2813.51-.6768.879-1.1866 1.107-1.3007.457-2.6543.8-4.0605 1.028v.159l.1582 2.716v4.06l.0791 1.187c.9141 0 1.749.131 2.5049.395.7558.246 1.4502.624 2.083 1.134l.0791.58h-2.3731l-1.4238-1.107-.9492-.238c0 .791-.044 1.556-.1318 2.294-.0704.721-.2813 1.389-.6329 2.004l-1.081.844-.3428.105H69.415Zm2.0303-.764c.3867-.229.6943-.545.9229-.95.4043-1.125.6064-2.337.6064-3.638H72.79c-1.1777.228-2.1884.852-3.0322 1.872l-.4482 1.345c.2988.685.7822 1.169 1.4502 1.45l.4218.079.2637-.158Zm-13.0517-3.402-.4219-.237c-.5098-.844-.791-1.775-.8438-2.795a59.2273 59.2273 0 0 1-.0791-3.059l.3428-3.216h2.2939v.685c-.123.791-.2021 1.582-.2373 2.373-.0175.791-.0263 1.582-.0263 2.373.0527 1.02.2812 1.978.6855 2.874l.3164.079c.791-.509 1.6084-.984 2.4522-1.423.8613-.457 1.8281-.572 2.9004-.343v.422c-1.0723.791-2.2061 1.424-3.4014 1.898-1.1777.475-2.5049.598-3.9814.369Z"/></g><defs><clipPath id="a"><path fill="#fff" d="M16 12h24.2051v426.985H16z"/></clipPath><clipPath id="b"><path fill="#fff" d="M56.2051 12h24.9697v261.943H56.2051z"/></clipPath></defs></svg>